<svg width="252" height="252" viewBox="0 0 252 252" fill="none" xmlns="http://www.w3.org/2000/svg">
<path fill-rule="evenodd" clip-rule="evenodd" d="M227.807 234.348H216.11V131.935C216.11 125.411 211.029 120.103 204.784 120.103H152.158C150.671 120.103 149.466 121.363 149.466 122.916C149.466 124.47 150.671 125.729 152.158 125.729H204.784C208.06 125.729 210.725 128.514 210.725 131.935V234.349H207.137H201.518H183.417H177.99H177.968H80.2102C78.7232 234.349 77.5176 235.608 77.5176 237.161C77.5176 238.715 78.7232 239.974 80.2102 239.974H225.115V243.174C225.115 244.939 223.74 246.374 222.052 246.374H18.9483C17.2592 246.374 15.8852 244.939 15.8852 243.174V239.974H68.6966C70.1837 239.974 71.3892 238.715 71.3892 237.161C71.3892 235.608 70.1837 234.349 68.6966 234.349H63.0096H38.7904H33.1711H30.2749V131.935C30.2749 128.513 32.9399 125.729 36.2159 125.729V120.103C29.9705 120.103 24.8897 125.411 24.8897 131.935V234.349H13.1926C11.7056 234.349 10.5 235.608 10.5 237.161V243.174C10.5 248.041 14.2901 252 18.9483 252H222.052C226.71 252 230.5 248.041 230.5 243.174V237.161C230.5 235.608 229.294 234.348 227.807 234.348Z" fill="#191613"/>
<path d="M36.2159 125.729H88.8428C90.3298 125.729 91.5354 124.47 91.5354 122.916C91.5354 121.363 90.3298 120.103 88.8428 120.103H36.2159V125.729Z" fill="#191613"/>
<path d="M30.2749 137.561H82.9018C84.3888 137.561 85.5944 136.302 85.5944 134.748C85.5944 133.195 84.3888 131.935 82.9018 131.935H30.2749V137.561Z" fill="#191613"/>
<path d="M210.725 137.561H158.098C156.611 137.561 155.406 136.302 155.406 134.748C155.406 133.195 156.611 131.935 158.098 131.935H210.725V137.561Z" fill="#191613"/>
<path fill-rule="evenodd" clip-rule="evenodd" d="M38.7904 234.349C38.3948 235.62 38.1809 236.977 38.1809 238.387H32.7533C32.7533 237 32.8975 235.649 33.1711 234.349H38.7904Z" fill="#191613"/>
<path fill-rule="evenodd" clip-rule="evenodd" d="M201.518 234.349C201.914 235.62 202.128 236.977 202.128 238.387H207.555C207.555 237 207.411 235.649 207.137 234.349H201.518Z" fill="#191613"/>
<path d="M69.4802 146C70.979 146 72.194 147.27 72.194 148.836C72.194 150.402 70.979 151.672 69.4802 151.672H44.5131V197.429H56.2729C57.7717 197.429 58.9868 198.698 58.9868 200.265C58.9868 201.831 57.7717 203.101 56.2729 203.101H43.2466C40.9485 203.101 39.0854 201.154 39.0854 198.752V150.349C39.0854 147.947 40.9485 146 43.2466 146H69.4802Z" fill="#E5E5E5"/>
<path d="M79.069 170.769C79.069 169.203 77.854 167.933 76.3552 167.933C74.8564 167.933 73.6414 169.203 73.6414 170.769V192.324C73.6414 193.89 74.8564 195.16 76.3552 195.16C77.854 195.16 79.069 193.89 79.069 192.324V170.769Z" fill="#E5E5E5"/>
<path d="M167.358 170.769C167.358 169.203 166.143 167.933 164.645 167.933C163.146 167.933 161.931 169.203 161.931 170.769V192.324C161.931 193.89 163.146 195.16 164.645 195.16C166.143 195.16 167.358 193.89 167.358 192.324V170.769Z" fill="#E5E5E5"/>
<path d="M171.52 146C170.021 146 168.806 147.27 168.806 148.836C168.806 150.402 170.021 151.672 171.52 151.672H196.487V197.429H184.727C183.228 197.429 182.013 198.698 182.013 200.265C182.013 201.831 183.228 203.101 184.727 203.101H197.753C200.051 203.101 201.914 201.154 201.914 198.752V150.349C201.914 147.947 200.051 146 197.753 146H171.52Z" fill="#E5E5E5"/>
<path d="M177.796 224.348L181.388 228.601C181.79 228.23 182.215 227.885 182.661 227.57C182.365 225.599 181.838 223.708 181.108 221.927C179.915 222.604 178.805 223.418 177.796 224.348Z" fill="#E5E5E5"/>
<path d="M182.661 227.57C184.654 226.161 187.055 225.34 189.644 225.34C195.19 225.34 199.891 229.12 201.518 234.349H207.137C205.371 225.952 198.21 219.668 189.644 219.668C186.555 219.668 183.646 220.487 181.108 221.927C181.838 223.708 182.365 225.599 182.661 227.57Z" fill="#E5E5E5"/>
<path d="M80.2092 212.916C82.126 212.916 84.0453 213.259 85.9139 213.935C86.5907 214.18 87.3324 214.133 87.9761 213.805C88.6195 213.477 89.1113 212.895 89.3433 212.187C90.9664 207.229 95.3916 203.897 100.355 203.897C103.077 203.897 105.662 204.903 107.831 206.808C108.747 207.611 110.06 207.688 111.055 206.995C111.801 206.476 112.235 205.619 112.255 204.72C112.249 204.463 112.209 204.203 112.133 203.948C111.825 202.918 111.681 202.05 111.681 201.217C111.681 201.194 111.681 201.17 111.681 201.146C111.681 201.125 111.681 201.105 111.681 201.084C111.681 196.004 115.638 191.872 120.5 191.872C125.363 191.872 129.319 196.005 129.319 201.084C129.319 201.105 129.319 201.125 129.319 201.146C129.319 201.17 129.319 201.194 129.319 201.217C129.319 202.05 129.175 202.918 128.867 203.948C128.791 204.203 128.751 204.463 128.745 204.72C128.766 205.619 129.199 206.476 129.945 206.995C130.94 207.687 132.253 207.611 133.169 206.808C135.338 204.904 137.924 203.897 140.645 203.897C145.608 203.897 150.034 207.229 151.657 212.187C151.889 212.895 152.381 213.477 153.024 213.805C153.289 213.94 153.571 214.028 153.858 214.067C154.039 214.042 154.219 213.998 154.395 213.935C156.263 213.259 158.183 212.916 160.099 212.916C160.216 212.916 160.333 212.918 160.45 212.92C168.24 213.081 174.795 218.601 176.868 226.088C177.24 226.918 178.058 228.274 178.608 228.555C179.252 228.882 180.711 228.846 181.388 228.601L177.796 224.348C178.805 223.418 179.915 222.604 181.108 221.927C177.662 213.514 169.716 207.572 160.448 207.427C158.87 207.452 157.295 207.653 155.74 208.026C155.717 207.979 155.694 207.933 155.67 207.886C155.65 207.846 155.629 207.806 155.608 207.766C152.662 202.067 146.953 198.404 140.645 198.404C138.557 198.404 136.528 198.802 134.618 199.575C133.833 192.163 127.801 186.378 120.5 186.378C113.199 186.378 107.167 192.163 106.382 199.575C104.472 198.802 102.443 198.404 100.355 198.404C93.9519 198.404 88.1646 202.178 85.2598 208.026C83.5929 207.626 81.9027 207.424 80.2095 207.424C70.793 207.424 62.6895 213.408 59.2005 221.927C60.3931 222.604 61.5038 223.418 62.5127 224.348L58.9211 228.601C59.5978 228.846 61.057 228.882 61.7007 228.555C62.2506 228.274 63.0691 226.918 63.4402 226.088C65.5448 218.489 72.2659 212.916 80.2092 212.916Z" fill="#E5E5E5"/>
<path d="M58.9211 228.601L62.5127 224.348C61.5038 223.418 60.3931 222.604 59.2005 221.927C58.4711 223.708 57.9434 225.599 57.6475 227.57C58.0932 227.885 58.5186 228.23 58.9211 228.601Z" fill="#E5E5E5"/>
<path d="M50.6645 225.34C53.2534 225.34 55.6543 226.161 57.6475 227.57C57.9434 225.599 58.4711 223.708 59.2005 221.927C56.6625 220.487 53.7535 219.668 50.6645 219.668C42.099 219.668 34.9378 225.952 33.1711 234.349H38.7904C40.4173 229.12 45.1186 225.34 50.6645 225.34Z" fill="#E5E5E5"/>
<path fill-rule="evenodd" clip-rule="evenodd" d="M131.826 117.916C131.826 111.391 126.745 106.084 120.5 106.084C114.255 106.084 109.174 111.392 109.174 117.916C109.174 124.44 114.255 129.748 120.5 129.748C126.745 129.748 131.826 124.44 131.826 117.916ZM120.5 111.71C117.224 111.71 114.559 114.493 114.559 117.916C114.559 121.338 117.224 124.122 120.5 124.122C123.776 124.122 126.441 121.338 126.441 117.916C126.441 114.494 123.776 111.71 120.5 111.71Z" fill="#F69400"/>
<path fill-rule="evenodd" clip-rule="evenodd" d="M85.8978 149.684C84.2051 151.806 83.2727 154.496 83.2727 157.259V166.02C83.2727 167.019 83.7811 167.944 84.6075 168.449C85.0268 168.704 85.4961 168.832 85.9653 168.832C86.4216 168.832 86.8779 168.712 87.2886 168.469L106.464 157.166C107.194 158.56 107.969 159.931 108.787 161.277L106.377 171.35C106.175 172.191 106.356 173.081 106.866 173.764C107.377 174.447 108.16 174.846 108.989 174.846H132.012C132.842 174.846 133.624 174.447 134.135 173.764C134.645 173.081 134.826 172.191 134.624 171.35L132.214 161.277C133.032 159.931 133.807 158.561 134.538 157.166L153.713 168.469C154.124 168.712 154.58 168.832 155.036 168.832C155.505 168.832 155.974 168.704 156.394 168.449C157.22 167.945 157.729 167.02 157.729 166.02V157.259C157.729 154.496 156.796 151.806 155.103 149.684L142.321 133.665C142.994 129.487 143.339 125.227 143.339 120.923C143.339 110.665 141.438 100.749 137.689 91.452C134.073 82.4853 128.925 74.5305 122.39 67.8084C121.342 66.7305 119.66 66.7305 118.612 67.8084C112.076 74.5301 106.929 82.4849 103.313 91.452C99.5641 100.749 97.6631 110.665 97.6631 120.923C97.6631 125.22 98.0067 129.474 98.6777 133.646L85.8978 149.684ZM88.6579 157.259V161.202L104.054 152.128C102.447 148.418 101.136 144.575 100.127 140.634L90.0348 153.286C89.1469 154.399 88.6579 155.81 88.6579 157.259ZM113.969 162.82L112.437 169.219H128.563L127.032 162.82H113.969ZM152.342 157.259C152.342 155.81 151.853 154.399 150.965 153.286L140.873 140.633C139.864 144.575 138.553 148.418 136.947 152.127L152.342 161.202V157.259ZM131.586 91.0518C128.751 84.7476 125.022 78.9253 120.5 73.8475C115.978 78.9253 112.249 84.7476 109.414 91.0518H131.586ZM133.829 96.6772H107.171C104.479 104.345 103.047 112.566 103.047 120.922C103.047 133.857 106.378 146.363 112.695 157.193H128.305C134.622 146.363 137.953 133.857 137.953 120.922C137.953 112.566 136.521 104.345 133.829 96.6772Z" fill="#F69400"/>
<path fill-rule="evenodd" clip-rule="evenodd" d="M12 71.5C8.13401 71.5 5 74.634 5 78.5C5 82.366 8.13401 85.5 12 85.5C15.866 85.5 19 82.366 19 78.5C19 74.634 15.866 71.5 12 71.5ZM0 78.5C0 71.8726 5.37258 66.5 12 66.5C18.6274 66.5 24 71.8726 24 78.5C24 85.1274 18.6274 90.5 12 90.5C5.37258 90.5 0 85.1274 0 78.5Z" fill="#191613"/>
<path fill-rule="evenodd" clip-rule="evenodd" d="M240 125.5C236.134 125.5 233 128.634 233 132.5C233 136.366 236.134 139.5 240 139.5C243.866 139.5 247 136.366 247 132.5C247 128.634 243.866 125.5 240 125.5ZM228 132.5C228 125.873 233.373 120.5 240 120.5C246.627 120.5 252 125.873 252 132.5C252 139.127 246.627 144.5 240 144.5C233.373 144.5 228 139.127 228 132.5Z" fill="#F69400"/>
<path fill-rule="evenodd" clip-rule="evenodd" d="M93 23.5C94.933 23.5 96.5 25.067 96.5 27V30H99.5C101.433 30 103 31.567 103 33.5C103 35.433 101.433 37 99.5 37H96.5V40C96.5 41.933 94.933 43.5 93 43.5C91.067 43.5 89.5 41.933 89.5 40V37H86.5C84.567 37 83 35.433 83 33.5C83 31.567 84.567 30 86.5 30H89.5V27C89.5 25.067 91.067 23.5 93 23.5Z" fill="#F69400"/>
<path fill-rule="evenodd" clip-rule="evenodd" d="M214 77.5C215.933 77.5 217.5 79.067 217.5 81V84H220.5C222.433 84 224 85.567 224 87.5C224 89.433 222.433 91 220.5 91H217.5V94C217.5 95.933 215.933 97.5 214 97.5C212.067 97.5 210.5 95.933 210.5 94V91H207.5C205.567 91 204 89.433 204 87.5C204 85.567 205.567 84 207.5 84H210.5V81C210.5 79.067 212.067 77.5 214 77.5Z" fill="#191613"/>
<path d="M73.5 100.5C73.5 102.985 71.4853 105 69 105C66.5147 105 64.5 102.985 64.5 100.5C64.5 98.0147 66.5147 96 69 96C71.4853 96 73.5 98.0147 73.5 100.5Z" fill="#191613"/>
<path d="M145.5 4.5C145.5 6.98528 143.485 9 141 9C138.515 9 136.5 6.98528 136.5 4.5C136.5 2.01472 138.515 0 141 0C143.485 0 145.5 2.01472 145.5 4.5Z" fill="#F69400"/>
<path d="M161.5 62.5C161.5 64.9853 159.485 67 157 67C154.515 67 152.5 64.9853 152.5 62.5C152.5 60.0147 154.515 58 157 58C159.485 58 161.5 60.0147 161.5 62.5Z" fill="#191613"/>
</svg>
