<svg width="252" height="252" viewBox="0 0 252 252" fill="none" xmlns="http://www.w3.org/2000/svg">
<mask id="path-1-outside-1" maskUnits="userSpaceOnUse" x="43" y="145" width="169" height="81" fill="black">
<rect fill="white" x="43" y="145" width="169" height="81"/>
<path d="M77.8 224H72.2C70.3075 224 68.71 222.582 68.485 220.7L67.8875 216.01C66.695 215.623 65.545 215.145 64.4525 214.588L60.7175 217.49C59.2025 218.662 57.07 218.528 55.755 217.175L51.8175 213.238C50.475 211.935 50.34 209.803 51.5125 208.29L54.415 204.553C53.855 203.46 53.3775 202.31 52.9925 201.118L48.2925 200.52C46.4175 200.29 45 198.693 45 196.8V191.2C45 189.307 46.4175 187.71 48.3 187.485L52.99 186.887C53.3775 185.695 53.855 184.545 54.4125 183.452L51.5125 179.717C50.3375 178.202 50.475 176.068 51.83 174.753L55.7675 170.815C57.07 169.472 59.205 169.34 60.715 170.51L64.45 173.415C65.5425 172.858 66.6925 172.38 67.8875 171.993L68.485 167.292C68.71 165.417 70.3075 164 72.2 164H77.8C79.6925 164 81.29 165.417 81.515 167.3L82.1125 171.99C83.3075 172.378 84.4575 172.855 85.55 173.413L89.285 170.51C90.8025 169.337 92.9325 169.472 94.2475 170.827L98.185 174.765C99.5275 176.067 99.6625 178.2 98.49 179.713L95.5875 183.45C96.1475 184.542 96.625 185.693 97.01 186.885L101.71 187.482C103.583 187.71 105 189.307 105 191.2V196.8C105 198.693 103.583 200.29 101.7 200.515L97.01 201.112C96.6225 202.305 96.145 203.455 95.5875 204.548L98.49 208.282C99.665 209.797 99.5275 211.93 98.1725 213.245L94.235 217.183C92.9325 218.525 90.7975 218.663 89.2875 217.488L85.55 214.585C84.4575 215.145 83.3075 215.622 82.115 216.007L81.5175 220.708C81.29 222.583 79.6925 224 77.8 224ZM64.325 211.85C64.5325 211.85 64.745 211.902 64.935 212.007C66.3125 212.777 67.805 213.397 69.37 213.847C69.85 213.985 70.2025 214.395 70.265 214.89L70.965 220.39C71.04 221.018 71.5825 221.5 72.2 221.5H77.8C78.4175 221.5 78.96 221.018 79.0325 220.403L79.735 214.893C79.7975 214.397 80.15 213.988 80.63 213.85C82.195 213.4 83.6875 212.78 85.065 212.01C85.5025 211.765 86.0475 211.808 86.44 212.115L90.815 215.515C91.3175 215.905 92.0225 215.872 92.4525 215.43L96.415 211.467C96.8675 211.027 96.9025 210.322 96.5125 209.817L93.1125 205.442C92.805 205.047 92.7625 204.505 93.0075 204.068C93.7775 202.69 94.3975 201.197 94.8475 199.632C94.985 199.153 95.395 198.8 95.89 198.738L101.39 198.037C102.017 197.96 102.5 197.417 102.5 196.8V191.2C102.5 190.583 102.018 190.04 101.403 189.967L95.8925 189.265C95.3975 189.202 94.9875 188.85 94.85 188.37C94.4 186.805 93.78 185.312 93.01 183.935C92.765 183.497 92.805 182.955 93.115 182.56L96.515 178.185C96.9075 177.68 96.8725 176.975 96.4325 176.55L92.47 172.587C92.0325 172.132 91.325 172.097 90.82 172.49L86.445 175.89C86.0475 176.198 85.505 176.24 85.0675 175.995C83.695 175.225 82.2025 174.607 80.6325 174.155C80.1525 174.017 79.8 173.608 79.7375 173.112L79.0375 167.612C78.96 166.983 78.4175 166.5 77.8 166.5H72.2C71.5825 166.5 71.04 166.983 70.9675 167.597L70.265 173.108C70.2025 173.603 69.85 174.013 69.37 174.153C67.8 174.603 66.3075 175.222 64.935 175.99C64.4975 176.237 63.955 176.193 63.5575 175.888L59.1825 172.487C58.6775 172.095 57.975 172.13 57.5475 172.57L53.585 176.535C53.1325 176.975 53.0975 177.68 53.4875 178.185L56.8875 182.56C57.195 182.955 57.2375 183.497 56.9925 183.935C56.22 185.312 55.6025 186.805 55.1525 188.37C55.015 188.85 54.605 189.202 54.11 189.265L48.61 189.965C47.9825 190.04 47.5 190.583 47.5 191.2V196.8C47.5 197.417 47.9825 197.96 48.5975 198.033L54.1075 198.735C54.6025 198.798 55.0125 199.15 55.15 199.63C55.6 201.195 56.22 202.688 56.99 204.065C57.235 204.502 57.195 205.045 56.885 205.44L53.485 209.815C53.0925 210.32 53.1275 211.025 53.5675 211.45L57.53 215.413C57.9675 215.865 58.67 215.9 59.18 215.51L63.555 212.11C63.7825 211.94 64.0525 211.85 64.325 211.85Z"/>
<path d="M75 206.5C68.1075 206.5 62.5 200.893 62.5 194C62.5 187.108 68.1075 181.5 75 181.5C81.8925 181.5 87.5 187.108 87.5 194C87.5 200.893 81.8925 206.5 75 206.5ZM75 184C69.485 184 65 188.485 65 194C65 199.515 69.485 204 75 204C80.515 204 85 199.515 85 194C85 188.485 80.515 184 75 184Z"/>
<path d="M121.133 186H117.867C116.763 186 115.831 185.173 115.7 184.075L115.351 181.339C114.655 181.113 113.985 180.835 113.347 180.509L111.169 182.202C110.285 182.886 109.041 182.808 108.274 182.019L105.977 179.722C105.194 178.962 105.115 177.718 105.799 176.836L107.492 174.656C107.165 174.018 106.887 173.347 106.662 172.652L103.921 172.303C102.827 172.169 102 171.237 102 170.133V166.867C102 165.763 102.827 164.831 103.925 164.7L106.661 164.351C106.887 163.655 107.165 162.985 107.491 162.347L105.799 160.169C105.114 159.285 105.194 158.039 105.984 157.272L108.281 154.975C109.041 154.192 110.286 154.115 111.167 154.798L113.346 156.492C113.983 156.167 114.654 155.888 115.351 155.662L115.7 152.921C115.831 151.827 116.763 151 117.867 151H121.133C122.237 151 123.169 151.827 123.3 152.925L123.649 155.661C124.346 155.887 125.017 156.165 125.654 156.491L127.833 154.798C128.718 154.114 129.961 154.192 130.728 154.983L133.025 157.28C133.808 158.039 133.886 159.283 133.202 160.166L131.509 162.346C131.836 162.983 132.115 163.654 132.339 164.35L135.081 164.698C136.173 164.831 137 165.763 137 166.867V170.133C137 171.237 136.173 172.169 135.075 172.3L132.339 172.649C132.113 173.345 131.835 174.015 131.509 174.653L133.202 176.831C133.888 177.715 133.808 178.959 133.017 179.726L130.72 182.023C129.961 182.806 128.715 182.886 127.834 182.201L125.654 180.508C125.017 180.835 124.346 181.113 123.65 181.338L123.302 184.079C123.169 185.173 122.237 186 121.133 186ZM113.273 178.912C113.394 178.912 113.518 178.943 113.629 179.004C114.432 179.454 115.303 179.815 116.216 180.078C116.496 180.158 116.701 180.397 116.738 180.686L117.146 183.894C117.19 184.26 117.506 184.542 117.867 184.542H121.133C121.494 184.542 121.81 184.26 121.852 183.901L122.262 180.687C122.299 180.399 122.504 180.159 122.784 180.079C123.697 179.817 124.568 179.455 125.371 179.006C125.626 178.863 125.944 178.888 126.173 179.067L128.725 181.05C129.019 181.278 129.43 181.259 129.681 181.001L131.992 178.689C132.256 178.433 132.276 178.021 132.049 177.727L130.066 175.175C129.886 174.944 129.861 174.628 130.004 174.373C130.454 173.569 130.815 172.699 131.078 171.786C131.158 171.506 131.397 171.3 131.686 171.264L134.894 170.855C135.26 170.81 135.542 170.494 135.542 170.133V166.867C135.542 166.506 135.26 166.19 134.901 166.148L131.687 165.738C131.399 165.701 131.159 165.496 131.079 165.216C130.817 164.303 130.455 163.432 130.006 162.629C129.863 162.374 129.886 162.057 130.067 161.827L132.05 159.275C132.279 158.98 132.259 158.569 132.002 158.321L129.691 156.009C129.436 155.744 129.023 155.724 128.728 155.952L126.176 157.936C125.944 158.115 125.628 158.14 125.373 157.997C124.572 157.548 123.701 157.188 122.786 156.924C122.506 156.844 122.3 156.604 122.264 156.316L121.855 153.107C121.81 152.74 121.494 152.458 121.133 152.458H117.867C117.506 152.458 117.19 152.74 117.148 153.099L116.738 156.313C116.701 156.601 116.496 156.841 116.216 156.922C115.3 157.185 114.429 157.546 113.629 157.994C113.374 158.139 113.057 158.112 112.825 157.934L110.273 155.951C109.979 155.722 109.569 155.743 109.319 155.999L107.008 158.312C106.744 158.569 106.724 158.98 106.951 159.275L108.934 161.827C109.114 162.057 109.139 162.374 108.996 162.629C108.545 163.432 108.185 164.303 107.922 165.216C107.842 165.496 107.603 165.701 107.314 165.738L104.106 166.146C103.74 166.19 103.458 166.506 103.458 166.867V170.133C103.458 170.494 103.74 170.81 104.099 170.852L107.313 171.262C107.601 171.299 107.841 171.504 107.921 171.784C108.183 172.697 108.545 173.568 108.994 174.371C109.137 174.626 109.114 174.943 108.933 175.173L106.95 177.725C106.721 178.02 106.741 178.431 106.998 178.679L109.309 180.991C109.564 181.255 109.974 181.275 110.272 181.048L112.824 179.064C112.956 178.965 113.114 178.912 113.273 178.912Z"/>
<path d="M119.5 175.792C115.479 175.792 112.208 172.521 112.208 168.5C112.208 164.479 115.479 161.208 119.5 161.208C123.521 161.208 126.792 164.479 126.792 168.5C126.792 172.521 123.521 175.792 119.5 175.792ZM119.5 162.667C116.283 162.667 113.667 165.283 113.667 168.5C113.667 171.717 116.283 174.333 119.5 174.333C122.717 174.333 125.333 171.717 125.333 168.5C125.333 165.283 122.717 162.667 119.5 162.667Z"/>
<path d="M176.907 220H170.093C167.791 220 165.847 218.275 165.573 215.985L164.846 210.279C163.396 209.807 161.996 209.226 160.667 208.548L156.123 212.079C154.28 213.506 151.685 213.342 150.085 211.696L145.295 206.906C143.661 205.321 143.497 202.726 144.924 200.886L148.455 196.339C147.774 195.01 147.193 193.611 146.724 192.16L141.006 191.433C138.725 191.153 137 189.209 137 186.907V180.093C137 177.791 138.725 175.847 141.015 175.573L146.721 174.846C147.193 173.396 147.774 171.996 148.452 170.667L144.924 166.123C143.494 164.28 143.661 161.682 145.31 160.082L150.1 155.292C151.685 153.658 154.283 153.497 156.12 154.921L160.664 158.455C161.993 157.777 163.393 157.196 164.846 156.724L165.573 151.006C165.847 148.725 167.791 147 170.093 147H176.907C179.209 147 181.153 148.725 181.427 151.015L182.154 156.721C183.607 157.193 185.007 157.774 186.336 158.452L190.88 154.921C192.726 153.494 195.318 153.658 196.918 155.307L201.708 160.097C203.342 161.682 203.506 164.277 202.079 166.117L198.548 170.664C199.229 171.993 199.81 173.393 200.279 174.843L205.997 175.57C208.275 175.847 210 177.791 210 180.093V186.907C210 189.209 208.275 191.153 205.985 191.427L200.279 192.154C199.807 193.604 199.226 195.004 198.548 196.333L202.079 200.877C203.509 202.72 203.342 205.315 201.693 206.915L196.903 211.705C195.318 213.339 192.72 213.506 190.883 212.076L186.336 208.545C185.007 209.226 183.607 209.807 182.157 210.276L181.43 215.994C181.153 218.275 179.209 220 176.907 220ZM160.512 205.217C160.765 205.217 161.023 205.281 161.254 205.409C162.93 206.346 164.746 207.1 166.65 207.648C167.234 207.815 167.663 208.314 167.739 208.916L168.591 215.608C168.682 216.371 169.342 216.958 170.093 216.958H176.907C177.658 216.958 178.318 216.371 178.406 215.623L179.261 208.919C179.337 208.317 179.766 207.818 180.35 207.651C182.254 207.103 184.07 206.349 185.746 205.412C186.278 205.114 186.941 205.166 187.419 205.54L192.742 209.677C193.353 210.151 194.211 210.112 194.734 209.573L199.555 204.752C200.105 204.217 200.148 203.359 199.674 202.745L195.537 197.422C195.163 196.941 195.111 196.281 195.409 195.749C196.346 194.073 197.1 192.257 197.648 190.353C197.815 189.769 198.314 189.34 198.916 189.264L205.608 188.412C206.371 188.318 206.958 187.658 206.958 186.907V180.093C206.958 179.342 206.371 178.682 205.623 178.594L198.919 177.739C198.317 177.663 197.818 177.234 197.651 176.65C197.103 174.746 196.349 172.93 195.412 171.254C195.114 170.722 195.163 170.062 195.54 169.581L199.677 164.258C200.154 163.644 200.112 162.786 199.576 162.269L194.755 157.448C194.223 156.895 193.362 156.852 192.748 157.33L187.425 161.466C186.941 161.84 186.281 161.892 185.749 161.594C184.079 160.657 182.263 159.906 180.353 159.355C179.769 159.188 179.34 158.689 179.264 158.087L178.412 151.395C178.318 150.629 177.658 150.042 176.907 150.042H170.093C169.342 150.042 168.682 150.629 168.594 151.377L167.739 158.081C167.663 158.683 167.234 159.182 166.65 159.352C164.74 159.9 162.924 160.654 161.254 161.588C160.722 161.889 160.062 161.834 159.578 161.463L154.255 157.326C153.641 156.849 152.786 156.891 152.266 157.427L147.445 162.251C146.895 162.786 146.852 163.644 147.326 164.258L151.463 169.581C151.837 170.062 151.889 170.722 151.591 171.254C150.651 172.93 149.9 174.746 149.352 176.65C149.185 177.234 148.686 177.663 148.084 177.739L141.392 178.591C140.629 178.682 140.042 179.342 140.042 180.093V186.907C140.042 187.658 140.629 188.318 141.377 188.406L148.081 189.261C148.683 189.337 149.182 189.766 149.349 190.35C149.897 192.254 150.651 194.07 151.588 195.746C151.886 196.278 151.837 196.938 151.46 197.419L147.323 202.742C146.846 203.356 146.888 204.214 147.424 204.731L152.245 209.552C152.777 210.102 153.632 210.145 154.252 209.671L159.575 205.534C159.852 205.327 160.181 205.217 160.512 205.217Z"/>
<path d="M173.5 198.708C165.114 198.708 158.292 191.886 158.292 183.5C158.292 175.114 165.114 168.292 173.5 168.292C181.886 168.292 188.708 175.114 188.708 183.5C188.708 191.886 181.886 198.708 173.5 198.708ZM173.5 171.333C166.79 171.333 161.333 176.79 161.333 183.5C161.333 190.21 166.79 195.667 173.5 195.667C180.21 195.667 185.667 190.21 185.667 183.5C185.667 176.79 180.21 171.333 173.5 171.333Z"/>
</mask>
<path d="M77.8 224H72.2C70.3075 224 68.71 222.582 68.485 220.7L67.8875 216.01C66.695 215.623 65.545 215.145 64.4525 214.588L60.7175 217.49C59.2025 218.662 57.07 218.528 55.755 217.175L51.8175 213.238C50.475 211.935 50.34 209.803 51.5125 208.29L54.415 204.553C53.855 203.46 53.3775 202.31 52.9925 201.118L48.2925 200.52C46.4175 200.29 45 198.693 45 196.8V191.2C45 189.307 46.4175 187.71 48.3 187.485L52.99 186.887C53.3775 185.695 53.855 184.545 54.4125 183.452L51.5125 179.717C50.3375 178.202 50.475 176.068 51.83 174.753L55.7675 170.815C57.07 169.472 59.205 169.34 60.715 170.51L64.45 173.415C65.5425 172.858 66.6925 172.38 67.8875 171.993L68.485 167.292C68.71 165.417 70.3075 164 72.2 164H77.8C79.6925 164 81.29 165.417 81.515 167.3L82.1125 171.99C83.3075 172.378 84.4575 172.855 85.55 173.413L89.285 170.51C90.8025 169.337 92.9325 169.472 94.2475 170.827L98.185 174.765C99.5275 176.067 99.6625 178.2 98.49 179.713L95.5875 183.45C96.1475 184.542 96.625 185.693 97.01 186.885L101.71 187.482C103.583 187.71 105 189.307 105 191.2V196.8C105 198.693 103.583 200.29 101.7 200.515L97.01 201.112C96.6225 202.305 96.145 203.455 95.5875 204.548L98.49 208.282C99.665 209.797 99.5275 211.93 98.1725 213.245L94.235 217.183C92.9325 218.525 90.7975 218.663 89.2875 217.488L85.55 214.585C84.4575 215.145 83.3075 215.622 82.115 216.007L81.5175 220.708C81.29 222.583 79.6925 224 77.8 224ZM64.325 211.85C64.5325 211.85 64.745 211.902 64.935 212.007C66.3125 212.777 67.805 213.397 69.37 213.847C69.85 213.985 70.2025 214.395 70.265 214.89L70.965 220.39C71.04 221.018 71.5825 221.5 72.2 221.5H77.8C78.4175 221.5 78.96 221.018 79.0325 220.403L79.735 214.893C79.7975 214.397 80.15 213.988 80.63 213.85C82.195 213.4 83.6875 212.78 85.065 212.01C85.5025 211.765 86.0475 211.808 86.44 212.115L90.815 215.515C91.3175 215.905 92.0225 215.872 92.4525 215.43L96.415 211.467C96.8675 211.027 96.9025 210.322 96.5125 209.817L93.1125 205.442C92.805 205.047 92.7625 204.505 93.0075 204.068C93.7775 202.69 94.3975 201.197 94.8475 199.632C94.985 199.153 95.395 198.8 95.89 198.738L101.39 198.037C102.017 197.96 102.5 197.417 102.5 196.8V191.2C102.5 190.583 102.018 190.04 101.403 189.967L95.8925 189.265C95.3975 189.202 94.9875 188.85 94.85 188.37C94.4 186.805 93.78 185.312 93.01 183.935C92.765 183.497 92.805 182.955 93.115 182.56L96.515 178.185C96.9075 177.68 96.8725 176.975 96.4325 176.55L92.47 172.587C92.0325 172.132 91.325 172.097 90.82 172.49L86.445 175.89C86.0475 176.198 85.505 176.24 85.0675 175.995C83.695 175.225 82.2025 174.607 80.6325 174.155C80.1525 174.017 79.8 173.608 79.7375 173.112L79.0375 167.612C78.96 166.983 78.4175 166.5 77.8 166.5H72.2C71.5825 166.5 71.04 166.983 70.9675 167.597L70.265 173.108C70.2025 173.603 69.85 174.013 69.37 174.153C67.8 174.603 66.3075 175.222 64.935 175.99C64.4975 176.237 63.955 176.193 63.5575 175.888L59.1825 172.487C58.6775 172.095 57.975 172.13 57.5475 172.57L53.585 176.535C53.1325 176.975 53.0975 177.68 53.4875 178.185L56.8875 182.56C57.195 182.955 57.2375 183.497 56.9925 183.935C56.22 185.312 55.6025 186.805 55.1525 188.37C55.015 188.85 54.605 189.202 54.11 189.265L48.61 189.965C47.9825 190.04 47.5 190.583 47.5 191.2V196.8C47.5 197.417 47.9825 197.96 48.5975 198.033L54.1075 198.735C54.6025 198.798 55.0125 199.15 55.15 199.63C55.6 201.195 56.22 202.688 56.99 204.065C57.235 204.502 57.195 205.045 56.885 205.44L53.485 209.815C53.0925 210.32 53.1275 211.025 53.5675 211.45L57.53 215.413C57.9675 215.865 58.67 215.9 59.18 215.51L63.555 212.11C63.7825 211.94 64.0525 211.85 64.325 211.85Z" fill="#E5E5E5"/>
<path d="M75 206.5C68.1075 206.5 62.5 200.893 62.5 194C62.5 187.108 68.1075 181.5 75 181.5C81.8925 181.5 87.5 187.108 87.5 194C87.5 200.893 81.8925 206.5 75 206.5ZM75 184C69.485 184 65 188.485 65 194C65 199.515 69.485 204 75 204C80.515 204 85 199.515 85 194C85 188.485 80.515 184 75 184Z" fill="#E5E5E5"/>
<path d="M121.133 186H117.867C116.763 186 115.831 185.173 115.7 184.075L115.351 181.339C114.655 181.113 113.985 180.835 113.347 180.509L111.169 182.202C110.285 182.886 109.041 182.808 108.274 182.019L105.977 179.722C105.194 178.962 105.115 177.718 105.799 176.836L107.492 174.656C107.165 174.018 106.887 173.347 106.662 172.652L103.921 172.303C102.827 172.169 102 171.237 102 170.133V166.867C102 165.763 102.827 164.831 103.925 164.7L106.661 164.351C106.887 163.655 107.165 162.985 107.491 162.347L105.799 160.169C105.114 159.285 105.194 158.039 105.984 157.272L108.281 154.975C109.041 154.192 110.286 154.115 111.167 154.798L113.346 156.492C113.983 156.167 114.654 155.888 115.351 155.662L115.7 152.921C115.831 151.827 116.763 151 117.867 151H121.133C122.237 151 123.169 151.827 123.3 152.925L123.649 155.661C124.346 155.887 125.017 156.165 125.654 156.491L127.833 154.798C128.718 154.114 129.961 154.192 130.728 154.983L133.025 157.28C133.808 158.039 133.886 159.283 133.202 160.166L131.509 162.346C131.836 162.983 132.115 163.654 132.339 164.35L135.081 164.698C136.173 164.831 137 165.763 137 166.867V170.133C137 171.237 136.173 172.169 135.075 172.3L132.339 172.649C132.113 173.345 131.835 174.015 131.509 174.653L133.202 176.831C133.888 177.715 133.808 178.959 133.017 179.726L130.72 182.023C129.961 182.806 128.715 182.886 127.834 182.201L125.654 180.508C125.017 180.835 124.346 181.113 123.65 181.338L123.302 184.079C123.169 185.173 122.237 186 121.133 186ZM113.273 178.912C113.394 178.912 113.518 178.943 113.629 179.004C114.432 179.454 115.303 179.815 116.216 180.078C116.496 180.158 116.701 180.397 116.738 180.686L117.146 183.894C117.19 184.26 117.506 184.542 117.867 184.542H121.133C121.494 184.542 121.81 184.26 121.852 183.901L122.262 180.687C122.299 180.399 122.504 180.159 122.784 180.079C123.697 179.817 124.568 179.455 125.371 179.006C125.626 178.863 125.944 178.888 126.173 179.067L128.725 181.05C129.019 181.278 129.43 181.259 129.681 181.001L131.992 178.689C132.256 178.433 132.276 178.021 132.049 177.727L130.066 175.175C129.886 174.944 129.861 174.628 130.004 174.373C130.454 173.569 130.815 172.699 131.078 171.786C131.158 171.506 131.397 171.3 131.686 171.264L134.894 170.855C135.26 170.81 135.542 170.494 135.542 170.133V166.867C135.542 166.506 135.26 166.19 134.901 166.148L131.687 165.738C131.399 165.701 131.159 165.496 131.079 165.216C130.817 164.303 130.455 163.432 130.006 162.629C129.863 162.374 129.886 162.057 130.067 161.827L132.05 159.275C132.279 158.98 132.259 158.569 132.002 158.321L129.691 156.009C129.436 155.744 129.023 155.724 128.728 155.952L126.176 157.936C125.944 158.115 125.628 158.14 125.373 157.997C124.572 157.548 123.701 157.188 122.786 156.924C122.506 156.844 122.3 156.604 122.264 156.316L121.855 153.107C121.81 152.74 121.494 152.458 121.133 152.458H117.867C117.506 152.458 117.19 152.74 117.148 153.099L116.738 156.313C116.701 156.601 116.496 156.841 116.216 156.922C115.3 157.185 114.429 157.546 113.629 157.994C113.374 158.139 113.057 158.112 112.825 157.934L110.273 155.951C109.979 155.722 109.569 155.743 109.319 155.999L107.008 158.312C106.744 158.569 106.724 158.98 106.951 159.275L108.934 161.827C109.114 162.057 109.139 162.374 108.996 162.629C108.545 163.432 108.185 164.303 107.922 165.216C107.842 165.496 107.603 165.701 107.314 165.738L104.106 166.146C103.74 166.19 103.458 166.506 103.458 166.867V170.133C103.458 170.494 103.74 170.81 104.099 170.852L107.313 171.262C107.601 171.299 107.841 171.504 107.921 171.784C108.183 172.697 108.545 173.568 108.994 174.371C109.137 174.626 109.114 174.943 108.933 175.173L106.95 177.725C106.721 178.02 106.741 178.431 106.998 178.679L109.309 180.991C109.564 181.255 109.974 181.275 110.272 181.048L112.824 179.064C112.956 178.965 113.114 178.912 113.273 178.912Z" fill="#E5E5E5"/>
<path d="M119.5 175.792C115.479 175.792 112.208 172.521 112.208 168.5C112.208 164.479 115.479 161.208 119.5 161.208C123.521 161.208 126.792 164.479 126.792 168.5C126.792 172.521 123.521 175.792 119.5 175.792ZM119.5 162.667C116.283 162.667 113.667 165.283 113.667 168.5C113.667 171.717 116.283 174.333 119.5 174.333C122.717 174.333 125.333 171.717 125.333 168.5C125.333 165.283 122.717 162.667 119.5 162.667Z" fill="#E5E5E5"/>
<path d="M176.907 220H170.093C167.791 220 165.847 218.275 165.573 215.985L164.846 210.279C163.396 209.807 161.996 209.226 160.667 208.548L156.123 212.079C154.28 213.506 151.685 213.342 150.085 211.696L145.295 206.906C143.661 205.321 143.497 202.726 144.924 200.886L148.455 196.339C147.774 195.01 147.193 193.611 146.724 192.16L141.006 191.433C138.725 191.153 137 189.209 137 186.907V180.093C137 177.791 138.725 175.847 141.015 175.573L146.721 174.846C147.193 173.396 147.774 171.996 148.452 170.667L144.924 166.123C143.494 164.28 143.661 161.682 145.31 160.082L150.1 155.292C151.685 153.658 154.283 153.497 156.12 154.921L160.664 158.455C161.993 157.777 163.393 157.196 164.846 156.724L165.573 151.006C165.847 148.725 167.791 147 170.093 147H176.907C179.209 147 181.153 148.725 181.427 151.015L182.154 156.721C183.607 157.193 185.007 157.774 186.336 158.452L190.88 154.921C192.726 153.494 195.318 153.658 196.918 155.307L201.708 160.097C203.342 161.682 203.506 164.277 202.079 166.117L198.548 170.664C199.229 171.993 199.81 173.393 200.279 174.843L205.997 175.57C208.275 175.847 210 177.791 210 180.093V186.907C210 189.209 208.275 191.153 205.985 191.427L200.279 192.154C199.807 193.604 199.226 195.004 198.548 196.333L202.079 200.877C203.509 202.72 203.342 205.315 201.693 206.915L196.903 211.705C195.318 213.339 192.72 213.506 190.883 212.076L186.336 208.545C185.007 209.226 183.607 209.807 182.157 210.276L181.43 215.994C181.153 218.275 179.209 220 176.907 220ZM160.512 205.217C160.765 205.217 161.023 205.281 161.254 205.409C162.93 206.346 164.746 207.1 166.65 207.648C167.234 207.815 167.663 208.314 167.739 208.916L168.591 215.608C168.682 216.371 169.342 216.958 170.093 216.958H176.907C177.658 216.958 178.318 216.371 178.406 215.623L179.261 208.919C179.337 208.317 179.766 207.818 180.35 207.651C182.254 207.103 184.07 206.349 185.746 205.412C186.278 205.114 186.941 205.166 187.419 205.54L192.742 209.677C193.353 210.151 194.211 210.112 194.734 209.573L199.555 204.752C200.105 204.217 200.148 203.359 199.674 202.745L195.537 197.422C195.163 196.941 195.111 196.281 195.409 195.749C196.346 194.073 197.1 192.257 197.648 190.353C197.815 189.769 198.314 189.34 198.916 189.264L205.608 188.412C206.371 188.318 206.958 187.658 206.958 186.907V180.093C206.958 179.342 206.371 178.682 205.623 178.594L198.919 177.739C198.317 177.663 197.818 177.234 197.651 176.65C197.103 174.746 196.349 172.93 195.412 171.254C195.114 170.722 195.163 170.062 195.54 169.581L199.677 164.258C200.154 163.644 200.112 162.786 199.576 162.269L194.755 157.448C194.223 156.895 193.362 156.852 192.748 157.33L187.425 161.466C186.941 161.84 186.281 161.892 185.749 161.594C184.079 160.657 182.263 159.906 180.353 159.355C179.769 159.188 179.34 158.689 179.264 158.087L178.412 151.395C178.318 150.629 177.658 150.042 176.907 150.042H170.093C169.342 150.042 168.682 150.629 168.594 151.377L167.739 158.081C167.663 158.683 167.234 159.182 166.65 159.352C164.74 159.9 162.924 160.654 161.254 161.588C160.722 161.889 160.062 161.834 159.578 161.463L154.255 157.326C153.641 156.849 152.786 156.891 152.266 157.427L147.445 162.251C146.895 162.786 146.852 163.644 147.326 164.258L151.463 169.581C151.837 170.062 151.889 170.722 151.591 171.254C150.651 172.93 149.9 174.746 149.352 176.65C149.185 177.234 148.686 177.663 148.084 177.739L141.392 178.591C140.629 178.682 140.042 179.342 140.042 180.093V186.907C140.042 187.658 140.629 188.318 141.377 188.406L148.081 189.261C148.683 189.337 149.182 189.766 149.349 190.35C149.897 192.254 150.651 194.07 151.588 195.746C151.886 196.278 151.837 196.938 151.46 197.419L147.323 202.742C146.846 203.356 146.888 204.214 147.424 204.731L152.245 209.552C152.777 210.102 153.632 210.145 154.252 209.671L159.575 205.534C159.852 205.327 160.181 205.217 160.512 205.217Z" fill="#E5E5E5"/>
<path d="M173.5 198.708C165.114 198.708 158.292 191.886 158.292 183.5C158.292 175.114 165.114 168.292 173.5 168.292C181.886 168.292 188.708 175.114 188.708 183.5C188.708 191.886 181.886 198.708 173.5 198.708ZM173.5 171.333C166.79 171.333 161.333 176.79 161.333 183.5C161.333 190.21 166.79 195.667 173.5 195.667C180.21 195.667 185.667 190.21 185.667 183.5C185.667 176.79 180.21 171.333 173.5 171.333Z" fill="#E5E5E5"/>
<path d="M77.8 224H72.2C70.3075 224 68.71 222.582 68.485 220.7L67.8875 216.01C66.695 215.623 65.545 215.145 64.4525 214.588L60.7175 217.49C59.2025 218.662 57.07 218.528 55.755 217.175L51.8175 213.238C50.475 211.935 50.34 209.803 51.5125 208.29L54.415 204.553C53.855 203.46 53.3775 202.31 52.9925 201.118L48.2925 200.52C46.4175 200.29 45 198.693 45 196.8V191.2C45 189.307 46.4175 187.71 48.3 187.485L52.99 186.887C53.3775 185.695 53.855 184.545 54.4125 183.452L51.5125 179.717C50.3375 178.202 50.475 176.068 51.83 174.753L55.7675 170.815C57.07 169.472 59.205 169.34 60.715 170.51L64.45 173.415C65.5425 172.858 66.6925 172.38 67.8875 171.993L68.485 167.292C68.71 165.417 70.3075 164 72.2 164H77.8C79.6925 164 81.29 165.417 81.515 167.3L82.1125 171.99C83.3075 172.378 84.4575 172.855 85.55 173.413L89.285 170.51C90.8025 169.337 92.9325 169.472 94.2475 170.827L98.185 174.765C99.5275 176.067 99.6625 178.2 98.49 179.713L95.5875 183.45C96.1475 184.542 96.625 185.693 97.01 186.885L101.71 187.482C103.583 187.71 105 189.307 105 191.2V196.8C105 198.693 103.583 200.29 101.7 200.515L97.01 201.112C96.6225 202.305 96.145 203.455 95.5875 204.548L98.49 208.282C99.665 209.797 99.5275 211.93 98.1725 213.245L94.235 217.183C92.9325 218.525 90.7975 218.663 89.2875 217.488L85.55 214.585C84.4575 215.145 83.3075 215.622 82.115 216.007L81.5175 220.708C81.29 222.583 79.6925 224 77.8 224ZM64.325 211.85C64.5325 211.85 64.745 211.902 64.935 212.007C66.3125 212.777 67.805 213.397 69.37 213.847C69.85 213.985 70.2025 214.395 70.265 214.89L70.965 220.39C71.04 221.018 71.5825 221.5 72.2 221.5H77.8C78.4175 221.5 78.96 221.018 79.0325 220.403L79.735 214.893C79.7975 214.397 80.15 213.988 80.63 213.85C82.195 213.4 83.6875 212.78 85.065 212.01C85.5025 211.765 86.0475 211.808 86.44 212.115L90.815 215.515C91.3175 215.905 92.0225 215.872 92.4525 215.43L96.415 211.467C96.8675 211.027 96.9025 210.322 96.5125 209.817L93.1125 205.442C92.805 205.047 92.7625 204.505 93.0075 204.068C93.7775 202.69 94.3975 201.197 94.8475 199.632C94.985 199.153 95.395 198.8 95.89 198.738L101.39 198.037C102.017 197.96 102.5 197.417 102.5 196.8V191.2C102.5 190.583 102.018 190.04 101.403 189.967L95.8925 189.265C95.3975 189.202 94.9875 188.85 94.85 188.37C94.4 186.805 93.78 185.312 93.01 183.935C92.765 183.497 92.805 182.955 93.115 182.56L96.515 178.185C96.9075 177.68 96.8725 176.975 96.4325 176.55L92.47 172.587C92.0325 172.132 91.325 172.097 90.82 172.49L86.445 175.89C86.0475 176.198 85.505 176.24 85.0675 175.995C83.695 175.225 82.2025 174.607 80.6325 174.155C80.1525 174.017 79.8 173.608 79.7375 173.112L79.0375 167.612C78.96 166.983 78.4175 166.5 77.8 166.5H72.2C71.5825 166.5 71.04 166.983 70.9675 167.597L70.265 173.108C70.2025 173.603 69.85 174.013 69.37 174.153C67.8 174.603 66.3075 175.222 64.935 175.99C64.4975 176.237 63.955 176.193 63.5575 175.888L59.1825 172.487C58.6775 172.095 57.975 172.13 57.5475 172.57L53.585 176.535C53.1325 176.975 53.0975 177.68 53.4875 178.185L56.8875 182.56C57.195 182.955 57.2375 183.497 56.9925 183.935C56.22 185.312 55.6025 186.805 55.1525 188.37C55.015 188.85 54.605 189.202 54.11 189.265L48.61 189.965C47.9825 190.04 47.5 190.583 47.5 191.2V196.8C47.5 197.417 47.9825 197.96 48.5975 198.033L54.1075 198.735C54.6025 198.798 55.0125 199.15 55.15 199.63C55.6 201.195 56.22 202.688 56.99 204.065C57.235 204.502 57.195 205.045 56.885 205.44L53.485 209.815C53.0925 210.32 53.1275 211.025 53.5675 211.45L57.53 215.413C57.9675 215.865 58.67 215.9 59.18 215.51L63.555 212.11C63.7825 211.94 64.0525 211.85 64.325 211.85Z" stroke="#E5E5E5" stroke-width="2.8" mask="url(#path-1-outside-1)"/>
<path d="M75 206.5C68.1075 206.5 62.5 200.893 62.5 194C62.5 187.108 68.1075 181.5 75 181.5C81.8925 181.5 87.5 187.108 87.5 194C87.5 200.893 81.8925 206.5 75 206.5ZM75 184C69.485 184 65 188.485 65 194C65 199.515 69.485 204 75 204C80.515 204 85 199.515 85 194C85 188.485 80.515 184 75 184Z" stroke="#E5E5E5" stroke-width="2.8" mask="url(#path-1-outside-1)"/>
<path d="M121.133 186H117.867C116.763 186 115.831 185.173 115.7 184.075L115.351 181.339C114.655 181.113 113.985 180.835 113.347 180.509L111.169 182.202C110.285 182.886 109.041 182.808 108.274 182.019L105.977 179.722C105.194 178.962 105.115 177.718 105.799 176.836L107.492 174.656C107.165 174.018 106.887 173.347 106.662 172.652L103.921 172.303C102.827 172.169 102 171.237 102 170.133V166.867C102 165.763 102.827 164.831 103.925 164.7L106.661 164.351C106.887 163.655 107.165 162.985 107.491 162.347L105.799 160.169C105.114 159.285 105.194 158.039 105.984 157.272L108.281 154.975C109.041 154.192 110.286 154.115 111.167 154.798L113.346 156.492C113.983 156.167 114.654 155.888 115.351 155.662L115.7 152.921C115.831 151.827 116.763 151 117.867 151H121.133C122.237 151 123.169 151.827 123.3 152.925L123.649 155.661C124.346 155.887 125.017 156.165 125.654 156.491L127.833 154.798C128.718 154.114 129.961 154.192 130.728 154.983L133.025 157.28C133.808 158.039 133.886 159.283 133.202 160.166L131.509 162.346C131.836 162.983 132.115 163.654 132.339 164.35L135.081 164.698C136.173 164.831 137 165.763 137 166.867V170.133C137 171.237 136.173 172.169 135.075 172.3L132.339 172.649C132.113 173.345 131.835 174.015 131.509 174.653L133.202 176.831C133.888 177.715 133.808 178.959 133.017 179.726L130.72 182.023C129.961 182.806 128.715 182.886 127.834 182.201L125.654 180.508C125.017 180.835 124.346 181.113 123.65 181.338L123.302 184.079C123.169 185.173 122.237 186 121.133 186ZM113.273 178.912C113.394 178.912 113.518 178.943 113.629 179.004C114.432 179.454 115.303 179.815 116.216 180.078C116.496 180.158 116.701 180.397 116.738 180.686L117.146 183.894C117.19 184.26 117.506 184.542 117.867 184.542H121.133C121.494 184.542 121.81 184.26 121.852 183.901L122.262 180.687C122.299 180.399 122.504 180.159 122.784 180.079C123.697 179.817 124.568 179.455 125.371 179.006C125.626 178.863 125.944 178.888 126.173 179.067L128.725 181.05C129.019 181.278 129.43 181.259 129.681 181.001L131.992 178.689C132.256 178.433 132.276 178.021 132.049 177.727L130.066 175.175C129.886 174.944 129.861 174.628 130.004 174.373C130.454 173.569 130.815 172.699 131.078 171.786C131.158 171.506 131.397 171.3 131.686 171.264L134.894 170.855C135.26 170.81 135.542 170.494 135.542 170.133V166.867C135.542 166.506 135.26 166.19 134.901 166.148L131.687 165.738C131.399 165.701 131.159 165.496 131.079 165.216C130.817 164.303 130.455 163.432 130.006 162.629C129.863 162.374 129.886 162.057 130.067 161.827L132.05 159.275C132.279 158.98 132.259 158.569 132.002 158.321L129.691 156.009C129.436 155.744 129.023 155.724 128.728 155.952L126.176 157.936C125.944 158.115 125.628 158.14 125.373 157.997C124.572 157.548 123.701 157.188 122.786 156.924C122.506 156.844 122.3 156.604 122.264 156.316L121.855 153.107C121.81 152.74 121.494 152.458 121.133 152.458H117.867C117.506 152.458 117.19 152.74 117.148 153.099L116.738 156.313C116.701 156.601 116.496 156.841 116.216 156.922C115.3 157.185 114.429 157.546 113.629 157.994C113.374 158.139 113.057 158.112 112.825 157.934L110.273 155.951C109.979 155.722 109.569 155.743 109.319 155.999L107.008 158.312C106.744 158.569 106.724 158.98 106.951 159.275L108.934 161.827C109.114 162.057 109.139 162.374 108.996 162.629C108.545 163.432 108.185 164.303 107.922 165.216C107.842 165.496 107.603 165.701 107.314 165.738L104.106 166.146C103.74 166.19 103.458 166.506 103.458 166.867V170.133C103.458 170.494 103.74 170.81 104.099 170.852L107.313 171.262C107.601 171.299 107.841 171.504 107.921 171.784C108.183 172.697 108.545 173.568 108.994 174.371C109.137 174.626 109.114 174.943 108.933 175.173L106.95 177.725C106.721 178.02 106.741 178.431 106.998 178.679L109.309 180.991C109.564 181.255 109.974 181.275 110.272 181.048L112.824 179.064C112.956 178.965 113.114 178.912 113.273 178.912Z" stroke="#E5E5E5" stroke-width="2.8" mask="url(#path-1-outside-1)"/>
<path d="M119.5 175.792C115.479 175.792 112.208 172.521 112.208 168.5C112.208 164.479 115.479 161.208 119.5 161.208C123.521 161.208 126.792 164.479 126.792 168.5C126.792 172.521 123.521 175.792 119.5 175.792ZM119.5 162.667C116.283 162.667 113.667 165.283 113.667 168.5C113.667 171.717 116.283 174.333 119.5 174.333C122.717 174.333 125.333 171.717 125.333 168.5C125.333 165.283 122.717 162.667 119.5 162.667Z" stroke="#E5E5E5" stroke-width="2.8" mask="url(#path-1-outside-1)"/>
<path d="M176.907 220H170.093C167.791 220 165.847 218.275 165.573 215.985L164.846 210.279C163.396 209.807 161.996 209.226 160.667 208.548L156.123 212.079C154.28 213.506 151.685 213.342 150.085 211.696L145.295 206.906C143.661 205.321 143.497 202.726 144.924 200.886L148.455 196.339C147.774 195.01 147.193 193.611 146.724 192.16L141.006 191.433C138.725 191.153 137 189.209 137 186.907V180.093C137 177.791 138.725 175.847 141.015 175.573L146.721 174.846C147.193 173.396 147.774 171.996 148.452 170.667L144.924 166.123C143.494 164.28 143.661 161.682 145.31 160.082L150.1 155.292C151.685 153.658 154.283 153.497 156.12 154.921L160.664 158.455C161.993 157.777 163.393 157.196 164.846 156.724L165.573 151.006C165.847 148.725 167.791 147 170.093 147H176.907C179.209 147 181.153 148.725 181.427 151.015L182.154 156.721C183.607 157.193 185.007 157.774 186.336 158.452L190.88 154.921C192.726 153.494 195.318 153.658 196.918 155.307L201.708 160.097C203.342 161.682 203.506 164.277 202.079 166.117L198.548 170.664C199.229 171.993 199.81 173.393 200.279 174.843L205.997 175.57C208.275 175.847 210 177.791 210 180.093V186.907C210 189.209 208.275 191.153 205.985 191.427L200.279 192.154C199.807 193.604 199.226 195.004 198.548 196.333L202.079 200.877C203.509 202.72 203.342 205.315 201.693 206.915L196.903 211.705C195.318 213.339 192.72 213.506 190.883 212.076L186.336 208.545C185.007 209.226 183.607 209.807 182.157 210.276L181.43 215.994C181.153 218.275 179.209 220 176.907 220ZM160.512 205.217C160.765 205.217 161.023 205.281 161.254 205.409C162.93 206.346 164.746 207.1 166.65 207.648C167.234 207.815 167.663 208.314 167.739 208.916L168.591 215.608C168.682 216.371 169.342 216.958 170.093 216.958H176.907C177.658 216.958 178.318 216.371 178.406 215.623L179.261 208.919C179.337 208.317 179.766 207.818 180.35 207.651C182.254 207.103 184.07 206.349 185.746 205.412C186.278 205.114 186.941 205.166 187.419 205.54L192.742 209.677C193.353 210.151 194.211 210.112 194.734 209.573L199.555 204.752C200.105 204.217 200.148 203.359 199.674 202.745L195.537 197.422C195.163 196.941 195.111 196.281 195.409 195.749C196.346 194.073 197.1 192.257 197.648 190.353C197.815 189.769 198.314 189.34 198.916 189.264L205.608 188.412C206.371 188.318 206.958 187.658 206.958 186.907V180.093C206.958 179.342 206.371 178.682 205.623 178.594L198.919 177.739C198.317 177.663 197.818 177.234 197.651 176.65C197.103 174.746 196.349 172.93 195.412 171.254C195.114 170.722 195.163 170.062 195.54 169.581L199.677 164.258C200.154 163.644 200.112 162.786 199.576 162.269L194.755 157.448C194.223 156.895 193.362 156.852 192.748 157.33L187.425 161.466C186.941 161.84 186.281 161.892 185.749 161.594C184.079 160.657 182.263 159.906 180.353 159.355C179.769 159.188 179.34 158.689 179.264 158.087L178.412 151.395C178.318 150.629 177.658 150.042 176.907 150.042H170.093C169.342 150.042 168.682 150.629 168.594 151.377L167.739 158.081C167.663 158.683 167.234 159.182 166.65 159.352C164.74 159.9 162.924 160.654 161.254 161.588C160.722 161.889 160.062 161.834 159.578 161.463L154.255 157.326C153.641 156.849 152.786 156.891 152.266 157.427L147.445 162.251C146.895 162.786 146.852 163.644 147.326 164.258L151.463 169.581C151.837 170.062 151.889 170.722 151.591 171.254C150.651 172.93 149.9 174.746 149.352 176.65C149.185 177.234 148.686 177.663 148.084 177.739L141.392 178.591C140.629 178.682 140.042 179.342 140.042 180.093V186.907C140.042 187.658 140.629 188.318 141.377 188.406L148.081 189.261C148.683 189.337 149.182 189.766 149.349 190.35C149.897 192.254 150.651 194.07 151.588 195.746C151.886 196.278 151.837 196.938 151.46 197.419L147.323 202.742C146.846 203.356 146.888 204.214 147.424 204.731L152.245 209.552C152.777 210.102 153.632 210.145 154.252 209.671L159.575 205.534C159.852 205.327 160.181 205.217 160.512 205.217Z" stroke="#E5E5E5" stroke-width="2.8" mask="url(#path-1-outside-1)"/>
<path d="M173.5 198.708C165.114 198.708 158.292 191.886 158.292 183.5C158.292 175.114 165.114 168.292 173.5 168.292C181.886 168.292 188.708 175.114 188.708 183.5C188.708 191.886 181.886 198.708 173.5 198.708ZM173.5 171.333C166.79 171.333 161.333 176.79 161.333 183.5C161.333 190.21 166.79 195.667 173.5 195.667C180.21 195.667 185.667 190.21 185.667 183.5C185.667 176.79 180.21 171.333 173.5 171.333Z" stroke="#E5E5E5" stroke-width="2.8" mask="url(#path-1-outside-1)"/>
<path fill-rule="evenodd" clip-rule="evenodd" d="M234.307 234.348H222.61V131.935C222.61 125.411 217.529 120.103 211.284 120.103H158.658C157.171 120.103 155.966 121.363 155.966 122.916C155.966 124.47 157.171 125.729 158.658 125.729H211.284C214.56 125.729 217.225 128.514 217.225 131.935V234.349H213.637H208.018H189.917H184.49H184.468H86.7102C85.2232 234.349 84.0176 235.608 84.0176 237.162C84.0176 238.715 85.2232 239.974 86.7102 239.974H231.615V243.174C231.615 244.939 230.24 246.374 228.552 246.374H25.4483C23.7592 246.374 22.3852 244.939 22.3852 243.174V239.974H75.1966C76.6837 239.974 77.8892 238.715 77.8892 237.162C77.8892 235.608 76.6837 234.349 75.1966 234.349H69.5096H45.2904H39.6711H36.7749V131.935C36.7749 128.513 39.4399 125.729 42.7159 125.729V120.103C36.4705 120.103 31.3897 125.411 31.3897 131.935V234.349H19.6926C18.2056 234.349 17 235.608 17 237.162V243.174C17 248.041 20.7901 252 25.4483 252H228.552C233.21 252 237 248.041 237 243.174V237.162C237 235.608 235.794 234.348 234.307 234.348Z" fill="#191613"/>
<path d="M42.7159 125.729H95.3428C96.8298 125.729 98.0354 124.47 98.0354 122.916C98.0354 121.363 96.8298 120.103 95.3428 120.103H42.7159V125.729Z" fill="#191613"/>
<path d="M36.7749 137.561H88.4018C89.8888 137.561 91.0944 136.302 91.0944 134.748C91.0944 133.195 89.8888 131.935 88.4018 131.935H36.7749V137.561Z" fill="#191613"/>
<path d="M217.225 137.561H164.598C163.111 137.561 161.906 136.302 161.906 134.748C161.906 133.195 163.111 131.935 164.598 131.935H217.225V137.561Z" fill="#191613"/>
<path fill-rule="evenodd" clip-rule="evenodd" d="M45.2904 234.349C44.8948 235.62 44.6809 236.977 44.6809 238.387H39.2533C39.2533 237 39.3975 235.649 39.6711 234.349H45.2904Z" fill="#191613"/>
<path fill-rule="evenodd" clip-rule="evenodd" d="M208.018 234.349C208.414 235.62 208.628 236.977 208.628 238.387H214.055C214.055 237 213.911 235.649 213.637 234.349H208.018Z" fill="#191613"/>
<path fill-rule="evenodd" clip-rule="evenodd" d="M232 40C228.134 40 225 43.134 225 47C225 50.866 228.134 54 232 54C235.866 54 239 50.866 239 47C239 43.134 235.866 40 232 40ZM220 47C220 40.3726 225.373 35 232 35C238.627 35 244 40.3726 244 47C244 53.6274 238.627 59 232 59C225.373 59 220 53.6274 220 47Z" fill="#F69400"/>
<path fill-rule="evenodd" clip-rule="evenodd" d="M12 77C8.13401 77 5 80.134 5 84C5 87.866 8.13401 91 12 91C15.866 91 19 87.866 19 84C19 80.134 15.866 77 12 77ZM0 84C0 77.3726 5.37258 72 12 72C18.6274 72 24 77.3726 24 84C24 90.6274 18.6274 96 12 96C5.37258 96 0 90.6274 0 84Z" fill="#191613"/>
<path fill-rule="evenodd" clip-rule="evenodd" d="M68 27C69.933 27 71.5 28.567 71.5 30.5V33.5H74.5C76.433 33.5 78 35.067 78 37C78 38.933 76.433 40.5 74.5 40.5H71.5V43.5C71.5 45.433 69.933 47 68 47C66.067 47 64.5 45.433 64.5 43.5V40.5H61.5C59.567 40.5 58 38.933 58 37C58 35.067 59.567 33.5 61.5 33.5H64.5V30.5C64.5 28.567 66.067 27 68 27Z" fill="#F69400"/>
<path fill-rule="evenodd" clip-rule="evenodd" d="M242 101C243.933 101 245.5 102.567 245.5 104.5V107.5H248.5C250.433 107.5 252 109.067 252 111C252 112.933 250.433 114.5 248.5 114.5H245.5V117.5C245.5 119.433 243.933 121 242 121C240.067 121 238.5 119.433 238.5 117.5V114.5H235.5C233.567 114.5 232 112.933 232 111C232 109.067 233.567 107.5 235.5 107.5H238.5V104.5C238.5 102.567 240.067 101 242 101Z" fill="#191613"/>
<path d="M185 51.5C185 53.9853 182.985 56 180.5 56C178.015 56 176 53.9853 176 51.5C176 49.0147 178.015 47 180.5 47C182.985 47 185 49.0147 185 51.5Z" fill="#191613"/>
<path d="M180 4.5C180 6.98528 177.985 9 175.5 9C173.015 9 171 6.98528 171 4.5C171 2.01472 173.015 0 175.5 0C177.985 0 180 2.01472 180 4.5Z" fill="#191613"/>
<path d="M67 93.5C67 95.9853 64.9853 98 62.5 98C60.0147 98 58 95.9853 58 93.5C58 91.0147 60.0147 89 62.5 89C64.9853 89 67 91.0147 67 93.5Z" fill="#F69400"/>
<path d="M126.5 70.0999C127.743 70.0999 128.75 69.0924 128.75 67.8499V58.85C128.75 57.6074 127.743 56.6 126.5 56.6C125.258 56.6 124.25 57.6074 124.25 58.85V67.8499C124.25 69.0924 125.257 70.0999 126.5 70.0999Z" fill="#F69400"/>
<path fill-rule="evenodd" clip-rule="evenodd" d="M129.35 67.8499C129.35 69.4238 128.074 70.6999 126.5 70.6999C124.926 70.6999 123.65 69.4238 123.65 67.8499V58.85C123.65 57.2761 124.926 56 126.5 56C128.074 56 129.35 57.2761 129.35 58.85V67.8499ZM128.75 67.8499C128.75 69.0924 127.743 70.0999 126.5 70.0999C125.257 70.0999 124.25 69.0924 124.25 67.8499V58.85C124.25 57.6074 125.258 56.6 126.5 56.6C127.743 56.6 128.75 57.6074 128.75 58.85V67.8499Z" fill="#F69400"/>
<path d="M98.6768 66.9094L103.177 74.701C103.791 75.7813 105.165 76.159 106.245 75.5448C107.325 74.9305 107.703 73.5569 107.089 72.4767C107.084 72.4679 107.079 72.4595 107.074 72.4508L102.574 64.6591C101.96 63.5788 100.586 63.2011 99.5057 63.8154C98.4254 64.4296 98.0477 65.8032 98.6619 66.8835C98.6667 66.8922 98.6718 66.9009 98.6768 66.9094Z" fill="#F69400"/>
<path fill-rule="evenodd" clip-rule="evenodd" d="M98.1595 67.2133C98.1529 67.2023 98.1457 67.1899 98.1383 67.1765C97.3632 65.8087 97.8419 64.0712 99.2091 63.2938C100.577 62.5161 102.316 62.9938 103.094 64.3607L103.095 64.3625L107.593 72.1495C107.597 72.1578 107.592 72.1482 107.6 72.1619C107.603 72.1672 107.607 72.1746 107.612 72.1834C108.387 73.5512 107.909 75.2889 106.541 76.0664C105.174 76.844 103.435 76.3664 102.656 74.9995L102.655 74.9976L98.1595 67.2133ZM103.177 74.701L98.6768 66.9094C98.6718 66.9009 98.6667 66.8922 98.6619 66.8835C98.0477 65.8032 98.4254 64.4296 99.5057 63.8154C100.586 63.2011 101.96 63.5788 102.574 64.6591L107.074 72.4508C107.075 72.4531 107.076 72.4555 107.078 72.4578C107.082 72.4641 107.085 72.4703 107.089 72.4767C107.703 73.5569 107.325 74.9305 106.245 75.5448C105.165 76.159 103.791 75.7813 103.177 74.701Z" fill="#F69400"/>
<path d="M80.5342 86.6583C80.5426 86.6634 80.5513 86.6682 80.56 86.6732L88.3517 91.1732C89.4238 91.8015 90.8022 91.442 91.4305 90.3699C92.0588 89.2978 91.6994 87.9194 90.6273 87.2911C90.6188 87.2861 90.6101 87.2813 90.6014 87.2762L82.8097 82.7763C81.7376 82.1479 80.3592 82.5074 79.7309 83.5795C79.1026 84.6513 79.4621 86.03 80.5342 86.6583Z" fill="#F69400"/>
<path fill-rule="evenodd" clip-rule="evenodd" d="M90.6014 87.2762C90.6048 87.2782 90.6082 87.2801 90.6116 87.282C90.6169 87.285 90.6221 87.288 90.6273 87.2911C91.6994 87.9194 92.0588 89.2978 91.4305 90.3699C90.8022 91.442 89.4238 91.8015 88.3517 91.1732L80.56 86.6732C80.5566 86.6712 80.5533 86.6693 80.5499 86.6674C80.5446 86.6644 80.5393 86.6614 80.5342 86.6583C79.4621 86.03 79.1026 84.6513 79.7309 83.5795C80.3592 82.5074 81.7376 82.1479 82.8097 82.7763L90.6014 87.2762ZM83.1114 82.2576L83.1131 82.2586L90.9027 86.7573L90.9112 86.7622C90.9158 86.7648 90.924 86.7694 90.9333 86.775C92.2894 87.5716 92.7434 89.3163 91.9482 90.6733C91.1526 92.0308 89.4078 92.4862 88.0502 91.6919L88.0483 91.6908L80.2588 87.1921L80.2502 87.1872C80.2456 87.1846 80.2375 87.18 80.2282 87.1744C78.8721 86.3778 78.418 84.6329 79.2133 83.2761M83.1114 82.2576C81.7538 81.4632 80.0089 81.9186 79.2133 83.2761L83.1114 82.2576Z" fill="#F69400"/>
<path d="M86.0005 110.599C86.0005 109.357 84.9931 108.349 83.7505 108.349H74.7506C73.5081 108.349 72.5006 109.357 72.5006 110.599C72.5006 111.842 73.5081 112.849 74.7506 112.849H83.7505C84.9931 112.849 86.0005 111.842 86.0005 110.599Z" fill="#F69400"/>
<path fill-rule="evenodd" clip-rule="evenodd" d="M83.7505 107.749C85.3244 107.749 86.6005 109.026 86.6005 110.599C86.6005 112.173 85.3244 113.449 83.7505 113.449H74.7506C73.1767 113.449 71.9006 112.173 71.9006 110.599C71.9006 109.026 73.1767 107.749 74.7506 107.749H83.7505ZM83.7505 108.349C84.9931 108.349 86.0005 109.357 86.0005 110.599C86.0005 111.842 84.9931 112.849 83.7505 112.849H74.7506C73.5081 112.849 72.5006 111.842 72.5006 110.599C72.5006 109.357 73.5081 108.349 74.7506 108.349H83.7505Z" fill="#F69400"/>
<path d="M178.25 108.349H169.25C168.007 108.349 167 109.357 167 110.599C167 111.842 168.007 112.849 169.25 112.849H178.25C179.492 112.849 180.5 111.842 180.5 110.599C180.5 109.357 179.492 108.349 178.25 108.349Z" fill="#F69400"/>
<path fill-rule="evenodd" clip-rule="evenodd" d="M169.25 107.749H178.25C179.824 107.749 181.1 109.026 181.1 110.599C181.1 112.173 179.824 113.449 178.25 113.449H169.25C167.676 113.449 166.4 112.173 166.4 110.599C166.4 109.026 167.676 107.749 169.25 107.749ZM169.25 108.349H178.25C179.492 108.349 180.5 109.357 180.5 110.599C180.5 111.842 179.492 112.849 178.25 112.849H169.25C168.007 112.849 167 111.842 167 110.599C167 109.357 168.007 108.349 169.25 108.349Z" fill="#F69400"/>
<path d="M163.526 91.4746C163.921 91.4746 164.309 91.3706 164.651 91.1731L172.442 86.6732C173.523 86.0589 173.9 84.6853 173.286 83.605C172.672 82.5248 171.298 82.1471 170.218 82.7613C170.209 82.7661 170.201 82.7711 170.192 82.7762L162.4 87.2762C161.324 87.8974 160.956 89.2736 161.577 90.3496C161.979 91.0457 162.722 91.4746 163.526 91.4746Z" fill="#F69400"/>
<path fill-rule="evenodd" clip-rule="evenodd" d="M164.951 91.6927C164.518 91.9428 164.026 92.0746 163.526 92.0746C162.507 92.0746 161.567 91.5313 161.057 90.6498C160.27 89.2868 160.737 87.5436 162.1 86.7566L169.891 82.2573C169.895 82.2551 169.895 82.2547 169.895 82.2547C169.895 82.2547 169.895 82.2546 169.903 82.2501C169.908 82.247 169.916 82.2427 169.925 82.2378C171.293 81.4625 173.03 81.9412 173.808 83.3085C174.585 84.6761 174.108 86.4151 172.741 87.1936L172.739 87.1947L164.951 91.6927ZM172.442 86.6732L164.651 91.1731C164.309 91.3706 163.921 91.4746 163.526 91.4746C162.722 91.4746 161.979 91.0457 161.577 90.3496C160.956 89.2736 161.324 87.8974 162.4 87.2762L170.192 82.7762C170.194 82.7748 170.197 82.7735 170.199 82.7721C170.205 82.7684 170.212 82.7648 170.218 82.7613C171.298 82.1471 172.672 82.5248 173.286 83.605C173.9 84.6853 173.523 86.0589 172.442 86.6732Z" fill="#F69400"/>
<path d="M146.747 75.5254L146.75 75.5268C147.826 76.1475 149.202 75.7782 149.823 74.7016L154.323 66.9094C154.952 65.8376 154.592 64.4589 153.52 63.8303C152.448 63.2017 151.07 63.5612 150.441 64.633C150.436 64.6417 150.431 64.6504 150.426 64.6591L145.926 72.4508C145.304 73.5266 145.672 74.903 146.747 75.5254Z" fill="#F69400"/>
<path fill-rule="evenodd" clip-rule="evenodd" d="M149.823 74.7016C149.202 75.7782 147.826 76.1475 146.75 75.5268L146.747 75.5254C145.672 74.903 145.304 73.5266 145.926 72.4508L150.426 64.6591L150.441 64.633C151.07 63.5612 152.448 63.2017 153.52 63.8303C154.592 64.4589 154.952 65.8376 154.323 66.9094L149.823 74.7016ZM154.842 67.2111C155.636 65.8537 155.181 64.1086 153.824 63.3127C152.466 62.5165 150.72 62.9718 149.924 64.3295L149.907 64.3579L145.407 72.1504C144.62 73.5106 145.083 75.2504 146.439 76.0406C146.442 76.0419 146.444 76.0432 146.446 76.0446C146.45 76.0469 146.455 76.0495 146.46 76.0526C147.798 76.8165 149.496 76.378 150.3 75.0734L150.303 75.0704L150.334 75.0159C150.337 75.011 150.34 75.0062 150.343 75.0013L154.841 67.2129L154.842 67.2111Z" fill="#F69400"/>
<path d="M131 146.599C132.243 146.599 133.25 145.592 133.25 144.349V119.599H137.75C142.72 119.599 146.75 115.57 146.75 110.599C146.75 105.629 142.72 101.6 137.75 101.6C132.779 101.6 128.75 105.629 128.75 110.599V115.099H124.25V110.599C124.25 105.629 120.221 101.6 115.25 101.6C110.28 101.6 106.25 105.629 106.25 110.599C106.25 115.57 110.28 119.599 115.25 119.599H119.75V144.349C119.75 145.592 120.758 146.599 122 146.599C123.243 146.599 124.25 145.592 124.25 144.349V119.599H128.75V144.349C128.75 145.592 129.757 146.599 131 146.599ZM133.25 110.599C133.25 108.114 135.265 106.099 137.75 106.099C140.235 106.099 142.25 108.114 142.25 110.599C142.25 113.085 140.235 115.099 137.75 115.099H133.25V110.599ZM119.75 115.099H115.25C112.765 115.099 110.75 113.085 110.75 110.599C110.75 108.114 112.765 106.099 115.25 106.099C117.736 106.099 119.75 108.114 119.75 110.599V115.099Z" fill="#F69400"/>
<path fill-rule="evenodd" clip-rule="evenodd" d="M133.85 144.349C133.85 145.923 132.574 147.199 131 147.199C129.426 147.199 128.15 145.923 128.15 144.349V120.199H124.85V144.349C124.85 145.923 123.574 147.199 122 147.199C120.426 147.199 119.15 145.923 119.15 144.349V120.199H115.25C109.948 120.199 105.65 115.901 105.65 110.599C105.65 105.298 109.948 101 115.25 101C120.552 101 124.85 105.298 124.85 110.599V114.499H128.15V110.599C128.15 105.298 132.448 101 137.75 101C143.052 101 147.35 105.298 147.35 110.599C147.35 115.901 143.052 120.199 137.75 120.199H133.85V144.349ZM137.75 106.699C135.596 106.699 133.85 108.445 133.85 110.599V114.499H137.75C139.904 114.499 141.65 112.753 141.65 110.599C141.65 108.445 139.904 106.699 137.75 106.699ZM115.25 114.499H119.15V110.599C119.15 108.445 117.404 106.699 115.25 106.699C113.096 106.699 111.35 108.445 111.35 110.599C111.35 112.753 113.096 114.499 115.25 114.499ZM133.25 144.349C133.25 145.592 132.243 146.599 131 146.599C129.757 146.599 128.75 145.592 128.75 144.349V119.599H124.25V144.349C124.25 145.592 123.243 146.599 122 146.599C120.758 146.599 119.75 145.592 119.75 144.349V119.599H115.25C110.28 119.599 106.25 115.57 106.25 110.599C106.25 105.629 110.28 101.6 115.25 101.6C120.221 101.6 124.25 105.629 124.25 110.599V115.099H128.75V110.599C128.75 105.629 132.779 101.6 137.75 101.6C142.72 101.6 146.75 105.629 146.75 110.599C146.75 115.57 142.72 119.599 137.75 119.599H133.25V144.349ZM137.75 106.099C135.265 106.099 133.25 108.114 133.25 110.599V115.099H137.75C140.235 115.099 142.25 113.085 142.25 110.599C142.25 108.114 140.235 106.099 137.75 106.099ZM119.75 115.099V110.599C119.75 108.114 117.736 106.099 115.25 106.099C112.765 106.099 110.75 108.114 110.75 110.599C110.75 113.085 112.765 115.099 115.25 115.099H119.75Z" fill="#F69400"/>
<path d="M128.248 74.6426C108.389 73.6886 91.5166 89.014 90.5626 108.873C90.0161 120.245 94.8808 131.204 103.681 138.427C105.267 139.669 106.21 141.559 106.25 143.573V148.849C106.262 151.699 108.063 154.235 110.75 155.185V157.849C110.756 159.515 111.382 161.119 112.505 162.349C110.165 164.892 110.165 168.805 112.505 171.349C110.004 174.091 110.199 178.342 112.941 180.843C114.187 181.979 115.814 182.606 117.5 182.599C118.711 182.63 119.719 181.674 119.75 180.463C119.763 179.991 119.622 179.527 119.35 179.14C119.278 179.003 119.194 178.872 119.098 178.751C118.913 178.582 118.701 178.444 118.472 178.342C118.407 178.308 118.342 178.281 118.274 178.254C118.046 178.171 117.808 178.123 117.565 178.112C117.543 178.112 117.523 178.099 117.5 178.099C116.258 178.099 115.25 177.091 115.25 175.849C115.25 174.606 116.258 173.599 117.5 173.599H126.5C127.743 173.599 128.75 172.591 128.75 171.349C128.75 170.106 127.743 169.099 126.5 169.099H117.5C116.258 169.099 115.25 168.091 115.25 166.849C115.25 165.606 116.258 164.599 117.5 164.599H126.5C127.743 164.599 128.75 163.591 128.75 162.349C128.75 161.106 127.743 160.099 126.5 160.099H117.5C116.258 160.099 115.25 159.091 115.25 157.849V155.599H126.5C127.743 155.599 128.75 154.592 128.75 153.349C128.75 152.106 127.743 151.099 126.5 151.099H113C111.758 151.099 110.75 150.092 110.75 148.849V143.573C110.713 140.209 109.164 137.039 106.532 134.944C93.0913 123.898 91.1504 104.049 102.196 90.6084C108.515 82.9202 118.094 78.67 128.035 79.1448C144.658 80.1336 157.716 93.7575 158 110.408C158.08 119.985 153.774 129.073 146.311 135.075C143.698 137.227 142.204 140.449 142.25 143.834V148.849C142.25 150.092 141.242 151.099 140 151.099H133.25C132.007 151.099 131 152.106 131 153.349C131 154.592 132.007 155.599 133.25 155.599H137.75V157.849C137.75 159.091 136.743 160.099 135.5 160.099H133.25C132.007 160.099 131 161.106 131 162.349C131 163.591 132.007 164.599 133.25 164.599H135.5C136.743 164.599 137.75 165.606 137.75 166.849C137.75 168.091 136.743 169.099 135.5 169.099H133.25C132.007 169.099 131 170.106 131 171.349C131 172.591 132.007 173.599 133.25 173.599H135.5C136.743 173.599 137.75 174.606 137.75 175.849C137.75 177.091 136.743 178.099 135.5 178.099H124.25C123.008 178.099 122 179.106 122 180.349C122 181.591 123.008 182.599 124.25 182.599H132.865C131.623 186.113 127.767 187.956 124.252 186.713C123.176 186.333 122.214 185.686 121.456 184.833C120.629 183.905 119.207 183.822 118.279 184.648C117.351 185.475 117.268 186.897 118.094 187.825C122.209 192.462 129.304 192.886 133.941 188.771C135.856 187.071 137.133 184.768 137.559 182.243C141.082 181.142 143.046 177.393 141.945 173.869C141.653 172.933 141.157 172.072 140.495 171.349C142.835 168.805 142.835 164.892 140.495 162.349C141.618 161.119 142.244 159.515 142.25 157.849V155.185C144.937 154.235 146.738 151.699 146.75 148.849V143.834C146.72 141.813 147.596 139.883 149.137 138.576C157.671 131.715 162.595 121.324 162.5 110.374C162.175 91.343 147.249 75.7723 128.248 74.6426Z" fill="#F69400"/>
<path fill-rule="evenodd" clip-rule="evenodd" d="M128.284 74.0436C147.597 75.192 162.769 91.0192 163.1 110.364L163.1 110.369C163.196 121.5 158.193 132.062 149.52 139.038C148.118 140.23 147.322 141.985 147.35 143.825L147.35 143.834L147.35 148.852C147.338 151.811 145.553 154.46 142.85 155.596V157.851C142.844 159.488 142.289 161.07 141.283 162.347C143.372 164.979 143.372 168.718 141.283 171.35C141.833 172.047 142.252 172.839 142.518 173.69C143.681 177.412 141.705 181.366 138.085 182.698C137.58 185.218 136.267 187.509 134.339 189.22C129.454 193.554 121.98 193.108 117.645 188.224C116.599 187.048 116.704 185.247 117.88 184.2C119.055 183.154 120.857 183.258 121.904 184.434C122.595 185.211 123.471 185.801 124.452 186.148L124.252 186.713C123.176 186.333 122.214 185.686 121.456 184.833C120.629 183.905 119.207 183.822 118.279 184.648C117.351 185.475 117.268 186.897 118.094 187.825C122.209 192.462 129.304 192.886 133.941 188.771C135.856 187.071 137.133 184.768 137.559 182.243C141.082 181.142 143.046 177.393 141.945 173.869C141.653 172.933 141.157 172.072 140.495 171.349C142.835 168.805 142.835 164.892 140.495 162.349C141.618 161.119 142.244 159.515 142.25 157.849V155.185C144.937 154.235 146.738 151.699 146.75 148.849V143.834C146.72 141.813 147.596 139.883 149.137 138.576C157.671 131.715 162.595 121.324 162.5 110.374C162.175 91.343 147.249 75.7723 128.248 74.6426C108.389 73.6886 91.5166 89.014 90.5626 108.873C90.0161 120.245 94.8808 131.204 103.681 138.427C105.267 139.669 106.21 141.559 106.25 143.573V148.849C106.262 151.699 108.063 154.235 110.75 155.185V157.849C110.756 159.515 111.382 161.119 112.505 162.349C110.165 164.892 110.165 168.805 112.505 171.349C110.004 174.091 110.199 178.342 112.941 180.843C114.187 181.979 115.814 182.606 117.5 182.599C118.711 182.63 119.719 181.674 119.75 180.463C119.763 179.991 119.622 179.527 119.35 179.14C119.278 179.003 119.194 178.872 119.098 178.751C118.913 178.582 118.701 178.444 118.472 178.342C118.407 178.308 118.342 178.281 118.274 178.254C118.046 178.171 117.808 178.123 117.565 178.112C117.554 178.112 117.543 178.109 117.533 178.105C117.522 178.102 117.511 178.099 117.5 178.099C116.258 178.099 115.25 177.091 115.25 175.849C115.25 174.606 116.258 173.599 117.5 173.599H126.5C127.743 173.599 128.75 172.591 128.75 171.349C128.75 170.106 127.743 169.099 126.5 169.099H117.5C116.258 169.099 115.25 168.091 115.25 166.849C115.25 165.606 116.258 164.599 117.5 164.599H126.5C127.743 164.599 128.75 163.591 128.75 162.349C128.75 161.106 127.743 160.099 126.5 160.099H117.5C116.258 160.099 115.25 159.091 115.25 157.849V155.599H126.5C127.743 155.599 128.75 154.592 128.75 153.349C128.75 152.106 127.743 151.099 126.5 151.099H113C111.758 151.099 110.75 150.092 110.75 148.849V143.573C110.713 140.209 109.164 137.039 106.532 134.944C93.0913 123.898 91.1504 104.049 102.196 90.6084C108.515 82.9202 118.094 78.67 128.035 79.1448C144.658 80.1336 157.716 93.7575 158 110.408C158.08 119.985 153.774 129.073 146.311 135.075C143.698 137.227 142.204 140.449 142.25 143.834V148.849C142.25 150.092 141.242 151.099 140 151.099H133.25C132.007 151.099 131 152.106 131 153.349C131 154.592 132.007 155.599 133.25 155.599H137.75V157.849C137.75 159.091 136.743 160.099 135.5 160.099H133.25C132.007 160.099 131 161.106 131 162.349C131 163.591 132.007 164.599 133.25 164.599H135.5C136.743 164.599 137.75 165.606 137.75 166.849C137.75 168.091 136.743 169.099 135.5 169.099H133.25C132.007 169.099 131 170.106 131 171.349C131 172.591 132.007 173.599 133.25 173.599H135.5C136.743 173.599 137.75 174.606 137.75 175.849C137.75 177.091 136.743 178.099 135.5 178.099H124.25C123.008 178.099 122 179.106 122 180.349C122 181.591 123.008 182.599 124.25 182.599H132.865C132.792 182.805 132.711 183.005 132.621 183.199C131.172 186.319 127.561 187.883 124.252 186.713L124.452 186.148C127.376 187.181 130.559 185.872 131.952 183.199H124.25C122.676 183.199 121.4 181.923 121.4 180.349C121.4 178.775 122.676 177.499 124.25 177.499H135.5C136.411 177.499 137.15 176.76 137.15 175.849C137.15 174.938 136.411 174.199 135.5 174.199H133.25C131.676 174.199 130.4 172.923 130.4 171.349C130.4 169.775 131.676 168.499 133.25 168.499H135.5C136.411 168.499 137.15 167.76 137.15 166.849C137.15 165.938 136.411 165.199 135.5 165.199H133.25C131.676 165.199 130.4 163.923 130.4 162.349C130.4 160.775 131.676 159.499 133.25 159.499H135.5C136.411 159.499 137.15 158.76 137.15 157.849V156.199H133.25C131.676 156.199 130.4 154.923 130.4 153.349C130.4 151.775 131.676 150.499 133.25 150.499H140C140.911 150.499 141.65 149.76 141.65 148.849V143.838C141.603 140.272 143.177 136.879 145.93 134.612L145.935 134.607C153.254 128.721 157.478 119.809 157.4 110.416C157.121 94.0814 144.311 80.7158 128.002 79.7439C118.253 79.2794 108.857 83.4485 102.66 90.9894C91.8253 104.172 93.7279 123.642 106.909 134.478C109.68 136.685 111.311 140.023 111.35 143.566L111.35 143.573L111.35 148.849C111.35 149.76 112.089 150.499 113 150.499H126.5C128.074 150.499 129.35 151.775 129.35 153.349C129.35 154.923 128.074 156.199 126.5 156.199H115.85V157.849C115.85 158.76 116.589 159.499 117.5 159.499H126.5C128.074 159.499 129.35 160.775 129.35 162.349C129.35 163.923 128.074 165.199 126.5 165.199H117.5C116.589 165.199 115.85 165.938 115.85 166.849C115.85 167.76 116.589 168.499 117.5 168.499H126.5C128.074 168.499 129.35 169.775 129.35 171.349C129.35 172.923 128.074 174.199 126.5 174.199H117.5C116.589 174.199 115.85 174.938 115.85 175.849C115.85 176.76 116.589 177.499 117.5 177.499C117.564 177.499 117.616 177.508 117.651 177.516C117.934 177.534 118.213 177.593 118.479 177.69L118.488 177.693L118.497 177.697C118.563 177.723 118.645 177.757 118.731 177.8C119.014 177.928 119.274 178.1 119.503 178.309L119.538 178.341L119.567 178.378C119.68 178.519 119.779 178.67 119.863 178.828C120.195 179.313 120.366 179.891 120.35 180.479C120.31 182.018 119.032 183.234 117.494 183.199C115.66 183.204 113.891 182.522 112.537 181.286C109.682 178.682 109.361 174.337 111.718 171.35C109.628 168.718 109.628 164.98 111.717 162.347C110.711 161.07 110.156 159.488 110.15 157.851L110.15 157.849V155.596C107.447 154.46 105.663 151.811 105.65 148.852L105.65 148.849L105.65 143.579C105.612 141.747 104.753 140.029 103.311 138.899L103.3 138.891C94.3534 131.548 89.4077 120.405 89.9633 108.844C90.9332 88.6542 108.087 73.0734 128.277 74.0433L128.284 74.0436ZM117.713 177.533L117.711 177.532C117.714 177.534 117.717 177.534 117.713 177.533Z" fill="#F69400"/>
</svg>
