<svg width="252" height="252" viewBox="0 0 252 252" fill="none" xmlns="http://www.w3.org/2000/svg">
<path fill-rule="evenodd" clip-rule="evenodd" d="M44.2904 234.341C43.8948 235.613 43.6809 236.971 43.6809 238.381H38.2533C38.2533 236.994 38.3975 235.642 38.6711 234.341H44.2904Z" fill="#191613"/>
<path fill-rule="evenodd" clip-rule="evenodd" d="M207.018 234.341C207.414 235.613 207.628 236.971 207.628 238.381H213.055C213.055 236.994 212.911 235.642 212.637 234.341H207.018Z" fill="#191613"/>
<path fill-rule="evenodd" clip-rule="evenodd" d="M233.307 234.341H221.61V131.886C221.61 125.359 216.529 120.049 210.284 120.049H185V125.677H210.284C213.56 125.677 216.225 128.463 216.225 131.886V234.341H212.637H207.018H188.917H183.49H183.468H85.7102C84.2232 234.341 83.0176 235.601 83.0176 237.155C83.0176 238.709 84.2232 239.969 85.7102 239.969H230.615V243.171C230.615 244.936 229.24 246.372 227.552 246.372H24.4483C22.7592 246.372 21.3852 244.936 21.3852 243.171V239.969H74.1966C75.6837 239.969 76.8892 238.709 76.8892 237.155C76.8892 235.601 75.6837 234.341 74.1966 234.341H68.5096H44.2904H38.6711H35.7749V131.886C35.7749 128.462 38.4399 125.677 41.7159 125.677H68.0293V120.049H41.7159C35.4705 120.049 30.3897 125.359 30.3897 131.886V234.341H18.6926C17.2056 234.341 16 235.601 16 237.155V243.171C16 248.039 19.7901 252 24.4483 252H227.552C232.21 252 236 248.039 236 243.171V237.155C236 235.601 234.794 234.341 233.307 234.341Z" fill="#191613"/>
<path fill-rule="evenodd" clip-rule="evenodd" d="M58.0293 137.514H35.7749V131.886H58.0293V137.514ZM194 137.514H216.225V131.886H194V137.514Z" fill="#191613"/>
<path d="M58.0293 137.514C59.5164 137.514 60.7219 136.254 60.7219 134.7C60.7219 133.146 59.5164 131.886 58.0293 131.886V137.514Z" fill="#191613"/>
<path d="M191.307 134.7C191.307 136.254 192.513 137.514 194 137.514V131.886C192.513 131.886 191.307 133.146 191.307 134.7Z" fill="#191613"/>
<path fill-rule="evenodd" clip-rule="evenodd" d="M178 159.065H200C201.657 159.065 203 160.409 203 162.066V183.075C203 184.733 201.657 186.076 200 186.076C198.343 186.076 197 184.733 197 183.075V169.312L161.767 204.56C160.098 206.23 157.488 206.504 155.507 205.218L133.8 191.122C131.82 189.836 129.21 190.11 127.541 191.78L104.712 214.619C103.106 216.225 100.618 216.547 98.6557 215.402L81.3164 205.283C79.354 204.138 76.8663 204.46 75.26 206.067L54.1213 227.214C52.9497 228.387 51.0503 228.387 49.8787 227.214C48.7071 226.042 48.7071 224.142 49.8787 222.97L74.288 198.551C75.8942 196.944 78.382 196.622 80.3443 197.767L97.6836 207.886C99.646 209.031 102.134 208.709 103.74 207.102L126.733 184.1C128.402 182.43 131.012 182.155 132.993 183.441L154.7 197.538C156.68 198.823 159.29 198.549 160.959 196.879L192.757 165.068H178C176.343 165.068 175 163.724 175 162.066C175 160.409 176.343 159.065 178 159.065Z" fill="#E5E5E5"/>
<mask id="path-3-outside-1" maskUnits="userSpaceOnUse" x="65" y="100.042" width="123" height="83" fill="black">
<rect fill="white" x="65" y="100.042" width="123" height="83"/>
<path fill-rule="evenodd" clip-rule="evenodd" d="M162.129 154.354L160.194 151.413L158.252 152.548C157.899 152.757 157.56 152.989 157.238 153.241L131.605 138.055C131.061 137.733 130.387 137.728 129.839 138.04C129.29 138.353 128.951 138.936 128.951 139.568V139.922C128.951 141.173 128.464 142.349 127.58 143.233C126.696 144.117 125.521 144.603 124.272 144.603C124.069 144.595 123.89 144.432 123.89 144.221V135.875C123.89 134.056 124.908 132.433 126.465 131.62C126.542 131.589 126.617 131.552 126.69 131.51C126.951 131.391 127.225 131.294 127.511 131.222L133.76 129.639C134.739 129.392 135.752 129.456 136.692 129.825L140.779 131.431C143.219 132.375 145.884 132.272 148.208 131.173L146.476 128.094C145.071 128.684 143.497 128.712 142.056 128.154L137.977 126.551C136.35 125.911 134.593 125.8 132.898 126.23L126.649 127.812C126.406 127.873 126.169 127.945 125.936 128.026C122.119 125.846 119.844 125.194 115.815 126.752L112.198 128.151C110.489 128.812 108.604 128.655 107.024 127.719L105.816 127.006C106.162 124.844 105.192 122.585 103.202 121.398L71.6721 102.596C69.172 101.106 66 102.905 66 105.82V141.031C66 143.462 67.2968 145.746 69.3844 146.991L83.1511 155.2C85.7119 156.727 89.0037 155.935 90.5977 153.446L91.1862 153.793L89.4012 156.281C87.4073 159.058 88.0413 162.921 90.8184 164.916C92.1912 165.902 93.8641 166.274 95.5034 165.982C95.7544 167.642 96.6478 169.102 98.0116 170.082C99.3806 171.065 101.064 171.435 102.699 171.145C102.94 172.738 103.796 174.237 105.205 175.248C107.103 176.611 109.456 176.722 111.367 175.86C111.787 177.025 112.547 178.036 113.575 178.774C116.244 180.691 119.946 180.174 121.993 177.636L126.617 180.377C127.604 180.962 128.689 181.24 129.76 181.24C131.875 181.24 133.939 180.155 135.093 178.207C135.58 177.384 135.855 176.493 135.933 175.598L136.113 175.705C137.535 176.547 139.2 176.786 140.8 176.376C142.401 175.966 143.746 174.957 144.589 173.535C145.109 172.655 145.399 171.683 145.448 170.691C146.478 170.979 147.571 170.992 148.635 170.72C150.236 170.31 151.582 169.301 152.424 167.879C152.914 167.052 153.199 166.142 153.272 165.211C156.077 166.399 159.407 165.356 161.002 162.664C162.402 160.299 162.043 157.372 160.317 155.414L162.129 154.354ZM84.9511 152.179C85.4077 152.452 85.943 152.528 86.4579 152.398C86.9728 152.267 87.4057 151.942 87.6764 151.485L102.094 127.138C102.651 126.198 102.341 124.979 101.403 124.419L69.8721 105.617C69.852 105.605 69.8109 105.581 69.7538 105.581C69.7195 105.581 69.6795 105.59 69.6349 105.615C69.5156 105.683 69.5156 105.782 69.5156 105.82V141.031C69.5156 142.23 70.155 143.356 71.1844 143.97L84.9511 152.179ZM92.8685 162.059C93.4481 162.475 94.1545 162.64 94.8581 162.525C95.5617 162.409 96.1784 162.026 96.5939 161.447L99.0977 157.958C99.0984 157.957 99.0991 157.956 99.0998 157.955C99.1005 157.954 99.1012 157.953 99.102 157.952C99.9605 156.756 99.686 155.084 98.4902 154.225C97.4388 153.47 96.0197 153.592 95.1087 154.445C95.0618 154.499 95.0123 154.549 94.9603 154.596C94.8914 154.671 94.8258 154.752 94.7646 154.837L92.2568 158.332C91.8408 158.911 91.6755 159.618 91.7911 160.322C91.9066 161.026 92.2894 161.643 92.8685 162.059ZM98.9843 165.488C99.0998 166.192 99.4826 166.809 100.062 167.225C101.257 168.083 102.929 167.809 103.787 166.613L109.063 159.262C109.921 158.065 109.647 156.393 108.451 155.535C107.992 155.205 107.454 155.033 106.9 155.033C106.754 155.033 106.608 155.044 106.462 155.068C105.758 155.184 105.141 155.567 104.726 156.147L99.45 163.498C99.034 164.078 98.8688 164.784 98.9843 165.488ZM107.255 172.391C107.834 172.807 108.541 172.972 109.244 172.857C109.948 172.741 110.565 172.358 110.981 171.779L116.256 164.427C116.672 163.848 116.838 163.141 116.722 162.437C116.606 161.733 116.224 161.116 115.645 160.7C114.449 159.842 112.777 160.116 111.919 161.312L106.647 168.658C106.647 168.659 106.646 168.66 106.645 168.661C106.645 168.662 106.644 168.663 106.643 168.664C105.785 169.86 106.059 171.532 107.255 172.391ZM114.548 174.18C114.663 174.884 115.046 175.501 115.625 175.917C116.821 176.776 118.492 176.501 119.35 175.305L120.071 174.301C120.081 174.287 120.091 174.272 120.101 174.258L121.105 172.86C121.963 171.664 121.689 169.992 120.493 169.133C119.298 168.275 117.629 168.549 116.769 169.743L115.018 172.183C115.017 172.185 115.015 172.187 115.013 172.19C114.597 172.769 114.432 173.476 114.548 174.18ZM154.318 161.808C155.584 162.559 157.226 162.139 157.977 160.871C158.727 159.604 158.307 157.962 157.041 157.211C156.96 157.163 156.885 157.11 156.814 157.052C156.729 157.018 156.645 156.977 156.565 156.929L132.081 142.424C131.688 143.654 131.005 144.781 130.065 145.721C128.518 147.268 126.461 148.12 124.273 148.12H124.267C122.121 148.118 120.375 146.369 120.375 144.221V135.875C120.375 133.717 121.202 131.718 122.59 130.22C120.407 129.158 119.246 129.197 117.084 130.033L113.467 131.432C112.356 131.861 111.199 132.074 110.047 132.074C108.378 132.074 106.721 131.627 105.236 130.747L104.353 130.226L92.3932 150.422L93.6396 151.158C95.7063 149.86 98.4405 149.859 100.541 151.368C101.334 151.938 101.952 152.661 102.384 153.469C103.31 152.477 104.531 151.821 105.893 151.598C107.524 151.33 109.16 151.713 110.502 152.677C111.911 153.689 112.767 155.187 113.008 156.78C114.594 156.499 116.287 156.832 117.695 157.843C119.037 158.807 119.924 160.236 120.192 161.867C120.378 163.002 120.249 164.141 119.829 165.18C120.779 165.317 121.711 165.678 122.544 166.276C125.269 168.233 125.929 172.011 124.059 174.772L128.41 177.351C129.677 178.101 131.318 177.681 132.069 176.414C132.819 175.148 132.401 173.508 131.137 172.756L131.132 172.753L127.497 170.598C126.661 170.103 126.386 169.025 126.88 168.189C127.375 167.353 128.454 167.078 129.289 167.572L132.924 169.727C132.925 169.728 132.926 169.728 132.928 169.729C132.93 169.73 132.931 169.732 132.934 169.733L137.905 172.679C138.518 173.043 139.237 173.146 139.928 172.969C140.62 172.792 141.201 172.356 141.564 171.742C141.928 171.128 142.031 170.409 141.854 169.718C141.677 169.026 141.241 168.445 140.628 168.081C140.627 168.081 140.626 168.08 140.625 168.079L140.622 168.078L131.35 162.583C130.515 162.088 130.239 161.009 130.734 160.173C131.229 159.338 132.307 159.062 133.142 159.557L142.414 165.052C142.416 165.053 142.418 165.054 142.419 165.055C142.421 165.056 142.422 165.057 142.423 165.058C142.425 165.059 142.426 165.059 142.427 165.06L145.74 167.023C146.354 167.387 147.072 167.49 147.764 167.313C148.455 167.136 149.036 166.701 149.399 166.086C150.149 164.82 149.73 163.178 148.464 162.427L148.463 162.426L135.871 154.963C135.036 154.468 134.76 153.389 135.255 152.554C135.749 151.718 136.827 151.442 137.663 151.937L150.249 159.397C150.25 159.397 150.251 159.398 150.252 159.398C150.252 159.399 150.253 159.399 150.254 159.4L154.318 161.808Z"/>
<path d="M180.369 102.577L148.839 121.379C146.511 122.768 145.579 125.623 146.517 128.075L148.25 131.154L160.235 151.394L162.17 154.336C163.889 156.071 166.654 156.514 168.89 155.181L172.218 153.196C173.052 152.699 173.326 151.62 172.828 150.786C172.331 149.951 171.251 149.678 170.419 150.175L167.09 152.16C166.306 152.628 165.35 152.486 164.735 151.922C164.723 151.823 149.947 127.12 149.947 127.12C149.39 126.18 149.701 124.96 150.639 124.4L182.169 105.598C182.33 105.504 182.525 105.617 182.525 105.801V141.012C182.525 142.211 181.886 143.337 180.857 143.951L177.533 145.932C176.699 146.43 176.426 147.509 176.923 148.343C177.42 149.178 178.5 149.45 179.333 148.954L182.656 146.972C184.744 145.727 186.041 143.443 186.041 141.012V105.801C186.041 102.89 182.872 101.085 180.369 102.577Z"/>
</mask>
<path fill-rule="evenodd" clip-rule="evenodd" d="M162.129 154.354L160.194 151.413L158.252 152.548C157.899 152.757 157.56 152.989 157.238 153.241L131.605 138.055C131.061 137.733 130.387 137.728 129.839 138.04C129.29 138.353 128.951 138.936 128.951 139.568V139.922C128.951 141.173 128.464 142.349 127.58 143.233C126.696 144.117 125.521 144.603 124.272 144.603C124.069 144.595 123.89 144.432 123.89 144.221V135.875C123.89 134.056 124.908 132.433 126.465 131.62C126.542 131.589 126.617 131.552 126.69 131.51C126.951 131.391 127.225 131.294 127.511 131.222L133.76 129.639C134.739 129.392 135.752 129.456 136.692 129.825L140.779 131.431C143.219 132.375 145.884 132.272 148.208 131.173L146.476 128.094C145.071 128.684 143.497 128.712 142.056 128.154L137.977 126.551C136.35 125.911 134.593 125.8 132.898 126.23L126.649 127.812C126.406 127.873 126.169 127.945 125.936 128.026C122.119 125.846 119.844 125.194 115.815 126.752L112.198 128.151C110.489 128.812 108.604 128.655 107.024 127.719L105.816 127.006C106.162 124.844 105.192 122.585 103.202 121.398L71.6721 102.596C69.172 101.106 66 102.905 66 105.82V141.031C66 143.462 67.2968 145.746 69.3844 146.991L83.1511 155.2C85.7119 156.727 89.0037 155.935 90.5977 153.446L91.1862 153.793L89.4012 156.281C87.4073 159.058 88.0413 162.921 90.8184 164.916C92.1912 165.902 93.8641 166.274 95.5034 165.982C95.7544 167.642 96.6478 169.102 98.0116 170.082C99.3806 171.065 101.064 171.435 102.699 171.145C102.94 172.738 103.796 174.237 105.205 175.248C107.103 176.611 109.456 176.722 111.367 175.86C111.787 177.025 112.547 178.036 113.575 178.774C116.244 180.691 119.946 180.174 121.993 177.636L126.617 180.377C127.604 180.962 128.689 181.24 129.76 181.24C131.875 181.24 133.939 180.155 135.093 178.207C135.58 177.384 135.855 176.493 135.933 175.598L136.113 175.705C137.535 176.547 139.2 176.786 140.8 176.376C142.401 175.966 143.746 174.957 144.589 173.535C145.109 172.655 145.399 171.683 145.448 170.691C146.478 170.979 147.571 170.992 148.635 170.72C150.236 170.31 151.582 169.301 152.424 167.879C152.914 167.052 153.199 166.142 153.272 165.211C156.077 166.399 159.407 165.356 161.002 162.664C162.402 160.299 162.043 157.372 160.317 155.414L162.129 154.354ZM84.9511 152.179C85.4077 152.452 85.943 152.528 86.4579 152.398C86.9728 152.267 87.4057 151.942 87.6764 151.485L102.094 127.138C102.651 126.198 102.341 124.979 101.403 124.419L69.8721 105.617C69.852 105.605 69.8109 105.581 69.7538 105.581C69.7195 105.581 69.6795 105.59 69.6349 105.615C69.5156 105.683 69.5156 105.782 69.5156 105.82V141.031C69.5156 142.23 70.155 143.356 71.1844 143.97L84.9511 152.179ZM92.8685 162.059C93.4481 162.475 94.1545 162.64 94.8581 162.525C95.5617 162.409 96.1784 162.026 96.5939 161.447L99.0977 157.958C99.0984 157.957 99.0991 157.956 99.0998 157.955C99.1005 157.954 99.1012 157.953 99.102 157.952C99.9605 156.756 99.686 155.084 98.4902 154.225C97.4388 153.47 96.0197 153.592 95.1087 154.445C95.0618 154.499 95.0123 154.549 94.9603 154.596C94.8914 154.671 94.8258 154.752 94.7646 154.837L92.2568 158.332C91.8408 158.911 91.6755 159.618 91.7911 160.322C91.9066 161.026 92.2894 161.643 92.8685 162.059ZM98.9843 165.488C99.0998 166.192 99.4826 166.809 100.062 167.225C101.257 168.083 102.929 167.809 103.787 166.613L109.063 159.262C109.921 158.065 109.647 156.393 108.451 155.535C107.992 155.205 107.454 155.033 106.9 155.033C106.754 155.033 106.608 155.044 106.462 155.068C105.758 155.184 105.141 155.567 104.726 156.147L99.45 163.498C99.034 164.078 98.8688 164.784 98.9843 165.488ZM107.255 172.391C107.834 172.807 108.541 172.972 109.244 172.857C109.948 172.741 110.565 172.358 110.981 171.779L116.256 164.427C116.672 163.848 116.838 163.141 116.722 162.437C116.606 161.733 116.224 161.116 115.645 160.7C114.449 159.842 112.777 160.116 111.919 161.312L106.647 168.658C106.647 168.659 106.646 168.66 106.645 168.661C106.645 168.662 106.644 168.663 106.643 168.664C105.785 169.86 106.059 171.532 107.255 172.391ZM114.548 174.18C114.663 174.884 115.046 175.501 115.625 175.917C116.821 176.776 118.492 176.501 119.35 175.305L120.071 174.301C120.081 174.287 120.091 174.272 120.101 174.258L121.105 172.86C121.963 171.664 121.689 169.992 120.493 169.133C119.298 168.275 117.629 168.549 116.769 169.743L115.018 172.183C115.017 172.185 115.015 172.187 115.013 172.19C114.597 172.769 114.432 173.476 114.548 174.18ZM154.318 161.808C155.584 162.559 157.226 162.139 157.977 160.871C158.727 159.604 158.307 157.962 157.041 157.211C156.96 157.163 156.885 157.11 156.814 157.052C156.729 157.018 156.645 156.977 156.565 156.929L132.081 142.424C131.688 143.654 131.005 144.781 130.065 145.721C128.518 147.268 126.461 148.12 124.273 148.12H124.267C122.121 148.118 120.375 146.369 120.375 144.221V135.875C120.375 133.717 121.202 131.718 122.59 130.22C120.407 129.158 119.246 129.197 117.084 130.033L113.467 131.432C112.356 131.861 111.199 132.074 110.047 132.074C108.378 132.074 106.721 131.627 105.236 130.747L104.353 130.226L92.3932 150.422L93.6396 151.158C95.7063 149.86 98.4405 149.859 100.541 151.368C101.334 151.938 101.952 152.661 102.384 153.469C103.31 152.477 104.531 151.821 105.893 151.598C107.524 151.33 109.16 151.713 110.502 152.677C111.911 153.689 112.767 155.187 113.008 156.78C114.594 156.499 116.287 156.832 117.695 157.843C119.037 158.807 119.924 160.236 120.192 161.867C120.378 163.002 120.249 164.141 119.829 165.18C120.779 165.317 121.711 165.678 122.544 166.276C125.269 168.233 125.929 172.011 124.059 174.772L128.41 177.351C129.677 178.101 131.318 177.681 132.069 176.414C132.819 175.148 132.401 173.508 131.137 172.756L131.132 172.753L127.497 170.598C126.661 170.103 126.386 169.025 126.88 168.189C127.375 167.353 128.454 167.078 129.289 167.572L132.924 169.727C132.925 169.728 132.926 169.728 132.928 169.729C132.93 169.73 132.931 169.732 132.934 169.733L137.905 172.679C138.518 173.043 139.237 173.146 139.928 172.969C140.62 172.792 141.201 172.356 141.564 171.742C141.928 171.128 142.031 170.409 141.854 169.718C141.677 169.026 141.241 168.445 140.628 168.081C140.627 168.081 140.626 168.08 140.625 168.079L140.622 168.078L131.35 162.583C130.515 162.088 130.239 161.009 130.734 160.173C131.229 159.338 132.307 159.062 133.142 159.557L142.414 165.052C142.416 165.053 142.418 165.054 142.419 165.055C142.421 165.056 142.422 165.057 142.423 165.058C142.425 165.059 142.426 165.059 142.427 165.06L145.74 167.023C146.354 167.387 147.072 167.49 147.764 167.313C148.455 167.136 149.036 166.701 149.399 166.086C150.149 164.82 149.73 163.178 148.464 162.427L148.463 162.426L135.871 154.963C135.036 154.468 134.76 153.389 135.255 152.554C135.749 151.718 136.827 151.442 137.663 151.937L150.249 159.397C150.25 159.397 150.251 159.398 150.252 159.398C150.252 159.399 150.253 159.399 150.254 159.4L154.318 161.808Z" fill="#F69400"/>
<path d="M180.369 102.577L148.839 121.379C146.511 122.768 145.579 125.623 146.517 128.075L148.25 131.154L160.235 151.394L162.17 154.336C163.889 156.071 166.654 156.514 168.89 155.181L172.218 153.196C173.052 152.699 173.326 151.62 172.828 150.786C172.331 149.951 171.251 149.678 170.419 150.175L167.09 152.16C166.306 152.628 165.35 152.486 164.735 151.922C164.723 151.823 149.947 127.12 149.947 127.12C149.39 126.18 149.701 124.96 150.639 124.4L182.169 105.598C182.33 105.504 182.525 105.617 182.525 105.801V141.012C182.525 142.211 181.886 143.337 180.857 143.951L177.533 145.932C176.699 146.43 176.426 147.509 176.923 148.343C177.42 149.178 178.5 149.45 179.333 148.954L182.656 146.972C184.744 145.727 186.041 143.443 186.041 141.012V105.801C186.041 102.89 182.872 101.085 180.369 102.577Z" fill="#F69400"/>
<path d="M180.328 102.596L180.584 103.026L180.584 103.026L180.328 102.596ZM148.798 121.398L149.054 121.828V121.828L148.798 121.398ZM168.849 155.2L169.105 155.629L169.105 155.629L168.849 155.2ZM172.177 153.215L171.921 152.786L171.921 152.786L172.177 153.215ZM172.787 150.804L172.358 151.06L172.358 151.06L172.787 150.804ZM170.378 150.194L170.634 150.623L170.634 150.623L170.378 150.194ZM167.049 152.179L166.793 151.749L166.793 151.749L167.049 152.179ZM164.694 151.941L164.197 151.998L164.219 152.184L164.356 152.31L164.694 151.941ZM149.906 127.138L149.476 127.393L149.477 127.395L149.906 127.138ZM150.598 124.419L150.342 123.99L150.342 123.99L150.598 124.419ZM182.128 105.617L181.874 105.186L181.872 105.188L182.128 105.617ZM180.816 143.969L180.56 143.54L180.56 143.54L180.816 143.969ZM177.492 145.951L177.748 146.381L177.749 146.38L177.492 145.951ZM176.882 148.362L177.312 148.106L177.312 148.106L176.882 148.362ZM179.292 148.972L179.548 149.402L179.548 149.402L179.292 148.972ZM182.615 146.99L182.359 146.561L182.359 146.561L182.615 146.99ZM186 105.82L185.5 105.82V105.82H186ZM180.072 102.167L148.542 120.969L149.054 121.828L180.584 103.026L180.072 102.167ZM148.542 120.969C146.001 122.484 144.985 125.598 146.009 128.273L146.943 127.915C146.09 125.686 146.939 123.089 149.054 121.828L148.542 120.969ZM161.774 154.706C163.649 156.6 166.666 157.084 169.105 155.629L168.593 154.771C166.561 155.982 164.046 155.58 162.485 154.003L161.774 154.706ZM169.105 155.629L172.433 153.645L171.921 152.786L168.593 154.771L169.105 155.629ZM172.433 153.645C173.505 153.006 173.855 151.62 173.217 150.548L172.358 151.06C172.714 151.657 172.518 152.43 171.921 152.786L172.433 153.645ZM173.217 150.548C172.578 149.476 171.191 149.126 170.121 149.765L170.634 150.623C171.229 150.268 172.002 150.463 172.358 151.06L173.217 150.548ZM170.121 149.765L166.793 151.749L167.305 152.608L170.634 150.623L170.121 149.765ZM166.793 151.749C166.207 152.099 165.492 151.994 165.031 151.572L164.356 152.31C165.127 153.015 166.322 153.195 167.306 152.608L166.793 151.749ZM165.19 151.883C165.184 151.845 165.171 151.791 165.165 151.773C165.161 151.763 165.154 151.746 165.151 151.739C165.146 151.726 165.14 151.715 165.138 151.71C165.132 151.699 165.126 151.688 165.122 151.679C165.112 151.662 165.099 151.639 165.085 151.613C165.055 151.561 165.012 151.487 164.957 151.394C164.848 151.206 164.688 150.935 164.485 150.592C164.08 149.907 163.501 148.933 162.808 147.768C161.421 145.438 159.573 142.34 157.725 139.246C155.877 136.152 154.03 133.061 152.644 130.743C151.951 129.584 151.374 128.619 150.97 127.943C150.768 127.605 150.609 127.34 150.501 127.159C150.447 127.069 150.405 126.999 150.378 126.952C150.364 126.929 150.353 126.911 150.346 126.899C150.342 126.894 150.34 126.889 150.338 126.886C150.337 126.885 150.336 126.883 150.336 126.883C150.336 126.882 150.335 126.882 150.335 126.882C150.335 126.882 150.335 126.882 149.906 127.138C149.477 127.395 149.477 127.395 149.477 127.395C149.477 127.395 149.477 127.396 149.478 127.396C149.478 127.397 149.479 127.398 149.48 127.399C149.481 127.402 149.484 127.407 149.488 127.413C149.495 127.425 149.505 127.442 149.519 127.466C149.547 127.513 149.589 127.582 149.643 127.672C149.751 127.853 149.91 128.119 150.112 128.457C150.516 129.132 151.093 130.098 151.786 131.256C153.171 133.574 155.019 136.665 156.866 139.759C158.714 142.853 160.562 145.95 161.949 148.279C162.642 149.444 163.22 150.417 163.625 151.101C163.827 151.444 163.986 151.713 164.094 151.898C164.148 151.991 164.189 152.061 164.216 152.109C164.23 152.133 164.238 152.148 164.243 152.157C164.246 152.162 164.246 152.162 164.244 152.158C164.243 152.156 164.239 152.149 164.234 152.138C164.232 152.132 164.226 152.117 164.222 152.107C164.217 152.09 164.203 152.036 164.197 151.998L165.19 151.883ZM150.336 126.883C149.92 126.18 150.153 125.267 150.854 124.849L150.342 123.99C149.167 124.69 148.779 126.216 149.476 127.393L150.336 126.883ZM150.854 124.849L182.384 106.047L181.872 105.188L150.342 123.99L150.854 124.849ZM182.382 106.048C182.209 106.15 181.984 106.022 181.984 105.82H182.984C182.984 105.249 182.368 104.895 181.874 105.186L182.382 106.048ZM181.984 105.82V141.031H182.984V105.82H181.984ZM181.984 141.031C181.984 142.053 181.437 143.016 180.56 143.54L181.072 144.399C182.252 143.695 182.984 142.406 182.984 141.031H181.984ZM180.56 143.54L177.236 145.522L177.749 146.38L181.072 144.399L180.56 143.54ZM177.236 145.522C176.165 146.16 175.814 147.547 176.453 148.618L177.312 148.106C176.956 147.509 177.152 146.736 177.748 146.381L177.236 145.522ZM176.453 148.618C177.091 149.69 178.478 150.039 179.548 149.402L179.036 148.543C178.44 148.898 177.667 148.703 177.312 148.106L176.453 148.618ZM179.548 149.402L182.871 147.42L182.359 146.561L179.036 148.543L179.548 149.402ZM182.871 147.42C185.11 146.085 186.5 143.638 186.5 141.031H185.5C185.5 143.286 184.296 145.406 182.359 146.561L182.871 147.42ZM186.5 141.031V105.82H185.5V141.031H186.5ZM186.5 105.82C186.5 102.522 182.909 100.475 180.072 102.167L180.584 103.026C182.753 101.732 185.5 103.296 185.5 105.82L186.5 105.82ZM147.778 131.428L159.764 151.667L160.624 151.158L148.639 130.918L147.778 131.428ZM146.476 128.094L147.348 127.604L146.911 126.827L146.089 127.172L146.476 128.094ZM142.056 128.154L141.69 129.085L141.696 129.087L142.056 128.154ZM137.977 126.551L137.611 127.482L137.611 127.482L137.977 126.551ZM132.898 126.23L133.143 127.199L133.143 127.199L132.898 126.23ZM126.649 127.812L126.893 128.781L126.894 128.781L126.649 127.812ZM125.936 128.026L125.441 128.895L125.837 129.121L126.267 128.97L125.936 128.026ZM115.815 126.752L116.176 127.685L116.176 127.685L115.815 126.752ZM112.198 128.151L112.559 129.084L112.559 129.084L112.198 128.151ZM107.024 127.719L107.534 126.858L107.532 126.857L107.024 127.719ZM105.816 127.006L104.828 126.848L104.72 127.521L105.308 127.868L105.816 127.006ZM103.202 121.398L102.69 122.257L102.69 122.257L103.202 121.398ZM71.6721 102.596L72.1843 101.737L72.1841 101.737L71.6721 102.596ZM69.3844 146.991L69.8966 146.132L69.8965 146.132L69.3844 146.991ZM83.1511 155.2L82.6389 156.059L82.639 156.059L83.1511 155.2ZM90.5977 153.446L91.1061 152.585L90.2755 152.094L89.7555 152.906L90.5977 153.446ZM91.1862 153.793L91.9986 154.376L92.636 153.488L91.6946 152.932L91.1862 153.793ZM89.4012 156.281L90.2136 156.864L90.2136 156.864L89.4012 156.281ZM90.8184 164.916L90.235 165.728L90.2351 165.728L90.8184 164.916ZM95.5034 165.982L96.4921 165.833L96.3386 164.818L95.3284 164.998L95.5034 165.982ZM98.0116 170.082L97.4283 170.894L97.4283 170.894L98.0116 170.082ZM102.699 171.145L103.688 170.996L103.534 169.981L102.524 170.161L102.699 171.145ZM105.205 175.248L105.788 174.436L105.788 174.436L105.205 175.248ZM111.367 175.86L112.307 175.52L111.94 174.503L110.955 174.948L111.367 175.86ZM113.575 178.774L112.991 179.586L112.992 179.586L113.575 178.774ZM121.993 177.636L122.503 176.776L121.758 176.334L121.215 177.008L121.993 177.636ZM126.617 180.377L127.127 179.516L127.127 179.516L126.617 180.377ZM135.093 178.207L134.233 177.697L134.233 177.697L135.093 178.207ZM135.933 175.598L136.442 174.738L135.074 173.927L134.936 175.511L135.933 175.598ZM136.113 175.705L135.603 176.565L135.603 176.565L136.113 175.705ZM140.8 176.376L140.552 175.407L140.551 175.407L140.8 176.376ZM144.589 173.535L143.728 173.025L143.728 173.025L144.589 173.535ZM145.448 170.691L145.717 169.728L144.51 169.391L144.449 170.642L145.448 170.691ZM148.635 170.72L148.883 171.689L148.883 171.689L148.635 170.72ZM152.424 167.879L151.563 167.369L151.563 167.369L152.424 167.879ZM153.272 165.211L153.662 164.29L152.382 163.748L152.275 165.133L153.272 165.211ZM161.002 162.664L161.862 163.173L161.862 163.173L161.002 162.664ZM160.317 155.414L159.813 154.55L158.764 155.163L159.567 156.075L160.317 155.414ZM162.129 154.354L162.634 155.218L163.544 154.686L162.965 153.805L162.129 154.354ZM133.76 129.639L133.515 128.67L133.515 128.67L133.76 129.639ZM136.692 129.825L137.058 128.894L137.057 128.894L136.692 129.825ZM140.779 131.431L140.414 132.362L140.419 132.364L140.779 131.431ZM148.208 131.173L148.636 132.077L149.606 131.618L149.08 130.683L148.208 131.173ZM160.194 151.413L161.03 150.863L160.508 150.071L159.689 150.549L160.194 151.413ZM158.252 152.548L157.747 151.685L157.742 151.688L158.252 152.548ZM157.238 153.241L156.729 154.102L157.318 154.451L157.856 154.028L157.238 153.241ZM131.605 138.055L132.114 137.195L132.114 137.195L131.605 138.055ZM129.839 138.04L130.334 138.909L130.334 138.909L129.839 138.04ZM127.58 143.233L126.873 142.526L126.873 142.526L127.58 143.233ZM124.272 144.603L124.235 145.602L124.254 145.603H124.272V144.603ZM123.89 144.221H122.89V144.222L123.89 144.221ZM126.465 131.62L126.091 130.693L126.045 130.711L126.002 130.734L126.465 131.62ZM126.69 131.51L126.274 130.601L126.23 130.621L126.188 130.645L126.69 131.51ZM127.511 131.222L127.265 130.252L127.265 130.252L127.511 131.222ZM86.4579 152.398L86.7033 153.367L86.7046 153.367L86.4579 152.398ZM84.9511 152.179L85.4639 151.32L85.4633 151.32L84.9511 152.179ZM71.1844 143.97L70.6722 144.828L70.6722 144.828L71.1844 143.97ZM69.6349 105.615L70.1288 106.484L70.1292 106.484L69.6349 105.615ZM69.8721 105.617L70.3843 104.758L70.3823 104.757L69.8721 105.617ZM101.403 124.419L101.915 123.56L101.915 123.56L101.403 124.419ZM102.094 127.138L101.234 126.629L101.234 126.629L102.094 127.138ZM87.6764 151.485L86.816 150.976L86.8159 150.976L87.6764 151.485ZM94.8581 162.525L94.696 161.538L94.6957 161.538L94.8581 162.525ZM92.8685 162.059L92.2852 162.871L92.2855 162.871L92.8685 162.059ZM91.7911 160.322L90.8043 160.484L90.8043 160.484L91.7911 160.322ZM92.2568 158.332L93.0691 158.915L93.0693 158.915L92.2568 158.332ZM94.7646 154.837L95.5771 155.42L95.5774 155.42L94.7646 154.837ZM94.9603 154.596L94.2927 153.851L94.2548 153.885L94.2207 153.923L94.9603 154.596ZM95.1087 154.445L94.4249 153.716L94.3891 153.749L94.3568 153.786L95.1087 154.445ZM98.4902 154.225L99.0736 153.413L99.0735 153.413L98.4902 154.225ZM99.102 157.952L99.9013 158.553L99.908 158.544L99.9144 158.535L99.102 157.952ZM99.0977 157.958L98.2983 157.357L98.2917 157.366L98.2853 157.375L99.0977 157.958ZM96.5939 161.447L95.7815 160.864L95.7814 160.864L96.5939 161.447ZM100.062 167.225L99.4784 168.037L99.4786 168.037L100.062 167.225ZM98.9843 165.488L97.9975 165.65L97.9975 165.65L98.9843 165.488ZM99.45 163.498L100.262 164.081L100.262 164.081L99.45 163.498ZM104.726 156.147L105.538 156.73L105.538 156.729L104.726 156.147ZM106.462 155.068L106.624 156.055L106.624 156.055L106.462 155.068ZM108.451 155.535L107.868 156.347L107.868 156.347L108.451 155.535ZM109.063 159.262L109.875 159.845L109.875 159.845L109.063 159.262ZM103.787 166.613L104.599 167.196L104.6 167.196L103.787 166.613ZM109.244 172.857L109.082 171.87L109.082 171.87L109.244 172.857ZM107.255 172.391L106.672 173.203L106.672 173.203L107.255 172.391ZM106.643 168.664L107.456 169.247L107.466 169.233L107.476 169.218L106.643 168.664ZM106.647 168.658L105.835 168.075L105.825 168.089L105.815 168.104L106.647 168.658ZM111.919 161.312L112.731 161.895L112.732 161.895L111.919 161.312ZM115.645 160.7L116.228 159.888L116.228 159.888L115.645 160.7ZM116.722 162.437L115.735 162.599L115.735 162.599L116.722 162.437ZM116.256 164.427L117.069 165.01L117.069 165.01L116.256 164.427ZM110.981 171.779L111.793 172.362L111.793 172.362L110.981 171.779ZM115.625 175.917L115.042 176.729L115.042 176.729L115.625 175.917ZM114.548 174.18L115.534 174.018L115.534 174.018L114.548 174.18ZM115.013 172.19L114.204 171.602L114.201 171.607L115.013 172.19ZM115.018 172.183L114.206 171.599L114.19 171.622L114.175 171.646L115.018 172.183ZM116.769 169.743L115.958 169.158L115.957 169.16L116.769 169.743ZM120.493 169.133L121.076 168.321L121.076 168.321L120.493 169.133ZM121.105 172.86L120.292 172.277L120.292 172.277L121.105 172.86ZM120.101 174.258L120.902 174.858L120.908 174.85L120.914 174.841L120.101 174.258ZM120.071 174.301L120.883 174.884L120.888 174.878L120.892 174.871L120.071 174.301ZM119.35 175.305L120.163 175.888L120.163 175.888L119.35 175.305ZM157.977 160.871L158.837 161.381L158.837 161.381L157.977 160.871ZM154.318 161.808L154.828 160.948L154.828 160.948L154.318 161.808ZM150.254 159.4L150.764 158.54L150.733 158.521L150.702 158.505L150.254 159.4ZM150.249 159.397L149.739 160.257L149.77 160.275L149.802 160.291L150.249 159.397ZM137.663 151.937L138.173 151.077L138.173 151.077L137.663 151.937ZM135.255 152.554L136.115 153.063L136.115 153.063L135.255 152.554ZM135.871 154.963L136.381 154.103L136.381 154.103L135.871 154.963ZM148.463 162.426L148.991 161.577L148.982 161.571L148.972 161.565L148.463 162.426ZM148.464 162.427L147.936 163.276L147.945 163.281L147.954 163.287L148.464 162.427ZM149.399 166.086L150.26 166.596L150.26 166.596L149.399 166.086ZM145.74 167.023L146.25 166.163L146.25 166.163L145.74 167.023ZM142.427 165.06L142.937 164.2L142.928 164.195L142.427 165.06ZM142.419 165.055L142.92 164.19L142.916 164.187L142.419 165.055ZM142.414 165.052L141.904 165.912L141.911 165.916L141.918 165.92L142.414 165.052ZM133.142 159.557L133.652 158.697L133.142 159.557ZM130.734 160.173L129.873 159.664L129.873 159.664L130.734 160.173ZM131.35 162.583L131.86 161.722L131.86 161.722L131.35 162.583ZM140.622 168.078L141.152 167.23L141.142 167.224L141.132 167.218L140.622 168.078ZM140.628 168.081L141.138 167.221L141.131 167.217L141.124 167.213L140.628 168.081ZM141.854 169.718L140.885 169.965L140.885 169.965L141.854 169.718ZM139.928 172.969L139.681 172L139.68 172L139.928 172.969ZM137.905 172.679L138.415 171.819L138.415 171.819L137.905 172.679ZM132.934 169.733L133.443 168.872L133.436 168.868L133.429 168.864L132.934 169.733ZM132.924 169.727L133.45 168.876L133.442 168.871L133.434 168.867L132.924 169.727ZM129.289 167.572L129.798 166.712L129.798 166.712L129.289 167.572ZM126.88 168.189L126.02 167.68L126.02 167.68L126.88 168.189ZM127.497 170.598L128.007 169.738L128.007 169.738L127.497 170.598ZM131.132 172.753L130.623 173.613L130.629 173.617L130.636 173.621L131.132 172.753ZM131.137 172.756L131.649 171.897L131.641 171.892L131.634 171.888L131.137 172.756ZM132.069 176.414L132.93 176.924L132.93 176.923L132.069 176.414ZM128.41 177.351L127.9 178.211L127.9 178.211L128.41 177.351ZM124.059 174.772L123.231 174.211L122.635 175.091L123.549 175.632L124.059 174.772ZM122.544 166.276L123.128 165.464L123.127 165.464L122.544 166.276ZM119.829 165.18L118.902 164.806L118.423 165.988L119.686 166.17L119.829 165.18ZM120.192 161.867L119.205 162.029L119.205 162.029L120.192 161.867ZM117.695 157.843L118.279 157.031L118.279 157.031L117.695 157.843ZM113.008 156.78L112.019 156.93L112.173 157.944L113.183 157.765L113.008 156.78ZM110.502 152.677L109.919 153.49L109.919 153.49L110.502 152.677ZM105.893 151.598L105.731 150.611L105.731 150.611L105.893 151.598ZM102.384 153.469L101.502 153.941L102.16 155.173L103.115 154.152L102.384 153.469ZM100.541 151.368L101.125 150.556L101.125 150.556L100.541 151.368ZM93.6396 151.158L93.1311 152.019L93.6555 152.328L94.1713 152.005L93.6396 151.158ZM92.3932 150.422L91.5328 149.912L91.0226 150.774L91.8847 151.283L92.3932 150.422ZM104.353 130.226L104.861 129.365L104.001 128.858L103.492 129.716L104.353 130.226ZM105.236 130.747L105.746 129.887L105.744 129.885L105.236 130.747ZM113.467 131.432L113.827 132.364L113.828 132.364L113.467 131.432ZM117.084 130.033L116.723 129.1L116.723 129.1L117.084 130.033ZM122.59 130.22L123.323 130.899L124.24 129.911L123.027 129.321L122.59 130.22ZM124.267 148.12L124.267 149.12H124.267V148.12ZM130.065 145.721L130.772 146.428V146.428L130.065 145.721ZM132.081 142.424L132.591 141.564L131.51 140.924L131.128 142.12L132.081 142.424ZM156.565 156.929L157.076 156.07L157.074 156.069L156.565 156.929ZM156.814 157.052L157.452 156.281L157.329 156.18L157.182 156.122L156.814 157.052ZM157.041 157.211L157.551 156.351L157.551 156.351L157.041 157.211ZM132.928 169.729L132.385 170.569L132.386 170.57L132.928 169.729ZM140.625 168.079L140.095 168.928L140.099 168.93L140.625 168.079ZM150.252 159.398L150.77 158.543L150.767 158.542L150.252 159.398ZM180.369 102.577L180.881 103.436L180.881 103.436L180.369 102.577ZM148.839 121.379L149.351 122.238L149.351 122.238L148.839 121.379ZM146.517 128.075L145.584 128.433L145.61 128.501L145.646 128.566L146.517 128.075ZM162.17 154.336L161.335 154.885L161.39 154.969L161.46 155.039L162.17 154.336ZM168.89 155.181L169.402 156.04L169.402 156.04L168.89 155.181ZM172.218 153.196L171.706 152.338L171.706 152.338L172.218 153.196ZM172.828 150.786L171.969 151.298L171.969 151.298L172.828 150.786ZM170.419 150.175L170.931 151.034L170.931 151.034L170.419 150.175ZM167.09 152.16L166.578 151.301L166.578 151.301L167.09 152.16ZM164.735 151.922L163.741 152.037L163.784 152.408L164.06 152.66L164.735 151.922ZM149.947 127.12L149.087 127.629L149.089 127.633L149.947 127.12ZM150.639 124.4L150.127 123.542L150.126 123.542L150.639 124.4ZM182.169 105.598L181.661 104.737L181.657 104.739L182.169 105.598ZM180.857 143.951L180.345 143.092L180.345 143.092L180.857 143.951ZM177.533 145.932L178.046 146.791L178.046 146.791L177.533 145.932ZM176.923 148.343L177.783 147.832L177.782 147.831L176.923 148.343ZM179.333 148.954L179.845 149.813L179.845 149.812L179.333 148.954ZM182.656 146.972L182.144 146.113L182.144 146.113L182.656 146.972ZM186.041 105.801L185.041 105.801V105.801H186.041ZM148.25 131.154L147.378 131.645L147.383 131.654L147.389 131.664L148.25 131.154ZM160.235 151.394L159.375 151.903L159.387 151.924L159.4 151.943L160.235 151.394ZM146.089 127.172C144.921 127.662 143.616 127.685 142.417 127.222L141.696 129.087C143.379 129.738 145.22 129.706 146.863 129.016L146.089 127.172ZM142.422 127.224L138.343 125.621L137.611 127.482L141.69 129.085L142.422 127.224ZM138.343 125.621C136.521 124.904 134.551 124.779 132.652 125.26L133.143 127.199C134.636 126.821 136.179 126.919 137.611 127.482L138.343 125.621ZM132.652 125.26L126.403 126.842L126.894 128.781L133.143 127.199L132.652 125.26ZM126.404 126.842C126.132 126.911 125.866 126.991 125.606 127.082L126.267 128.97C126.472 128.898 126.681 128.835 126.893 128.781L126.404 126.842ZM126.432 127.158C124.505 126.057 122.848 125.269 121.108 124.999C119.336 124.724 117.578 124.998 115.454 125.82L116.176 127.685C118.081 126.948 119.475 126.769 120.801 126.975C122.16 127.186 123.55 127.815 125.441 128.895L126.432 127.158ZM115.455 125.82L111.837 127.218L112.559 129.084L116.176 127.685L115.455 125.82ZM111.837 127.218C110.414 127.769 108.851 127.639 107.534 126.858L106.514 128.579C108.358 129.672 110.563 129.856 112.559 129.084L111.837 127.218ZM107.532 126.857L106.324 126.145L105.308 127.868L106.516 128.58L107.532 126.857ZM106.803 127.165C107.212 124.613 106.069 121.944 103.715 120.539L102.69 122.257C104.315 123.226 105.113 125.074 104.828 126.848L106.803 127.165ZM103.715 120.54L72.1843 101.737L71.1599 103.455L102.69 122.257L103.715 120.54ZM72.1841 101.737C69.0178 99.8497 65 102.128 65 105.82H67C67 103.681 69.3262 102.362 71.1601 103.455L72.1841 101.737ZM65 105.82V141.031H67V105.82H65ZM65 141.031C65 143.814 66.482 146.424 68.8722 147.85L69.8965 146.132C68.1116 145.067 67 143.11 67 141.031H65ZM68.8722 147.85L82.6389 156.059L83.6633 154.341L69.8966 146.132L68.8722 147.85ZM82.639 156.059C85.665 157.863 89.5557 156.928 91.4398 153.985L89.7555 152.906C88.4516 154.943 85.7587 155.591 83.6632 154.341L82.639 156.059ZM90.0892 154.307L90.6777 154.654L91.6946 152.932L91.1061 152.585L90.0892 154.307ZM90.3737 153.21L88.5887 155.698L90.2136 156.864L91.9986 154.376L90.3737 153.21ZM88.5888 155.698C86.273 158.924 87.0095 163.411 90.235 165.728L91.4018 164.104C89.0731 162.431 88.5417 159.193 90.2136 156.864L88.5888 155.698ZM90.2351 165.728C91.8282 166.872 93.7748 167.305 95.6783 166.967L95.3284 164.998C93.9534 165.242 92.5542 164.931 91.4018 164.104L90.2351 165.728ZM94.5146 166.132C94.8059 168.058 95.8455 169.757 97.4283 170.894L98.595 169.27C97.4501 168.448 96.7028 167.226 96.4921 165.833L94.5146 166.132ZM97.4283 170.894C99.0191 172.037 100.977 172.466 102.874 172.13L102.524 170.161C101.152 170.404 99.7421 170.094 98.595 169.27L97.4283 170.894ZM101.71 171.295C101.989 173.142 102.984 174.885 104.622 176.06L105.788 174.436C104.608 173.589 103.89 172.334 103.688 170.996L101.71 171.295ZM104.622 176.06C106.828 177.645 109.563 177.771 111.778 176.771L110.955 174.948C109.349 175.673 107.378 175.578 105.788 174.436L104.622 176.06ZM110.426 176.199C110.915 177.555 111.8 178.731 112.991 179.586L114.158 177.962C113.294 177.341 112.659 176.495 112.307 175.52L110.426 176.199ZM112.992 179.586C116.094 181.814 120.393 181.213 122.771 178.264L121.215 177.008C119.5 179.134 116.395 179.568 114.158 177.962L112.992 179.586ZM121.483 178.496L126.107 181.237L127.127 179.516L122.503 176.776L121.483 178.496ZM126.107 181.237C127.253 181.916 128.515 182.24 129.76 182.24V180.24C128.863 180.24 127.955 180.007 127.127 179.516L126.107 181.237ZM129.76 182.24C132.213 182.24 134.612 180.982 135.954 178.716L134.233 177.697C133.266 179.329 131.538 180.24 129.76 180.24V182.24ZM135.953 178.716C136.519 177.761 136.838 176.725 136.929 175.685L134.936 175.511C134.871 176.26 134.642 177.006 134.233 177.697L135.953 178.716ZM135.423 176.458L135.603 176.565L136.622 174.844L136.442 174.738L135.423 176.458ZM135.603 176.565C137.253 177.543 139.19 177.821 141.048 177.344L140.551 175.407C139.209 175.751 137.816 175.552 136.622 174.844L135.603 176.565ZM141.048 177.345C142.906 176.869 144.472 175.694 145.449 174.044L143.728 173.025C143.021 174.219 141.896 175.063 140.552 175.407L141.048 177.345ZM145.449 174.044C146.052 173.026 146.39 171.896 146.447 170.74L144.449 170.642C144.408 171.471 144.166 172.285 143.728 173.025L145.449 174.044ZM145.179 171.654C146.379 171.99 147.65 172.004 148.883 171.689L148.387 169.751C147.491 169.98 146.577 169.968 145.717 169.728L145.179 171.654ZM148.883 171.689C150.741 171.213 152.307 170.039 153.284 168.389L151.563 167.369C150.856 168.563 149.731 169.407 148.387 169.751L148.883 171.689ZM153.284 168.389C153.852 167.431 154.185 166.373 154.269 165.288L152.275 165.133C152.214 165.911 151.976 166.673 151.563 167.369L153.284 168.389ZM152.882 166.132C156.142 167.512 160.009 166.302 161.862 163.173L160.141 162.154C158.805 164.41 156.013 165.285 153.662 164.29L152.882 166.132ZM161.862 163.173C163.49 160.424 163.071 157.026 161.067 154.752L159.567 156.075C161.015 157.718 161.314 160.175 160.141 162.154L161.862 163.173ZM160.822 156.277L162.634 155.218L161.625 153.491L159.813 154.55L160.822 156.277ZM134.005 130.609C134.781 130.412 135.581 130.463 136.326 130.756L137.057 128.894C135.923 128.449 134.696 128.371 133.515 128.67L134.005 130.609ZM136.326 130.756L140.414 132.362L141.145 130.501L137.058 128.894L136.326 130.756ZM140.419 132.364C143.114 133.406 146.063 133.293 148.636 132.077L147.781 130.269C145.705 131.25 143.325 131.344 141.14 130.499L140.419 132.364ZM159.689 150.549L157.747 151.685L158.757 153.411L160.699 152.276L159.689 150.549ZM157.742 151.688C157.352 151.919 156.977 152.175 156.621 152.455L157.856 154.028C158.144 153.802 158.446 153.595 158.762 153.408L157.742 151.688ZM157.748 152.381L132.114 137.195L131.095 138.915L156.729 154.102L157.748 152.381ZM132.114 137.195C131.262 136.69 130.203 136.681 129.343 137.172L130.334 138.909C130.57 138.774 130.861 138.777 131.095 138.915L132.114 137.195ZM129.343 137.172C128.482 137.663 127.951 138.577 127.951 139.568H129.951C129.951 139.295 130.097 139.044 130.334 138.909L129.343 137.172ZM127.951 139.568V139.922H129.951V139.568H127.951ZM127.951 139.922C127.951 140.907 127.57 141.829 126.873 142.526L128.287 143.94C129.359 142.868 129.951 141.438 129.951 139.922H127.951ZM126.873 142.526C126.176 143.222 125.256 143.603 124.272 143.603V145.603C125.786 145.603 127.215 145.011 128.287 143.94L126.873 142.526ZM124.309 143.604C124.583 143.614 124.89 143.835 124.89 144.22L122.89 144.222C122.891 145.029 123.556 145.577 124.235 145.602L124.309 143.604ZM124.89 144.221V135.875H122.89V144.221H124.89ZM124.89 135.875C124.89 134.435 125.695 133.15 126.927 132.507L126.002 130.734C124.12 131.717 122.89 133.678 122.89 135.875H124.89ZM126.838 132.548C126.96 132.499 127.078 132.441 127.192 132.375L126.188 130.645C126.157 130.664 126.124 130.679 126.091 130.693L126.838 132.548ZM127.106 132.42C127.312 132.326 127.529 132.249 127.757 132.191L127.265 130.252C126.921 130.34 126.59 130.457 126.274 130.601L127.106 132.42ZM127.756 132.191L134.006 130.609L133.515 128.67L127.265 130.252L127.756 132.191ZM86.2125 151.428C85.953 151.494 85.6907 151.456 85.4639 151.32L84.4383 153.037C85.1246 153.447 85.933 153.562 86.7033 153.367L86.2125 151.428ZM85.4633 151.32L71.6965 143.111L70.6722 144.828L84.4389 153.038L85.4633 151.32ZM71.6966 143.111C70.9698 142.677 70.5156 141.878 70.5156 141.031H68.5156C68.5156 142.582 69.3402 144.034 70.6722 144.828L71.6966 143.111ZM70.5156 141.031V105.82H68.5156V141.031H70.5156ZM70.5156 105.82C70.5156 105.817 70.5199 105.945 70.4617 106.093C70.3941 106.266 70.2712 106.404 70.1288 106.484L69.141 104.745C68.8793 104.894 68.6967 105.116 68.5994 105.364C68.5113 105.589 68.5156 105.786 68.5156 105.82H70.5156ZM70.1292 106.484C70.0311 106.54 69.9018 106.581 69.7538 106.581V104.581C69.5373 104.581 69.3278 104.639 69.1406 104.746L70.1292 106.484ZM69.7538 106.581C69.5218 106.581 69.3617 106.477 69.3619 106.477L70.3823 104.757C70.3422 104.733 70.1001 104.581 69.7538 104.581V106.581ZM69.3599 106.476L100.89 125.278L101.915 123.56L70.3843 104.758L69.3599 106.476ZM100.89 125.278C101.355 125.555 101.51 126.163 101.234 126.629L102.955 127.648C103.792 126.234 103.326 124.402 101.915 123.56L100.89 125.278ZM101.234 126.629L86.816 150.976L88.5369 151.995L102.955 127.648L101.234 126.629ZM86.8159 150.976C86.6805 151.204 86.4685 151.363 86.2112 151.429L86.7046 153.367C87.4772 153.17 88.1309 152.681 88.5369 151.995L86.8159 150.976ZM94.6957 161.538C94.2546 161.611 93.8162 161.508 93.4516 161.246L92.2855 162.871C93.08 163.441 94.0545 163.67 95.0206 163.511L94.6957 161.538ZM93.4519 161.247C93.0881 160.985 92.8505 160.602 92.7779 160.16L90.8043 160.484C90.9628 161.45 91.4907 162.3 92.2852 162.871L93.4519 161.247ZM92.7779 160.16C92.7052 159.718 92.8079 159.279 93.0691 158.915L91.4445 157.749C90.8736 158.544 90.6459 159.519 90.8043 160.484L92.7779 160.16ZM93.0693 158.915L95.5771 155.42L93.9521 154.254L91.4443 157.749L93.0693 158.915ZM95.5774 155.42C95.6146 155.368 95.6555 155.318 95.7 155.269L94.2207 153.923C94.1273 154.025 94.037 154.136 93.9518 154.255L95.5774 155.42ZM95.6279 155.34C95.712 155.265 95.7894 155.186 95.8606 155.105L94.3568 153.786C94.3342 153.812 94.3127 153.833 94.2927 153.851L95.6279 155.34ZM95.7925 155.175C96.3624 154.641 97.2516 154.567 97.907 155.038L99.0735 153.413C97.626 152.374 95.677 152.542 94.4249 153.716L95.7925 155.175ZM97.9069 155.037C98.6541 155.574 98.8262 156.622 98.2895 157.369L99.9144 158.535C101.095 156.891 100.718 154.594 99.0736 153.413L97.9069 155.037ZM98.2853 157.375L95.7815 160.864L97.4063 162.03L99.9102 158.541L98.2853 157.375ZM95.7814 160.864C95.5206 161.228 95.138 161.465 94.696 161.538L95.0202 163.511C95.9854 163.353 96.8361 162.825 97.4064 162.03L95.7814 160.864ZM100.645 166.413C100.281 166.151 100.044 165.769 99.9711 165.326L97.9975 165.65C98.156 166.616 98.6839 167.466 99.4784 168.037L100.645 166.413ZM99.9711 165.326C99.8984 164.884 100.001 164.445 100.262 164.081L98.6377 162.915C98.0668 163.71 97.8391 164.685 97.9975 165.65L99.9711 165.326ZM105.538 156.729C105.799 156.365 106.182 156.128 106.624 156.055L106.299 154.082C105.334 154.241 104.483 154.768 103.913 155.564L105.538 156.729ZM106.624 156.055C106.716 156.04 106.808 156.033 106.9 156.033V154.033C106.7 154.033 106.5 154.049 106.299 154.082L106.624 156.055ZM106.9 156.033C107.243 156.033 107.578 156.139 107.868 156.347L109.035 154.722C108.406 154.271 107.664 154.033 106.9 154.033V156.033ZM107.868 156.347C108.615 156.883 108.787 157.931 108.25 158.679L109.875 159.845C111.056 158.2 110.679 155.903 109.034 154.722L107.868 156.347ZM108.25 158.679L102.975 166.03L104.6 167.196L109.875 159.845L108.25 158.679ZM102.975 166.03C102.439 166.777 101.392 166.949 100.645 166.412L99.4786 168.037C101.122 169.217 103.419 168.842 104.599 167.196L102.975 166.03ZM109.082 171.87C108.641 171.943 108.202 171.84 107.838 171.579L106.672 173.203C107.466 173.774 108.441 174.002 109.406 173.844L109.082 171.87ZM107.838 171.579C107.091 171.042 106.919 169.995 107.456 169.247L105.831 168.081C104.65 169.726 105.027 172.022 106.672 173.203L107.838 171.579ZM107.46 169.241L112.731 161.895L111.107 160.729L105.835 168.075L107.46 169.241ZM112.732 161.895C113.268 161.148 114.314 160.976 115.062 161.513L116.228 159.888C114.583 158.708 112.287 159.083 111.106 160.729L112.732 161.895ZM115.061 161.512C115.425 161.774 115.663 162.156 115.735 162.599L117.709 162.275C117.55 161.309 117.022 160.459 116.228 159.888L115.061 161.512ZM115.735 162.599C115.808 163.041 115.705 163.48 115.444 163.844L117.069 165.01C117.639 164.215 117.867 163.24 117.709 162.275L115.735 162.599ZM115.444 163.844L110.168 171.196L111.793 172.362L117.069 165.01L115.444 163.844ZM110.168 171.196C109.907 171.56 109.524 171.797 109.082 171.87L109.406 173.844C110.372 173.685 111.222 173.157 111.793 172.362L110.168 171.196ZM116.208 175.104C115.844 174.843 115.607 174.46 115.534 174.018L113.561 174.342C113.719 175.308 114.247 176.158 115.042 176.729L116.208 175.104ZM115.534 174.018C115.462 173.576 115.564 173.137 115.825 172.773L114.201 171.607C113.63 172.402 113.402 173.377 113.561 174.342L115.534 174.018ZM115.822 172.778C115.83 172.768 115.845 172.747 115.862 172.719L114.175 171.646C114.189 171.624 114.201 171.607 114.204 171.602L115.822 172.778ZM115.831 172.766L117.582 170.326L115.957 169.16L114.206 171.599L115.831 172.766ZM117.581 170.327C118.118 169.58 119.163 169.409 119.91 169.945L121.076 168.321C119.433 167.141 117.139 167.517 115.958 169.158L117.581 170.327ZM119.91 169.945C120.657 170.482 120.829 171.53 120.292 172.277L121.917 173.443C123.097 171.799 122.721 169.502 121.076 168.321L119.91 169.945ZM120.292 172.277L119.289 173.675L120.914 174.841L121.917 173.443L120.292 172.277ZM119.301 173.658C119.281 173.686 119.263 173.712 119.249 173.732L120.892 174.871C120.895 174.867 120.898 174.864 120.899 174.861C120.901 174.859 120.902 174.858 120.902 174.858L119.301 173.658ZM119.258 173.718L118.538 174.722L120.163 175.888L120.883 174.884L119.258 173.718ZM118.538 174.722C118.002 175.469 116.956 175.641 116.208 175.104L115.042 176.729C116.687 177.91 118.983 177.533 120.163 175.888L118.538 174.722ZM157.117 160.362C156.647 161.154 155.618 161.417 154.828 160.948L153.808 162.668C155.55 163.701 157.805 163.123 158.837 161.381L157.117 160.362ZM154.828 160.948L150.764 158.54L149.744 160.26L153.808 162.668L154.828 160.948ZM150.759 158.537L138.173 151.077L137.153 152.798L149.739 160.257L150.759 158.537ZM138.173 151.077C136.862 150.301 135.17 150.733 134.394 152.044L136.115 153.063C136.328 152.703 136.793 152.584 137.153 152.798L138.173 151.077ZM134.394 152.044C133.619 153.354 134.05 155.047 135.361 155.823L136.381 154.103C136.021 153.89 135.901 153.424 136.115 153.063L134.394 152.044ZM135.361 155.823L147.953 163.286L148.972 161.565L136.381 154.103L135.361 155.823ZM147.934 163.275L147.936 163.276L148.993 161.578L148.991 161.577L147.934 163.275ZM147.954 163.287C148.745 163.756 149.008 164.785 148.539 165.577L150.26 166.596C151.291 164.854 150.715 162.6 148.975 161.567L147.954 163.287ZM148.539 165.577C148.31 165.963 147.95 166.233 147.516 166.344L148.011 168.282C148.96 168.039 149.761 167.438 150.26 166.596L148.539 165.577ZM147.516 166.344C147.081 166.455 146.635 166.392 146.25 166.163L145.23 167.883C146.072 168.383 147.064 168.524 148.011 168.282L147.516 166.344ZM146.25 166.163L142.937 164.2L141.918 165.92L145.23 167.883L146.25 166.163ZM142.916 164.187C142.922 164.191 142.926 164.193 142.929 164.195C142.931 164.196 142.932 164.197 142.932 164.196C142.931 164.196 142.929 164.195 142.926 164.193C142.923 164.191 142.917 164.188 142.911 164.184L141.918 165.92C141.912 165.917 141.907 165.914 141.905 165.913C141.903 165.912 141.901 165.911 141.902 165.911C141.902 165.911 141.905 165.913 141.908 165.914C141.911 165.916 141.916 165.92 141.923 165.923L142.916 164.187ZM142.924 164.192L133.652 158.697L132.632 160.417L141.904 165.912L142.924 164.192ZM133.652 158.697C132.341 157.92 130.65 158.353 129.873 159.664L131.594 160.683C131.808 160.323 132.272 160.204 132.632 160.417L133.652 158.697ZM129.873 159.664C129.098 160.974 129.529 162.666 130.84 163.443L131.86 161.722C131.5 161.509 131.381 161.044 131.594 160.683L129.873 159.664ZM130.84 163.443L140.113 168.938L141.132 167.218L131.86 161.722L130.84 163.443ZM140.118 168.942C140.504 169.17 140.774 169.531 140.885 169.965L142.823 169.47C142.58 168.521 141.979 167.72 141.138 167.221L140.118 168.942ZM140.885 169.965C140.996 170.4 140.932 170.847 140.704 171.233L142.425 172.252C142.923 171.41 143.065 170.418 142.823 169.47L140.885 169.965ZM140.704 171.233C140.475 171.619 140.115 171.889 139.681 172L140.176 173.938C141.125 173.695 141.926 173.094 142.425 172.252L140.704 171.233ZM139.68 172C139.246 172.111 138.8 172.047 138.415 171.819L137.395 173.539C138.237 174.038 139.229 174.18 140.177 173.937L139.68 172ZM138.415 171.819L133.443 168.872L132.424 170.593L137.395 173.539L138.415 171.819ZM133.434 168.867L129.798 166.712L128.779 168.433L132.414 170.587L133.434 168.867ZM129.798 166.712C128.488 165.936 126.796 166.368 126.02 167.68L127.741 168.699C127.954 168.338 128.419 168.22 128.779 168.433L129.798 166.712ZM126.02 167.68C125.244 168.99 125.676 170.682 126.987 171.459L128.007 169.738C127.647 169.525 127.527 169.059 127.741 168.699L126.02 167.68ZM126.987 171.459L130.623 173.613L131.642 171.893L128.007 169.738L126.987 171.459ZM130.636 173.621L130.641 173.624L131.634 171.888L131.629 171.885L130.636 173.621ZM130.626 173.615C131.415 174.085 131.678 175.112 131.209 175.904L132.93 176.923C133.96 175.183 133.386 172.931 131.649 171.897L130.626 173.615ZM131.209 175.904C130.739 176.697 129.711 176.959 128.92 176.491L127.9 178.211C129.642 179.243 131.897 178.666 132.93 176.924L131.209 175.904ZM128.92 176.491L124.569 173.912L123.549 175.632L127.9 178.211L128.92 176.491ZM124.887 175.333C127.059 172.125 126.293 167.738 123.128 165.464L121.961 167.088C124.244 168.728 124.798 171.897 123.231 174.211L124.887 175.333ZM123.127 165.464C122.161 164.77 121.077 164.35 119.971 164.191L119.686 166.17C120.482 166.285 121.262 166.586 121.961 167.088L123.127 165.464ZM120.756 165.555C121.245 164.344 121.394 163.021 121.179 161.705L119.205 162.029C119.362 162.984 119.253 163.937 118.902 164.806L120.756 165.555ZM121.179 161.705C120.868 159.813 119.836 158.15 118.279 157.031L117.112 158.656C118.239 159.465 118.98 160.66 119.205 162.029L121.179 161.705ZM118.279 157.031C116.642 155.856 114.673 155.47 112.834 155.796L113.183 157.765C114.515 157.529 115.932 157.809 117.112 158.656L118.279 157.031ZM113.997 156.631C113.718 154.783 112.723 153.041 111.085 151.865L109.919 153.49C111.099 154.337 111.817 155.591 112.019 156.93L113.997 156.631ZM111.085 151.865C109.528 150.746 107.623 150.301 105.731 150.611L106.055 152.585C107.424 152.36 108.792 152.68 109.919 153.49L111.085 151.865ZM105.731 150.611C104.152 150.87 102.731 151.633 101.653 152.787L103.115 154.152C103.89 153.322 104.91 152.773 106.055 152.585L105.731 150.611ZM103.266 152.998C102.764 152.058 102.045 151.217 101.125 150.556L99.9577 152.18C100.623 152.658 101.14 153.264 101.502 153.941L103.266 152.998ZM101.125 150.556C98.6816 148.801 95.506 148.805 93.108 150.311L94.1713 152.005C95.9067 150.915 98.1995 150.917 99.9579 152.18L101.125 150.556ZM94.1481 150.297L92.9017 149.561L91.8847 151.283L93.1311 152.019L94.1481 150.297ZM93.2536 150.931L105.213 130.736L103.492 129.716L91.5328 149.912L93.2536 150.931ZM103.845 131.087L104.728 131.608L105.744 129.885L104.861 129.365L103.845 131.087ZM104.726 131.607C106.366 132.579 108.198 133.074 110.047 133.074V131.074C108.558 131.074 107.077 130.676 105.746 129.887L104.726 131.607ZM110.047 133.074C111.322 133.074 112.602 132.838 113.827 132.364L113.106 130.499C112.11 130.884 111.075 131.074 110.047 131.074V133.074ZM113.828 132.364L117.444 130.965L116.723 129.1L113.106 130.499L113.828 132.364ZM117.444 130.966C118.485 130.563 119.17 130.4 119.807 130.414C120.436 130.428 121.123 130.618 122.152 131.119L123.027 129.321C121.874 128.759 120.888 128.438 119.851 128.415C118.821 128.392 117.844 128.667 116.723 129.1L117.444 130.966ZM121.856 129.54C120.302 131.218 119.375 133.458 119.375 135.875H121.375C121.375 133.975 122.102 132.218 123.323 130.899L121.856 129.54ZM119.375 135.875V144.221H121.375V135.875H119.375ZM119.375 144.221C119.375 146.92 121.567 149.118 124.267 149.12L124.268 147.12C122.675 147.119 121.375 145.818 121.375 144.221H119.375ZM124.267 149.12H124.273V147.12H124.267V149.12ZM124.273 149.12C126.726 149.12 129.037 148.162 130.772 146.428L129.358 145.013C127.998 146.373 126.195 147.12 124.273 147.12V149.12ZM130.772 146.428C131.824 145.376 132.592 144.111 133.034 142.728L131.128 142.12C130.784 143.197 130.186 144.187 129.358 145.013L130.772 146.428ZM131.571 143.285L156.055 157.79L157.074 156.069L132.591 141.564L131.571 143.285ZM156.054 157.789C156.182 157.865 156.313 157.929 156.446 157.981L157.182 156.122C157.144 156.107 157.109 156.089 157.076 156.07L156.054 157.789ZM156.177 157.822C156.286 157.913 156.404 157.996 156.531 158.072L157.551 156.351C157.516 156.33 157.483 156.307 157.452 156.281L156.177 157.822ZM156.531 158.071C157.322 158.541 157.586 159.569 157.117 160.362L158.837 161.381C159.869 159.639 159.292 157.384 157.551 156.351L156.531 158.071ZM145.605 128.584L147.337 131.663L149.08 130.683L147.348 127.604L145.605 128.584ZM159.359 151.962L161.294 154.904L162.965 153.805L161.03 150.863L159.359 151.962ZM99.8971 158.559C99.9038 158.55 99.909 158.543 99.912 158.539C99.9135 158.537 99.9148 158.535 99.9156 158.534C99.916 158.533 99.9163 158.533 99.9165 158.533C99.9166 158.532 99.9167 158.532 99.9167 158.532C99.9168 158.532 99.9168 158.532 99.9168 158.532L98.2828 157.379C98.2818 157.38 98.2836 157.378 98.2856 157.375C98.2879 157.372 98.2924 157.365 98.2983 157.357L99.8971 158.559ZM99.9168 158.532C99.9179 158.53 99.9161 158.533 99.9141 158.536C99.9118 158.539 99.9073 158.545 99.9013 158.553L98.3026 157.352C98.2959 157.36 98.2907 157.368 98.2877 157.372C98.2862 157.374 98.2849 157.376 98.2841 157.377C98.2837 157.377 98.2834 157.378 98.2832 157.378C98.2831 157.378 98.283 157.379 98.2829 157.379C98.2829 157.379 98.2829 157.379 98.2828 157.379L99.9168 158.532ZM105.815 168.104C105.819 168.097 105.823 168.092 105.826 168.088C105.828 168.085 105.83 168.082 105.829 168.083L107.461 169.239C107.462 169.239 107.47 169.227 107.48 169.212L105.815 168.104ZM105.829 168.083C105.829 168.083 105.82 168.095 105.811 168.11L107.476 169.218C107.471 169.225 107.467 169.23 107.465 169.234C107.463 169.237 107.461 169.239 107.461 169.239L105.829 168.083ZM132.399 170.578C132.393 170.574 132.389 170.572 132.387 170.57C132.385 170.569 132.384 170.568 132.385 170.569L133.471 168.889C133.47 168.889 133.468 168.887 133.465 168.885C133.461 168.883 133.456 168.88 133.45 168.876L132.399 170.578ZM132.386 170.57C132.387 170.57 132.393 170.574 132.401 170.579C132.41 170.585 132.422 170.592 132.438 170.601L133.429 168.864C133.443 168.872 133.454 168.879 133.46 168.883C133.466 168.886 133.47 168.889 133.469 168.889L132.386 170.57ZM141.124 167.213C141.133 167.218 141.139 167.222 141.143 167.224C141.147 167.227 141.15 167.228 141.15 167.229L140.099 168.93C140.101 168.931 140.114 168.94 140.132 168.95L141.124 167.213ZM141.154 167.231L141.152 167.23L140.093 168.926L140.095 168.928L141.154 167.231ZM141.918 165.921C141.907 165.914 141.898 165.909 141.892 165.905C141.887 165.902 141.883 165.899 141.885 165.9L142.962 164.215C142.962 164.215 142.96 164.214 142.959 164.213C142.957 164.212 142.954 164.21 142.95 164.208C142.943 164.204 142.933 164.197 142.92 164.19L141.918 165.921ZM141.885 165.9C141.886 165.901 141.904 165.913 141.926 165.926L142.928 164.195C142.939 164.201 142.948 164.206 142.953 164.21C142.958 164.213 142.962 164.216 142.962 164.215L141.885 165.9ZM149.802 160.291C149.78 160.281 149.763 160.271 149.753 160.265C149.747 160.262 149.743 160.259 149.74 160.258C149.739 160.257 149.738 160.256 149.737 160.256C149.736 160.255 149.736 160.255 149.736 160.255L150.767 158.542C150.767 158.542 150.758 158.536 150.748 158.53C150.736 158.523 150.718 158.514 150.696 158.502L149.802 160.291ZM149.733 160.253C149.734 160.254 149.766 160.274 149.807 160.294L150.702 158.505C150.723 158.516 150.74 158.526 150.751 158.532C150.762 158.538 150.77 158.543 150.77 158.543L149.733 160.253ZM179.857 101.719L148.327 120.521L149.351 122.238L180.881 103.436L179.857 101.719ZM148.327 120.521C145.573 122.162 144.474 125.536 145.584 128.433L147.451 127.718C146.683 125.711 147.449 123.373 149.351 122.238L148.327 120.521ZM161.46 155.039C163.491 157.091 166.759 157.616 169.402 156.04L168.378 154.322C166.55 155.412 164.286 155.051 162.881 153.632L161.46 155.039ZM169.402 156.04L172.731 154.055L171.706 152.338L168.378 154.322L169.402 156.04ZM172.73 154.055C174.039 153.275 174.467 151.582 173.687 150.274L171.969 151.298C172.184 151.657 172.066 152.123 171.706 152.338L172.73 154.055ZM173.687 150.274C172.907 148.965 171.214 148.536 169.906 149.317L170.931 151.034C171.289 150.82 171.755 150.937 171.969 151.298L173.687 150.274ZM169.906 149.316L166.578 151.301L167.603 153.019L170.931 151.034L169.906 149.316ZM166.578 151.301C166.191 151.532 165.716 151.464 165.41 151.184L164.06 152.66C164.985 153.507 166.421 153.724 167.603 153.019L166.578 151.301ZM165.728 151.807C165.716 151.731 165.689 151.622 165.677 151.587C165.67 151.567 165.657 151.534 165.651 151.521C165.64 151.496 165.63 151.476 165.626 151.468C165.617 151.449 165.607 151.432 165.602 151.422C165.59 151.4 165.575 151.374 165.56 151.347C165.529 151.293 165.485 151.217 165.43 151.123C165.32 150.934 165.16 150.662 164.957 150.319C164.551 149.633 163.972 148.659 163.279 147.493C161.891 145.163 160.043 142.065 158.195 138.971C156.347 135.877 154.5 132.786 153.114 130.468C152.422 129.309 151.844 128.344 151.44 127.668C151.238 127.33 151.079 127.065 150.971 126.884C150.917 126.793 150.876 126.724 150.848 126.677C150.834 126.654 150.823 126.636 150.816 126.624C150.812 126.618 150.81 126.614 150.808 126.611C150.807 126.609 150.806 126.608 150.806 126.607C150.806 126.607 150.806 126.607 150.805 126.607C150.805 126.606 150.805 126.606 149.947 127.12C149.089 127.633 149.089 127.633 149.089 127.633C149.089 127.633 149.089 127.634 149.09 127.634C149.09 127.635 149.091 127.636 149.092 127.637C149.093 127.64 149.096 127.645 149.1 127.651C149.107 127.663 149.117 127.68 149.131 127.704C149.159 127.75 149.201 127.82 149.255 127.91C149.363 128.091 149.522 128.357 149.724 128.694C150.128 129.37 150.705 130.335 151.398 131.494C152.783 133.812 154.63 136.902 156.478 139.996C158.326 143.091 160.174 146.187 161.56 148.516C162.253 149.681 162.831 150.653 163.235 151.337C163.438 151.679 163.596 151.948 163.703 152.132C163.757 152.224 163.797 152.293 163.823 152.337C163.836 152.361 163.843 152.373 163.845 152.378C163.847 152.381 163.843 152.374 163.837 152.363C163.835 152.358 163.827 152.342 163.817 152.319C163.812 152.307 163.799 152.275 163.792 152.255C163.781 152.221 163.753 152.112 163.741 152.037L165.728 151.807ZM150.808 126.61C150.532 126.144 150.686 125.536 151.151 125.259L150.126 123.542C148.715 124.383 148.249 126.215 149.087 127.629L150.808 126.61ZM151.151 125.259L182.681 106.457L181.657 104.739L150.127 123.542L151.151 125.259ZM182.677 106.46C182.171 106.758 181.525 106.39 181.525 105.801H183.525C183.525 104.843 182.489 104.249 181.661 104.737L182.677 106.46ZM181.525 105.801V141.012H183.525V105.801H181.525ZM181.525 141.012C181.525 141.859 181.071 142.659 180.345 143.092L181.369 144.81C182.701 144.015 183.525 142.563 183.525 141.012H181.525ZM180.345 143.092L177.021 145.073L178.046 146.791L181.369 144.809L180.345 143.092ZM177.021 145.073C175.713 145.854 175.285 147.547 176.064 148.855L177.782 147.831C177.568 147.472 177.686 147.006 178.046 146.791L177.021 145.073ZM176.064 148.855C176.844 150.165 178.538 150.591 179.845 149.813L178.821 148.094C178.462 148.309 177.996 148.191 177.783 147.832L176.064 148.855ZM179.845 149.812L183.169 147.831L182.144 146.113L178.821 148.095L179.845 149.812ZM183.169 147.831C185.559 146.405 187.041 143.796 187.041 141.012H185.041C185.041 143.091 183.929 145.049 182.144 146.113L183.169 147.831ZM187.041 141.012V105.801H185.041V141.012H187.041ZM187.041 105.801C187.041 102.116 183.028 99.8273 179.857 101.719L180.881 103.436C182.716 102.342 185.041 103.664 185.041 105.801L187.041 105.801ZM147.389 131.664L159.375 151.903L161.096 150.884L149.11 130.645L147.389 131.664ZM145.646 128.566L147.378 131.645L149.121 130.664L147.389 127.585L145.646 128.566ZM159.4 151.943L161.335 154.885L163.006 153.786L161.071 150.844L159.4 151.943ZM100.262 164.081L105.538 156.73L103.913 155.564L98.6375 162.915L100.262 164.081Z" fill="#F69400" mask="url(#path-3-outside-1)"/>
<path d="M104.293 88.0361H148.707C152.729 88.0361 156 84.7944 156 80.8096V54.6244C156 50.6396 152.729 47.3978 148.707 47.3978H138.016V44.356C138.016 40.8601 135.146 38.0156 131.618 38.0156H121.382C117.854 38.0156 114.984 40.8599 114.984 44.356V47.3978H104.293C100.271 47.3978 97 50.6396 97 54.6244V69.049C97 70.1095 97.8674 70.9687 98.9373 70.9687C100.007 70.9687 100.875 70.1095 100.875 69.049V65.4812C102.936 67.3146 105.66 68.4314 108.642 68.4314H110.158V70.5431C110.158 71.6035 111.025 72.4628 112.095 72.4628C113.165 72.4628 114.032 71.6035 114.032 70.5431V68.4314H138.967V70.5431C138.967 71.6035 139.834 72.4628 140.904 72.4628C141.975 72.4628 142.842 71.6035 142.842 70.5431V68.4314H144.358C147.34 68.4314 150.063 67.3146 152.125 65.4812V80.8094C152.125 82.6771 150.591 84.1965 148.707 84.1965H104.293C102.408 84.1965 100.875 82.6769 100.875 80.8094V78.0235C100.875 76.9631 100.008 76.1038 98.9378 76.1038C97.8679 76.1038 97.0005 76.9631 97.0005 78.0235V80.8094C97.0005 84.7944 100.272 88.0361 104.293 88.0361ZM118.859 44.356C118.859 42.9769 119.991 41.855 121.382 41.855H131.619C133.01 41.855 134.142 42.9769 134.142 44.356V47.3978H118.86V44.356H118.859ZM144.358 64.592H142.843V62.4803C142.843 61.4199 141.975 60.5606 140.905 60.5606C139.835 60.5606 138.968 61.4199 138.968 62.4803V64.592H114.033V62.4803C114.033 61.4199 113.166 60.5606 112.096 60.5606C111.026 60.5606 110.159 61.4199 110.159 62.4803V64.592H108.642C104.36 64.592 100.875 61.1393 100.875 56.8955V54.6244C100.875 52.7566 102.409 51.2373 104.293 51.2373H148.708C150.592 51.2373 152.126 52.7569 152.126 54.6244V56.8955C152.126 61.1393 148.641 64.592 144.358 64.592Z" fill="#191613"/>
<path fill-rule="evenodd" clip-rule="evenodd" d="M119.86 44.3284V46.3974H133.142V44.3559C133.142 43.5379 132.466 42.8554 131.619 42.8554H121.382C120.544 42.8554 119.875 43.5226 119.86 44.3284ZM119.07 43.3555C119.46 42.473 120.35 41.855 121.382 41.855H131.619C133.01 41.855 134.142 42.9768 134.142 44.3559V47.3978H118.86V44.3559C118.86 44.344 118.86 44.332 118.86 44.3201C118.865 43.9777 118.939 43.6517 119.07 43.3555ZM148.707 89.0365H104.293C99.7286 89.0365 96.0005 85.3558 96.0005 80.8093V78.0234C96.0005 76.4014 97.3247 75.1033 98.9378 75.1033C100.551 75.1033 101.875 76.4014 101.875 78.0234V80.8093C101.875 82.1153 102.952 83.196 104.293 83.196H148.707C150.048 83.196 151.125 82.1155 151.125 80.8093V67.4805C149.167 68.7154 146.844 69.4317 144.358 69.4317H143.842V70.543C143.842 72.1649 142.518 73.4631 140.904 73.4631C139.291 73.4631 137.967 72.1649 137.967 70.543V69.4317H115.032V70.543C115.032 72.165 113.708 73.4631 112.095 73.4631C110.482 73.4631 109.158 72.165 109.158 70.543V69.4317H108.642C106.155 69.4317 103.832 68.7154 101.875 67.4805V69.0489C101.875 70.6709 100.55 71.969 98.9373 71.969C97.3242 71.969 96 70.6709 96 69.0489V54.6243C96 50.078 99.7281 46.3974 104.293 46.3974H113.984V44.3559C113.984 40.2984 117.311 37.0151 121.382 37.0151H131.618C135.689 37.0151 139.016 40.2987 139.016 44.3559V46.3974H148.707C153.272 46.3974 157 50.078 157 54.6243V80.8095C157 85.3558 153.272 89.0365 148.707 89.0365ZM100.875 69.0489C100.875 70.1094 100.007 70.9686 98.9373 70.9686C97.8674 70.9686 97 70.1094 97 69.0489V54.6243C97 50.6395 100.271 47.3978 104.293 47.3978H114.984V44.3559C114.984 40.8598 117.854 38.0155 121.382 38.0155H131.618C135.146 38.0155 138.016 40.86 138.016 44.3559V47.3978H148.707C152.729 47.3978 156 50.6395 156 54.6243V80.8095C156 84.7943 152.729 88.0361 148.707 88.0361H104.293C100.272 88.0361 97.0005 84.7943 97.0005 80.8093V78.0234C97.0005 76.963 97.8679 76.1037 98.9378 76.1037C100.008 76.1037 100.875 76.963 100.875 78.0234V80.8093C100.875 82.6768 102.408 84.1964 104.293 84.1964H148.707C150.591 84.1964 152.125 82.677 152.125 80.8093V65.4811C151.807 65.764 151.473 66.0297 151.125 66.277C149.217 67.6325 146.88 68.4313 144.358 68.4313H142.842V70.543C142.842 71.6034 141.975 72.4627 140.904 72.4627C139.834 72.4627 138.967 71.6034 138.967 70.543V68.4313H114.032V70.543C114.032 71.6034 113.165 72.4627 112.095 72.4627C111.025 72.4627 110.158 71.6034 110.158 70.543V68.4313H108.642C106.12 68.4313 103.783 67.6325 101.875 66.277C101.526 66.0297 101.193 65.764 100.875 65.4811V69.0489ZM143.843 63.5915H144.358C148.098 63.5915 151.126 60.5778 151.126 56.8954V54.6243C151.126 53.3182 150.049 52.2376 148.708 52.2376H104.293C102.952 52.2376 101.875 53.318 101.875 54.6243V56.8954C101.875 60.5778 104.903 63.5915 108.642 63.5915H109.159V62.4802C109.159 60.8582 110.483 59.5601 112.096 59.5601C113.709 59.5601 115.033 60.8582 115.033 62.4802V63.5915H137.968V62.4802C137.968 60.8583 139.292 59.5601 140.905 59.5601C142.519 59.5601 143.843 60.8583 143.843 62.4802V63.5915ZM144.358 64.5919C148.641 64.5919 152.126 61.1392 152.126 56.8954V54.6243C152.126 52.7568 150.592 51.2372 148.708 51.2372H104.293C102.409 51.2372 100.875 52.7566 100.875 54.6243V56.8954C100.875 61.1392 104.36 64.5919 108.642 64.5919H110.159V62.4802C110.159 61.4198 111.026 60.5605 112.096 60.5605C113.166 60.5605 114.033 61.4198 114.033 62.4802V64.5919H138.968V62.4802C138.968 61.4198 139.835 60.5605 140.905 60.5605C141.975 60.5605 142.843 61.4198 142.843 62.4802V64.5919H144.358Z" fill="#191613"/>
<path fill-rule="evenodd" clip-rule="evenodd" d="M40 38.0156C36.134 38.0156 33 41.1509 33 45.0185C33 48.8861 36.134 52.0213 40 52.0213C43.866 52.0213 47 48.8861 47 45.0185C47 41.1509 43.866 38.0156 40 38.0156ZM28 45.0185C28 38.3883 33.3726 33.0135 40 33.0135C46.6274 33.0135 52 38.3883 52 45.0185C52 51.6486 46.6274 57.0234 40 57.0234C33.3726 57.0234 28 51.6486 28 45.0185Z" fill="#F69400"/>
<path fill-rule="evenodd" clip-rule="evenodd" d="M191 80.0328C187.134 80.0328 184 83.1681 184 87.0357C184 90.9033 187.134 94.0386 191 94.0386C194.866 94.0386 198 90.9033 198 87.0357C198 83.1681 194.866 80.0328 191 80.0328ZM179 87.0357C179 80.4055 184.373 75.0308 191 75.0308C197.627 75.0308 203 80.4055 203 87.0357C203 93.6658 197.627 99.0406 191 99.0406C184.373 99.0406 179 93.6658 179 87.0357Z" fill="#191613"/>
<path fill-rule="evenodd" clip-rule="evenodd" d="M10 98.0403C11.933 98.0403 13.5 99.6079 13.5 101.542V104.543H16.5C18.433 104.543 20 106.111 20 108.044C20 109.978 18.433 111.546 16.5 111.546H13.5V114.547C13.5 116.481 11.933 118.048 10 118.048C8.067 118.048 6.5 116.481 6.5 114.547V111.546H3.5C1.567 111.546 0 109.978 0 108.044C0 106.111 1.567 104.543 3.5 104.543H6.5V101.542C6.5 99.6079 8.067 98.0403 10 98.0403Z" fill="#191613"/>
<path fill-rule="evenodd" clip-rule="evenodd" d="M170 0C171.933 0 173.5 1.56765 173.5 3.50144V6.50267H176.5C178.433 6.50267 180 8.07031 180 10.0041C180 11.9379 178.433 13.5055 176.5 13.5055H173.5V16.5068C173.5 18.4406 171.933 20.0082 170 20.0082C168.067 20.0082 166.5 18.4406 166.5 16.5068V13.5055H163.5C161.567 13.5055 160 11.9379 160 10.0041C160 8.07031 161.567 6.50267 163.5 6.50267H166.5V3.50144C166.5 1.56765 168.067 0 170 0Z" fill="#191613"/>
<path fill-rule="evenodd" clip-rule="evenodd" d="M232 38.0156C233.933 38.0156 235.5 39.5833 235.5 41.5171V44.5183H238.5C240.433 44.5183 242 46.0859 242 48.0197C242 49.9535 240.433 51.5212 238.5 51.5212H235.5V54.5224C235.5 56.4562 233.933 58.0238 232 58.0238C230.067 58.0238 228.5 56.4562 228.5 54.5224V51.5212H225.5C223.567 51.5212 222 49.9535 222 48.0197C222 46.0859 223.567 44.5183 225.5 44.5183H228.5V41.5171C228.5 39.5833 230.067 38.0156 232 38.0156Z" fill="#F69400"/>
<path d="M75 82.5338C75 85.0201 72.9853 87.0357 70.5 87.0357C68.0147 87.0357 66 85.0201 66 82.5338C66 80.0475 68.0147 78.032 70.5 78.032C72.9853 78.032 75 80.0475 75 82.5338Z" fill="#191613"/>
<path d="M84 22.5093C84 24.9956 81.9853 27.0111 79.5 27.0111C77.0147 27.0111 75 24.9956 75 22.5093C75 20.023 77.0147 18.0074 79.5 18.0074C81.9853 18.0074 84 20.023 84 22.5093Z" fill="#191613"/>
<path d="M252 150.562C252 153.048 249.985 155.064 247.5 155.064C245.015 155.064 243 153.048 243 150.562C243 148.075 245.015 146.06 247.5 146.06C249.985 146.06 252 148.075 252 150.562Z" fill="#E3A649"/>
</svg>
