<svg width="40" height="40" viewBox="0 0 40 40" fill="none" xmlns="http://www.w3.org/2000/svg">
<path fill-rule="evenodd" clip-rule="evenodd" d="M20.0001 5.00008C11.7158 5.00008 5.00008 11.7158 5.00008 20.0001C5.00008 28.2844 11.7158 35.0001 20.0001 35.0001C28.2844 35.0001 35.0001 28.2844 35.0001 20.0001C35.0001 11.7158 28.2844 5.00008 20.0001 5.00008ZM1.66675 20.0001C1.66675 9.87486 9.87486 1.66675 20.0001 1.66675C30.1253 1.66675 38.3334 9.87486 38.3334 20.0001C38.3334 30.1253 30.1253 38.3334 20.0001 38.3334C9.87486 38.3334 1.66675 30.1253 1.66675 20.0001Z" fill="#25282B"/>
<path fill-rule="evenodd" clip-rule="evenodd" d="M28.2452 11.7548C28.6915 12.2012 28.8474 12.8615 28.6478 13.4604L25.1145 24.0604C24.9486 24.558 24.558 24.9486 24.0604 25.1145L13.4604 28.6478C12.8615 28.8474 12.2012 28.6915 11.7548 28.2452C11.3084 27.7988 11.1525 27.1385 11.3522 26.5396L14.8855 15.9396C15.0514 15.4419 15.4419 15.0514 15.9396 14.8855L26.5396 11.3522C27.1385 11.1525 27.7988 11.3084 28.2452 11.7548ZM17.7843 17.7843L15.5685 24.4314L22.2157 22.2157L24.4314 15.5685L17.7843 17.7843Z" fill="#25282B"/>
</svg>
