<svg width="556" height="687" viewBox="0 0 556 687" fill="none" xmlns="http://www.w3.org/2000/svg">
<path d="M81.2155 460.394L80.3547 458.899L183.09 399.727L183.953 401.222L81.2155 460.394Z" fill="#191613"/>
<path d="M85.9931 462.887L85.1323 461.393L187.868 402.224L188.731 403.718L85.9931 462.887Z" fill="#191613"/>
<path d="M90.256 465.555L89.3953 464.06L192.13 404.891L192.991 406.385L90.256 465.555Z" fill="#191613"/>
<path d="M95.0473 468.007L94.1865 466.513L196.919 407.341L197.783 408.835L95.0473 468.007Z" fill="#191613"/>
<path d="M98.9998 470.756L98.1362 469.262L200.872 410.09L201.735 411.585L98.9998 470.756Z" fill="#191613"/>
<path d="M103.698 473.258L102.838 471.764L205.573 412.592L206.434 414.089L103.698 473.258Z" fill="#191613"/>
<path d="M107.962 475.928L107.098 474.434L209.836 415.262L210.697 416.757L107.962 475.928Z" fill="#191613"/>
<path d="M112.753 478.378L111.892 476.884L214.624 417.715L215.488 419.209L112.753 478.378Z" fill="#191613"/>
<path d="M117.016 481.046L116.152 479.551L218.89 420.382L219.751 421.877L117.016 481.046Z" fill="#191613"/>
<path d="M27.2681 576.171L2.11007 561.74C2.09645 561.73 2.09645 561.708 2.11007 561.7L39.1254 540.414C39.1335 540.411 39.1417 540.411 39.1472 540.414L64.3052 554.846C64.3216 554.853 64.3188 554.876 64.3052 554.884L27.2899 576.171C27.2845 576.176 27.2736 576.176 27.2681 576.171Z" fill="#F5F5F5"/>
<path d="M4.38477 561.719L27.282 574.853L62.0338 554.865L39.1338 541.731L4.38477 561.719ZM27.2466 577.523L26.6746 577.153L0.960791 562.402L0.949951 561.077L1.5083 560.723L39.1692 539.063L39.7848 539.458L65.4549 554.182L65.4658 555.507L64.9074 555.863L27.2466 577.523Z" fill="#191613"/>
<path d="M27.2791 576.19V583.272C27.2791 583.291 27.2981 583.302 27.3144 583.294L64.3271 562.007C64.3352 562.005 64.3407 561.997 64.3407 561.988V554.906C64.3407 554.886 64.3216 554.876 64.3052 554.884L27.29 576.171C27.2845 576.176 27.2791 576.181 27.2791 576.19Z" fill="#191613"/>
<path d="M28.4286 576.843V581.328L63.1912 561.338V556.851L28.4286 576.843ZM27.3118 584.619L26.1405 583.955L26.1296 583.274V575.577L26.6526 575.215L64.308 553.558L65.4793 554.222L65.4902 554.906V562.655L64.8991 563.007L27.3118 584.619Z" fill="#191613"/>
<path d="M2.07739 561.759V568.842C2.07739 568.851 2.08013 568.859 2.0883 568.861L27.2437 583.294C27.2601 583.302 27.2792 583.291 27.2792 583.272V576.19C27.2792 576.181 27.2737 576.176 27.2683 576.171L2.11011 561.74C2.09649 561.73 2.07739 561.74 2.07739 561.759Z" fill="#E5E5E5"/>
<path d="M3.22695 568.191L26.1297 581.332V576.84L3.22695 563.703V568.191ZM27.2738 584.619L26.6745 584.293L0.938885 569.526L0.927979 568.842V561.084L2.1183 560.407L2.71489 560.761L28.4178 575.506L28.4287 576.192V583.936L27.2738 584.619Z" fill="#191613"/>
<path d="M287.969 229.869L251.155 208.213C251.139 208.202 251.139 208.18 251.155 208.172L287.98 187.397C287.985 187.394 287.996 187.394 288.002 187.397L324.815 209.054C324.832 209.065 324.832 209.086 324.815 209.094L287.991 229.869C287.983 229.872 287.975 229.872 287.969 229.869Z" fill="#F5F5F5"/>
<path d="M253.424 208.213L287.991 228.549L322.549 209.054L287.977 188.717L253.424 208.213ZM288.026 231.168L287.383 230.857L250.006 208.869L249.995 207.524L250.586 207.175L288.029 186.05L288.642 186.442L325.965 208.398L325.978 209.691L325.453 210.05L288.026 231.168Z" fill="#191613"/>
<path d="M287.98 229.888L287.975 398.927C287.975 398.946 287.994 398.957 288.007 398.946L324.832 378.174C324.84 378.169 324.846 378.161 324.846 378.152L324.851 209.113C324.851 209.097 324.832 209.086 324.816 209.094L287.991 229.869C287.983 229.872 287.98 229.88 287.98 229.888Z" fill="#191613"/>
<path d="M289.13 230.544L289.124 397L323.693 377.496L323.702 211.043L289.13 230.544ZM288.024 400.258L286.839 399.635L286.825 398.927L286.831 229.273L287.354 228.911L324.826 207.769L325.99 208.433L326 209.114L325.992 378.863L325.347 379.2L288.024 400.258Z" fill="#191613"/>
<path d="M251.12 208.232L251.114 377.27C251.114 377.279 251.12 377.287 251.125 377.29L287.939 398.946C287.955 398.957 287.974 398.946 287.974 398.927L287.98 229.888C287.98 229.88 287.974 229.872 287.969 229.869L251.155 208.213C251.139 208.202 251.12 208.213 251.12 208.232Z" fill="#E5E5E5"/>
<path d="M252.264 376.628L286.825 396.956L286.83 230.531L252.269 210.2L252.264 376.628ZM287.898 400.283L287.302 399.902L249.976 377.946L249.965 377.27L249.97 207.57L251.125 206.887L251.724 207.214L289.116 229.21L289.129 229.888L289.124 399.616L287.898 400.283Z" fill="#191613"/>
<path d="M126.201 425.015L120.451 421.697C119.339 421.055 117.386 421.055 116.269 421.697L112.162 424.068L110.666 421.482L114.774 419.111C116.817 417.93 119.9 417.935 121.946 419.111L127.696 422.429L126.201 425.015Z" fill="#191613"/>
<path d="M167.321 455.891L165.826 453.305L169.933 450.937C170.244 450.757 170.35 450.6 170.367 450.559C170.339 450.583 170.247 450.428 169.933 450.248L164.183 446.927L165.682 444.344L171.429 447.662C172.652 448.367 173.352 449.434 173.352 450.591C173.352 451.748 172.652 452.818 171.429 453.52L167.321 455.891Z" fill="#191613"/>
<path d="M88.2024 485.964L85.9307 484.021C86.184 483.724 92.0378 476.631 85.2551 468.636L87.5378 466.706C95.9929 476.677 88.2814 485.872 88.2024 485.964Z" fill="#191613"/>
<path d="M98.899 489.111L97.4036 486.525L143.152 460.132C143.511 459.925 143.549 459.58 143.549 459.441C143.549 459.302 143.506 458.956 143.144 458.749L111.723 440.988L113.197 438.389L144.617 456.153C145.816 456.83 146.532 458.055 146.538 459.427C146.546 460.802 145.838 462.032 144.647 462.718L98.899 489.111Z" fill="#191613"/>
<path d="M143.539 452.921C141.289 448.512 143.462 444.573 145.767 442.251L130.671 433.543C121.769 437.362 112.494 435.097 112.094 434.994L112.824 432.098C112.916 432.122 121.995 434.322 130.121 430.514L130.829 430.181L151.163 441.913L149.196 443.258C148.976 443.405 143.857 446.971 146.2 451.566L143.539 452.921Z" fill="#191613"/>
<path d="M120.818 458.738L119.083 459.74C116.839 461.033 112.922 460.873 110.331 459.378L100.942 453.959C98.3516 452.464 98.071 450.205 100.313 448.912L102.048 447.91C104.292 446.614 108.209 446.778 110.8 448.272L120.189 453.689C122.78 455.183 123.06 457.445 120.818 458.738Z" fill="#F5F5F5"/>
<path d="M105.837 448.523C104.679 448.523 103.59 448.743 102.797 449.201L101.059 450.205C100.83 450.338 100.294 450.69 100.294 451.103C100.294 451.452 100.661 452.072 101.688 452.666L111.08 458.085C113.213 459.316 116.536 459.482 118.337 458.445L120.069 457.446C120.301 457.312 120.837 456.958 120.837 456.547C120.837 456.196 120.473 455.578 119.44 454.982L110.051 449.565C108.86 448.879 107.297 448.523 105.837 448.523ZM115.273 462.1C113.295 462.1 111.228 461.619 109.585 460.669L100.193 455.252C98.3598 454.193 97.3057 452.679 97.3057 451.106C97.3057 449.699 98.1064 448.46 99.5637 447.616L101.302 446.615C103.998 445.06 108.495 445.221 111.549 446.979L120.938 452.396C122.774 453.458 123.828 454.969 123.828 456.545C123.828 457.952 123.025 459.19 121.565 460.032V460.034L119.83 461.036C118.585 461.752 116.961 462.1 115.273 462.1Z" fill="#191613"/>
<path d="M70.6084 510.585L33.7946 488.929C33.781 488.921 33.781 488.896 33.7946 488.888L127.119 435.201C127.127 435.198 127.135 435.198 127.141 435.201L163.954 456.858C163.971 456.869 163.971 456.89 163.954 456.899L70.6302 510.585C70.6247 510.591 70.6166 510.591 70.6084 510.585Z" fill="#F5F5F5"/>
<path d="M36.0476 488.918L70.6304 509.265L161.705 456.869L127.125 436.524L36.0476 488.918ZM70.5869 511.935L70.0094 511.565L32.6454 489.585L32.6345 488.24L33.2257 487.892L126.757 434.11L127.119 433.99L127.727 434.21L165.104 456.202L165.118 457.546L164.527 457.897L70.5869 511.935Z" fill="#191613"/>
<path d="M70.6194 510.604V597.685C70.6194 597.701 70.6384 597.713 70.6548 597.704L163.979 544.018C163.984 544.012 163.99 544.007 163.99 543.998V456.918C163.99 456.901 163.971 456.89 163.954 456.899L70.6302 510.585C70.6248 510.591 70.6194 510.596 70.6194 510.604Z" fill="#191613"/>
<path d="M71.7688 511.258V595.736L162.84 543.345V458.867L71.7688 511.258ZM70.6519 599.03L69.4806 598.366L69.4697 597.685V509.992L69.9928 509.63L163.957 455.573L165.128 456.237L165.139 456.918V544.611L164.616 544.973L70.6519 599.03Z" fill="#191613"/>
<path d="M33.7593 488.948V576.026C33.7593 576.037 33.7647 576.042 33.7729 576.048L70.5866 597.704C70.6002 597.713 70.6193 597.701 70.6193 597.685V510.604C70.6193 510.596 70.6166 510.591 70.6084 510.585L33.7947 488.929C33.781 488.921 33.7593 488.932 33.7593 488.948Z" fill="#E5E5E5"/>
<path d="M34.9116 575.386L69.4698 595.715V511.247L34.9116 490.916V575.386ZM70.6139 599.03L70.0146 598.703L32.6208 576.704L32.6099 576.026V488.286L33.7675 487.6L34.3668 487.93L71.7579 509.929L71.7688 510.607V598.347L70.6139 599.03Z" fill="#191613"/>
<path d="M89.9593 446.492L78.0612 439.627C78.0475 439.619 78.0475 439.597 78.0639 439.589L91.0624 432.111C91.0706 432.109 91.0788 432.109 91.0869 432.111L102.982 438.976C102.999 438.985 102.999 439.006 102.982 439.015L89.981 446.492C89.9756 446.495 89.9647 446.495 89.9593 446.492Z" fill="#F5F5F5"/>
<path d="M80.3303 439.611L89.973 445.175L100.713 438.993L91.0708 433.429L80.3303 439.611ZM89.9376 447.842L89.3628 447.475L76.9118 440.291L76.9009 438.966L77.4593 438.609L91.1089 430.761L91.7245 431.156L104.132 438.31L104.143 439.663L103.555 440.014L89.9376 447.842Z" fill="#191613"/>
<path d="M89.9702 446.511V481.19C89.9702 481.206 89.9893 481.217 90.0057 481.209L103.007 473.734C103.012 473.729 103.018 473.721 103.018 473.713V439.036C103.018 439.017 102.999 439.006 102.982 439.015L89.9811 446.492C89.9757 446.495 89.9702 446.503 89.9702 446.511Z" fill="#191613"/>
<path d="M91.1195 447.162V479.241L101.865 473.062V440.983L91.1195 447.162ZM90.0028 482.537L88.8315 481.873L88.8206 481.19V445.896L89.3436 445.534L102.985 437.689L104.153 438.353L104.167 439.036V474.328L103.644 474.69L90.0028 482.537Z" fill="#191613"/>
<path d="M78.0286 439.649V474.325C78.0286 474.333 78.0313 474.341 78.0395 474.347L89.9349 481.209C89.9512 481.217 89.9703 481.206 89.9703 481.19V446.511C89.9703 446.503 89.9649 446.495 89.9594 446.492L78.0612 439.627C78.0476 439.619 78.0286 439.63 78.0286 439.649Z" fill="#E5E5E5"/>
<path d="M79.1779 473.674L88.8206 479.238V447.156L79.1779 441.598V473.674ZM89.9646 482.537L89.3654 482.208L77.5871 475.411L76.8897 475.212L76.8789 474.328V438.987L78.0339 438.301L78.6331 438.631L91.1087 445.825L91.1196 446.511V481.851L89.9646 482.537Z" fill="#191613"/>
<path d="M164.812 419.721L96.314 380.202C96.2977 380.194 96.2977 380.169 96.314 380.161L189.638 326.474C189.646 326.472 189.654 326.472 189.66 326.474L258.158 365.996C258.175 366.004 258.175 366.026 258.158 366.034L164.834 419.721C164.829 419.726 164.821 419.726 164.812 419.721Z" fill="#F5F5F5"/>
<path d="M98.5805 380.183L164.823 418.403L255.892 366.015L189.647 327.795L98.5805 380.183ZM164.837 420.935L164.238 420.717L95.1647 380.866L95.1538 379.516L95.7449 379.165L189.6 325.17L190.175 325.448L259.311 365.332L259.322 366.682L258.73 367.033L165.199 420.812L164.837 420.935Z" fill="#191613"/>
<path d="M164.823 419.743V631.335C164.823 631.352 164.843 631.362 164.859 631.355L258.183 577.668C258.189 577.662 258.194 577.657 258.194 577.648V366.056C258.194 366.037 258.175 366.026 258.159 366.034L164.834 419.721C164.829 419.726 164.823 419.734 164.823 419.743Z" fill="#191613"/>
<path d="M165.976 420.393V629.387L257.044 576.998V368.002L165.976 420.393ZM164.856 632.679L163.685 632.016L163.674 631.336V418.915L164.352 418.676L258.161 364.708L259.332 365.373L259.343 366.056V578.263L258.82 578.623L164.856 632.679Z" fill="#191613"/>
<path d="M96.2788 380.221V591.814C96.2788 591.822 96.2843 591.83 96.2924 591.833L164.791 631.355C164.804 631.362 164.823 631.352 164.823 631.335V419.743C164.823 419.734 164.821 419.726 164.813 419.721L96.3142 380.202C96.2978 380.194 96.2788 380.205 96.2788 380.221Z" fill="#E5E5E5"/>
<path d="M97.4284 591.168L163.674 629.383V420.39L97.4284 382.17V591.168ZM164.818 632.679L164.219 632.353L95.1402 592.5L95.1294 591.814V379.56L96.2871 378.877L96.8863 379.206L165.287 418.67L165.962 418.893L165.976 419.743V631.997L164.818 632.679Z" fill="#191613"/>
<path d="M177.247 555.276L108.749 515.757C108.735 515.749 108.735 515.727 108.749 515.716L154.156 489.566C154.162 489.56 154.17 489.56 154.178 489.566L222.677 529.084C222.69 529.095 222.69 529.117 222.677 529.125L177.272 555.276C177.263 555.281 177.255 555.281 177.247 555.276Z" fill="#F5F5F5"/>
<path d="M111.018 515.738L177.261 553.958L220.41 529.103L154.165 490.883L111.018 515.738ZM177.225 556.629L176.653 556.261L107.599 516.421L107.588 515.069L108.179 514.72L154.2 488.213L154.816 488.608L223.826 528.42L223.837 529.77L223.246 530.124L177.225 556.629Z" fill="#191613"/>
<path d="M177.261 555.298V642.376C177.261 642.395 177.28 642.405 177.293 642.398L222.698 616.244C222.707 616.239 222.712 616.233 222.712 616.225V529.144C222.712 529.128 222.69 529.117 222.677 529.125L177.272 555.276C177.263 555.281 177.261 555.289 177.261 555.298Z" fill="#191613"/>
<path d="M178.407 555.949V640.427L221.562 615.574V531.093L178.407 555.949ZM177.293 643.721L176.119 643.056L176.108 642.376V554.682L176.631 554.323L222.677 527.799L223.851 528.464L223.861 529.144V616.841L223.338 617.2L177.293 643.721Z" fill="#191613"/>
<path d="M108.716 515.776V602.857C108.716 602.866 108.719 602.871 108.727 602.876L177.225 642.395C177.242 642.406 177.261 642.395 177.261 642.376V555.298C177.261 555.29 177.255 555.281 177.247 555.276L108.749 515.757C108.735 515.749 108.716 515.76 108.716 515.776Z" fill="#E5E5E5"/>
<path d="M109.866 602.21L176.109 640.425V555.945L109.866 517.725V602.21ZM177.253 643.721L176.656 643.394L107.578 603.541L107.567 602.857V515.115L108.722 514.429L109.321 514.758L178.397 554.614L178.408 555.298V643.037L177.253 643.721Z" fill="#191613"/>
<path d="M102.394 685.536L177.247 642.454C177.256 642.452 177.261 642.444 177.261 642.435V555.39C177.261 555.371 177.242 555.361 177.226 555.371L102.383 598.804C102.378 598.809 102.372 598.814 102.372 598.821L90.5232 665.382C90.5232 665.388 90.5232 665.393 90.5259 665.399L102.361 685.529C102.37 685.539 102.383 685.542 102.394 685.536Z" fill="#191613"/>
<path d="M91.7243 665.184L102.786 683.983L176.109 641.786V557.347L103.391 599.547L91.7243 665.184ZM102.557 686.778L101.571 686.5L101.334 686.043L89.3763 665.709L89.3735 665.382L101.359 597.949L101.898 597.757L177.225 554.04L178.397 554.707L178.408 555.391V643.051L177.885 643.412L102.557 686.778Z" fill="#191613"/>
<path d="M102.339 685.525L33.7485 645.953C33.743 645.949 33.7375 645.942 33.7375 645.934V628.706C33.7375 628.687 33.7567 628.676 33.773 628.684L102.361 668.258C102.369 668.263 102.375 668.27 102.375 668.279V685.506C102.375 685.525 102.353 685.536 102.339 685.525Z" fill="#E5E5E5"/>
<path d="M34.8871 645.288L101.225 683.557V668.924L34.8871 630.655V645.288ZM102.478 686.824L101.762 686.522L32.599 646.619L32.5881 645.934V628.031L33.7785 627.35L34.375 627.704L103.513 667.593L103.524 668.276V686.127L102.478 686.824Z" fill="#191613"/>
<path d="M102.361 668.186L33.773 628.613C33.7567 628.605 33.7567 628.584 33.773 628.575L48.7027 619.959C48.7109 619.957 48.7191 619.957 48.7273 619.959L117.315 659.533C117.332 659.54 117.332 659.563 117.315 659.573L102.386 668.186C102.377 668.191 102.369 668.191 102.361 668.186Z" fill="#F5F5F5"/>
<path d="M36.0365 628.594L102.378 666.869L115.057 659.549L48.7109 621.28L36.0365 628.594ZM102.342 669.539L101.767 669.172L32.6208 629.277L32.6099 627.952L33.1682 627.595L48.7 618.637L49.2966 618.964L118.43 658.849L118.517 660.196L117.887 660.57L102.342 669.539Z" fill="#191613"/>
<path d="M117.315 659.476L48.7273 619.903C48.7191 619.9 48.7136 619.892 48.7136 619.884V602.653C48.7136 602.637 48.7327 602.625 48.7491 602.634L117.34 642.207C117.345 642.212 117.351 642.218 117.351 642.226V659.457C117.351 659.472 117.332 659.484 117.315 659.476Z" fill="#E5E5E5"/>
<path d="M49.8632 619.23L116.201 657.505V642.874L49.8632 604.605V619.23ZM117.343 660.802L116.741 660.469L47.5778 620.566L47.5642 619.884V601.992L48.7219 601.308L49.3184 601.636L118.49 641.543L118.5 642.226V660.118L117.343 660.802Z" fill="#191613"/>
<path d="M147.295 590.036L78.7042 550.463C78.6878 550.452 78.6878 550.43 78.7042 550.423L93.634 541.807C93.6421 541.805 93.6503 541.805 93.6584 541.807L162.249 581.381C162.263 581.388 162.263 581.413 162.249 581.421L147.317 590.036C147.309 590.039 147.301 590.039 147.295 590.036Z" fill="#F5F5F5"/>
<path d="M80.9674 550.442L147.308 588.716L159.983 581.402L93.6445 543.127L80.9674 550.442ZM147.273 591.386L146.698 591.02L77.5544 551.128L77.5435 549.799L78.0991 549.442L93.68 540.458L94.2956 540.852L163.399 580.719L163.41 582.069L162.819 582.417L147.273 591.386Z" fill="#191613"/>
<path d="M162.249 581.323L93.6581 541.751C93.65 541.747 93.6472 541.739 93.6472 541.731V524.5C93.6472 524.484 93.6663 524.473 93.6799 524.481L162.271 564.054C162.279 564.06 162.282 564.065 162.282 564.073V581.304C162.282 581.323 162.263 581.334 162.249 581.323Z" fill="#E5E5E5"/>
<path d="M94.797 541.083L161.133 579.352V564.721L94.797 526.452V541.083ZM162.277 582.649L161.675 582.316L92.509 542.414L92.498 541.731V523.839L93.653 523.156L94.2522 523.482L163.421 563.391L163.432 564.076V581.965L162.277 582.649Z" fill="#191613"/>
<path d="M162.271 563.984L93.6799 524.411C93.6663 524.402 93.6663 524.381 93.6799 524.373L108.612 515.757C108.621 515.752 108.629 515.752 108.634 515.757L177.225 555.33C177.242 555.339 177.242 555.361 177.225 555.371L162.293 563.984C162.287 563.989 162.279 563.989 162.271 563.984Z" fill="#F5F5F5"/>
<path d="M95.9438 524.392L162.285 562.666L174.962 555.349L108.621 517.075L95.9438 524.392ZM162.252 565.337L161.677 564.969L92.5307 525.077L92.5198 523.725L93.1108 523.373L108.656 514.404L109.272 514.799L178.375 554.666L178.386 556.017L177.795 556.368L162.252 565.337Z" fill="#191613"/>
<path d="M117.34 642.137L48.7491 602.564C48.7327 602.555 48.7327 602.533 48.7491 602.525L63.6815 593.91C63.687 593.904 63.6952 593.904 63.7033 593.91L132.294 633.483C132.308 633.491 132.308 633.513 132.294 633.52L117.362 642.137C117.356 642.142 117.345 642.142 117.34 642.137Z" fill="#F5F5F5"/>
<path d="M51.0156 602.544L117.354 640.819L130.031 633.502L63.69 595.227L51.0156 602.544ZM117.319 643.489L116.744 643.122L47.5998 603.227L47.5862 601.877L48.18 601.526L63.7254 592.557L64.341 592.951L133.444 632.819L133.455 634.169L132.864 634.52L117.319 643.489Z" fill="#191613"/>
<path d="M132.295 633.426L63.7035 593.853C63.6954 593.847 63.6926 593.841 63.6926 593.834V576.603C63.6926 576.586 63.7117 576.573 63.7281 576.584L132.316 616.157C132.325 616.16 132.327 616.167 132.327 616.176V633.407C132.327 633.423 132.308 633.433 132.295 633.426Z" fill="#E5E5E5"/>
<path d="M64.8419 593.185L131.178 631.454V616.823L64.8419 578.554V593.185ZM132.322 634.752L131.72 634.419L62.5539 594.517L62.543 593.834V575.942L63.6979 575.258L64.2972 575.584L133.466 615.493L133.476 616.176V634.068L132.322 634.752Z" fill="#191613"/>
<path d="M132.316 616.087L63.7281 576.513C63.7117 576.505 63.7117 576.483 63.7281 576.472L78.6578 567.858C78.666 567.854 78.6742 567.854 78.6824 567.858L147.271 607.431C147.287 607.441 147.287 607.463 147.271 607.471L132.341 616.087C132.333 616.089 132.325 616.089 132.316 616.087Z" fill="#F5F5F5"/>
<path d="M65.9913 576.491L132.33 614.766L145.007 607.452L78.6685 569.177L65.9913 576.491ZM132.294 617.436L131.72 617.069L62.5783 577.177L62.5647 575.825L63.1558 575.476L78.7012 566.507L79.3195 566.902L148.42 606.769L148.431 608.118L147.84 608.47L132.294 617.436Z" fill="#191613"/>
<path d="M147.271 607.376L78.6823 567.802C78.6742 567.797 78.6687 567.79 78.6687 567.781V550.553C78.6687 550.534 78.6878 550.523 78.7041 550.531L147.295 590.104C147.3 590.11 147.306 590.118 147.306 590.126V607.354C147.306 607.373 147.287 607.384 147.271 607.376Z" fill="#E5E5E5"/>
<path d="M79.8207 567.135L146.156 605.405V590.771L79.8207 552.503V567.135ZM147.412 608.671L146.696 608.369L77.5299 568.467L77.519 567.781V549.878L78.7094 549.198L79.3059 549.554L148.444 589.44L148.455 590.126V607.975L147.412 608.671Z" fill="#191613"/>
<path d="M297.634 398.859L229.135 359.34C229.119 359.332 229.119 359.31 229.135 359.3L274.54 333.149C274.546 333.143 274.557 333.143 274.562 333.149L343.06 372.667C343.077 372.676 343.077 372.7 343.06 372.708L297.655 398.859C297.647 398.864 297.639 398.864 297.634 398.859Z" fill="#F5F5F5"/>
<path d="M231.401 359.321L297.647 397.542L340.794 372.687L274.548 334.466L231.401 359.321ZM297.609 400.212L297.037 399.844L227.986 360.005L227.972 358.654L228.563 358.303L274.584 331.796L275.199 332.191L344.21 372.006L344.221 373.356L343.63 373.705L297.609 400.212Z" fill="#191613"/>
<path d="M297.645 398.881V572.923C297.645 572.939 297.664 572.95 297.677 572.942L343.082 546.788C343.09 546.786 343.096 546.778 343.096 546.769V372.727C343.096 372.711 343.077 372.7 343.06 372.708L297.655 398.859C297.647 398.865 297.645 398.873 297.645 398.881Z" fill="#191613"/>
<path d="M298.794 399.531V570.976L341.944 546.118V374.676L298.794 399.531ZM297.696 574.257L296.508 573.63L296.495 572.92V398.266L297.018 397.906L343.063 371.38L344.232 372.047L344.245 372.727V547.385L343.72 547.746L297.696 574.257Z" fill="#191613"/>
<path d="M229.1 359.359V446.44C229.1 446.449 229.105 446.454 229.111 446.459L297.609 572.942C297.625 572.95 297.644 572.939 297.644 572.923V398.881C297.644 398.873 297.639 398.865 297.631 398.859L229.135 359.34C229.119 359.332 229.1 359.343 229.1 359.359Z" fill="#E5E5E5"/>
<path d="M230.249 446.146L296.495 568.467V399.529L230.249 361.311V446.146ZM297.636 574.267L296.754 573.778L296.598 573.489L228.274 447.325L227.961 447.167L227.95 446.44V358.698L229.108 358.015L229.704 358.344L298.783 398.198L298.794 398.881V573.585L297.636 574.267Z" fill="#191613"/>
<path d="M222.758 616.092L297.634 573.002C297.639 572.999 297.644 572.991 297.644 572.983V398.973C297.644 398.954 297.625 398.943 297.609 398.954L222.767 442.387C222.764 442.393 222.758 442.398 222.756 442.404L210.907 508.966C210.907 508.971 222.35 476.846 222.35 476.851L222.758 616.092Z" fill="#191613"/>
<path d="M222.287 475.689C222.369 475.689 222.453 475.702 222.546 475.719L223.497 475.885L223.9 614.108L296.495 572.332V400.931L223.783 443.128L214.453 495.59C215.142 493.652 215.856 491.651 216.551 489.707C219.212 482.235 220.468 478.708 221.2 477.066L221.296 476.854C221.756 475.877 221.999 475.689 222.287 475.689ZM221.614 618.076L221.22 483.447C220.481 485.521 219.615 487.952 218.714 490.478C214.745 501.622 213.034 506.426 212.154 508.506L212.037 509.167L211.876 509.137C211.43 510.085 211.253 510.095 210.975 510.112L209.518 510.202L221.688 441.848L222.192 441.394L297.609 397.623L298.783 398.29L298.794 398.973V573.599L298.271 573.957L221.614 618.076Z" fill="#191613"/>
<path d="M222.723 529.109L154.132 489.536C154.127 489.533 154.121 489.525 154.121 489.517V472.289C154.121 472.27 154.14 472.259 154.157 472.267L222.745 511.84C222.753 511.846 222.759 511.854 222.759 511.862V529.09C222.759 529.109 222.74 529.12 222.723 529.109Z" fill="#E5E5E5"/>
<path d="M155.271 488.871L221.606 527.141V512.507L155.271 474.238V488.871ZM222.862 530.407L222.148 530.105L152.983 490.203L152.972 489.517V471.597L154.197 470.93L154.794 471.312L223.894 511.176L223.905 511.859V529.71L222.862 530.407Z" fill="#191613"/>
<path d="M222.745 511.769L154.157 472.196C154.14 472.188 154.14 472.166 154.157 472.158L169.086 463.543C169.095 463.54 169.103 463.54 169.111 463.543L237.699 503.116C237.716 503.124 237.716 503.146 237.699 503.157L222.769 511.769C222.761 511.775 222.753 511.775 222.745 511.769Z" fill="#F5F5F5"/>
<path d="M156.417 472.18L222.758 510.452L235.441 503.132L169.094 464.86L156.417 472.18ZM222.728 513.122L222.154 512.755L153.004 472.86L152.996 471.562L153.516 471.2L169.048 462.239L169.626 462.517L238.81 502.433L238.898 503.78L238.268 504.153L222.728 513.122Z" fill="#191613"/>
<path d="M237.699 503.059L169.111 463.486C169.103 463.483 169.1 463.475 169.1 463.467V446.236C169.1 446.22 169.119 446.209 169.133 446.217L237.724 485.79C237.729 485.796 237.734 485.801 237.734 485.809V503.04C237.734 503.056 237.715 503.067 237.699 503.059Z" fill="#E5E5E5"/>
<path d="M170.247 462.816L236.585 501.088V486.457L170.247 448.188V462.816ZM237.729 504.384L237.124 504.052L167.961 464.15L167.948 463.467V445.575L169.105 444.891L169.705 445.218L238.873 485.126L238.884 485.809V503.701L237.729 504.384Z" fill="#191613"/>
<path d="M267.679 433.619L199.088 394.046C199.074 394.035 199.074 394.014 199.088 394.006L214.02 385.39C214.026 385.388 214.034 385.388 214.042 385.39L282.633 424.963C282.646 424.972 282.646 424.996 282.633 425.004L267.7 433.619C267.695 433.622 267.684 433.622 267.679 433.619Z" fill="#F5F5F5"/>
<path d="M201.349 394.027L267.69 432.299L280.367 424.985L214.028 386.708L201.349 394.027ZM267.66 434.97L267.085 434.602L197.938 394.711L197.927 393.41L198.45 393.048L213.979 384.087L214.557 384.364L283.78 424.302L283.793 425.652L283.202 426.001L267.66 434.97Z" fill="#191613"/>
<path d="M282.633 424.906L214.042 385.333C214.034 385.33 214.031 385.322 214.031 385.314V368.084C214.031 368.067 214.05 368.056 214.066 368.065L282.655 407.638C282.663 407.643 282.665 407.648 282.665 407.657V424.887C282.665 424.904 282.646 424.917 282.633 424.906Z" fill="#E5E5E5"/>
<path d="M215.18 384.664L281.516 422.936V408.305L215.18 370.033V384.664ZM282.66 426.232L282.055 425.9L212.892 385.997L212.879 385.314V367.422L214.036 366.739L214.636 367.068L283.807 406.973L283.818 407.659V425.549L282.66 426.232Z" fill="#191613"/>
<path d="M282.655 407.567L214.066 367.994C214.05 367.986 214.05 367.964 214.066 367.956L228.996 359.34C229.004 359.335 229.013 359.335 229.021 359.34L297.609 398.914C297.625 398.922 297.625 398.943 297.609 398.954L282.679 407.567C282.671 407.572 282.663 407.572 282.655 407.567Z" fill="#F5F5F5"/>
<path d="M216.33 367.975L282.668 406.249L295.345 398.933L229.007 360.658L216.33 367.975ZM282.635 408.92L282.061 408.552L212.933 368.669L212.884 367.319L213.494 366.957L229.04 357.988L229.658 358.385L298.758 398.249L298.772 399.6L298.181 399.951L282.635 408.92Z" fill="#191613"/>
<path d="M237.723 485.719L169.133 446.146C169.119 446.138 169.119 446.116 169.133 446.108L184.065 437.493C184.071 437.488 184.081 437.488 184.087 437.493L252.678 477.066C252.691 477.074 252.691 477.096 252.678 477.104L237.745 485.719C237.74 485.725 237.729 485.725 237.723 485.719Z" fill="#F5F5F5"/>
<path d="M171.399 446.127L237.737 484.402L250.414 477.085L184.073 438.81L171.399 446.127ZM237.705 487.072L237.13 486.705L167.983 446.811L167.972 445.46L168.563 445.109L184.109 436.14L184.727 436.535L253.827 476.402L253.838 477.752L253.247 478.103L237.705 487.072Z" fill="#191613"/>
<path d="M252.678 477.009L184.087 437.436C184.082 437.43 184.076 437.425 184.076 437.417V420.186C184.076 420.17 184.095 420.156 184.112 420.167L252.7 459.74C252.708 459.743 252.713 459.751 252.713 459.759V476.99C252.713 477.006 252.692 477.017 252.678 477.009Z" fill="#E5E5E5"/>
<path d="M185.226 436.769L251.561 475.038V460.407L185.226 422.138V436.769ZM252.705 478.334L252.103 478.002L182.938 438.1L182.927 437.414V419.525L184.084 418.841L184.681 419.168L253.849 459.076L253.863 459.759V477.651L252.705 478.334Z" fill="#191613"/>
<path d="M252.7 459.669L184.111 420.096C184.095 420.088 184.095 420.064 184.111 420.056L199.041 411.44C199.049 411.437 199.058 411.437 199.066 411.44L267.654 451.013C267.67 451.024 267.67 451.046 267.654 451.054L252.724 459.669C252.716 459.672 252.708 459.672 252.7 459.669Z" fill="#F5F5F5"/>
<path d="M186.375 420.075L252.713 458.349L265.39 451.035L199.052 412.761L186.375 420.075ZM252.681 461.02L252.106 460.652L182.962 420.761L182.948 419.408L183.539 419.059L199.085 410.09L199.703 410.485L268.803 450.352L268.814 451.702L268.226 452.053L252.681 461.02Z" fill="#191613"/>
<path d="M267.654 450.959L199.066 411.386C199.058 411.38 199.052 411.372 199.052 411.364V394.136C199.052 394.117 199.074 394.106 199.088 394.114L267.679 433.688C267.684 433.693 267.69 433.701 267.69 433.709V450.937C267.69 450.956 267.67 450.967 267.654 450.959Z" fill="#E5E5E5"/>
<path d="M200.204 410.719L266.537 448.988V434.354L200.204 396.085V410.719ZM267.793 452.255L267.079 451.952L197.913 412.05L197.903 411.364V393.445L199.128 392.778L199.725 393.159L268.828 433.023L268.839 433.709V451.558L267.793 452.255Z" fill="#191613"/>
<path d="M418.243 242.442L349.748 202.923C349.731 202.915 349.731 202.894 349.748 202.883L429.43 156.924C429.436 156.921 429.447 156.921 429.452 156.924L497.951 196.445C497.967 196.453 497.967 196.475 497.951 196.483L418.268 242.442C418.26 242.448 418.251 242.448 418.243 242.442Z" fill="#F5F5F5"/>
<path d="M352.011 202.905L418.257 241.125L495.687 196.462L429.439 158.244L352.011 202.905ZM418.227 243.795L417.652 243.428L348.595 203.588L348.584 202.238L349.176 201.887L429.471 155.571L430.089 155.968L499.081 195.77L499.133 197.12L498.52 197.482L418.227 243.795Z" fill="#191613"/>
<path d="M418.257 242.464V503.266C418.257 503.282 418.276 503.293 418.29 503.285L497.972 457.326C497.98 457.32 497.986 457.312 497.986 457.304V196.505C497.986 196.486 497.967 196.475 497.951 196.483L418.268 242.442C418.26 242.448 418.257 242.456 418.257 242.464Z" fill="#191613"/>
<path d="M419.403 243.115V501.317L496.836 456.653V198.454L419.403 243.115ZM418.289 504.613L417.115 503.946L417.104 503.266V241.754L417.756 241.416L497.953 195.158L499.124 195.822L499.135 196.505V458.014L498.487 458.352L418.289 504.613Z" fill="#191613"/>
<path d="M349.712 202.943V290.024C349.712 290.032 349.717 290.037 349.723 290.043L418.221 503.285C418.238 503.293 418.257 503.282 418.257 503.266V242.464C418.257 242.456 418.251 242.448 418.243 242.442L349.748 202.924C349.731 202.915 349.712 202.926 349.712 202.943Z" fill="#E5E5E5"/>
<path d="M350.861 289.828L417.104 496.052V243.112L350.861 204.894V289.828ZM418.249 504.613L417.262 504.063L417.129 503.636L348.75 290.778L348.573 290.658L348.562 290.023V202.281L349.718 201.598L350.317 201.927L419.392 241.781L419.403 242.464V503.927L418.249 504.613Z" fill="#191613"/>
<path d="M343.371 546.434L418.246 503.345C418.251 503.339 418.257 503.334 418.257 503.326V242.557C418.257 242.538 418.238 242.527 418.222 242.537L343.379 285.97C343.376 285.976 343.371 285.981 343.368 285.987L343.071 337.85C343.074 337.855 343.368 346.639 343.371 346.645V546.434Z" fill="#191613"/>
<path d="M344.512 346.405L344.52 346.645V544.448L417.105 502.672V244.511L344.512 286.643L344.207 337.855C344.24 338.334 344.278 339.434 344.37 342.208C344.43 344.015 344.49 345.823 344.512 346.405ZM342.221 548.425L342.235 346.645C342.202 346.171 342.167 345.077 342.072 342.287C342.012 340.479 341.952 338.672 341.93 338.089L341.919 338.068L341.922 337.842L342.221 285.581L342.802 284.98L418.221 241.206L419.393 241.873L419.404 242.557V504.033L418.758 504.371L342.221 548.425Z" fill="#191613"/>
<path d="M343.335 372.692L274.744 333.119C274.739 333.116 274.733 333.108 274.733 333.1V315.872C274.733 315.853 274.753 315.842 274.769 315.85L343.357 355.423C343.365 355.429 343.371 355.437 343.371 355.445V372.673C343.371 372.692 343.352 372.703 343.335 372.692Z" fill="#E5E5E5"/>
<path d="M275.883 332.452L342.221 370.724V356.093L275.883 317.821V332.452ZM343.363 374.018L342.761 373.688L273.598 333.783L273.584 333.1V315.211L274.739 314.527L275.338 314.854L344.509 354.762L344.52 355.442V373.334L343.363 374.018Z" fill="#191613"/>
<path d="M343.357 355.353L274.769 315.78C274.753 315.771 274.753 315.75 274.769 315.741L289.699 307.126C289.707 307.123 289.715 307.123 289.723 307.126L358.312 346.699C358.328 346.707 358.328 346.729 358.312 346.74L343.382 355.353C343.374 355.358 343.365 355.358 343.357 355.353Z" fill="#F5F5F5"/>
<path d="M277.035 315.76L343.374 354.035L356.051 346.718L289.71 308.446L277.035 315.76ZM343.338 356.705L342.763 356.338L273.6 316.433L273.625 315.039L274.254 314.712L289.663 305.822L290.238 306.097L359.464 346.035L359.475 347.385L358.884 347.736L343.338 356.705Z" fill="#191613"/>
<path d="M358.312 346.642L289.723 307.069C289.715 307.066 289.712 307.058 289.712 307.05V289.819C289.712 289.803 289.732 289.792 289.745 289.8L358.336 329.373C358.341 329.376 358.347 329.384 358.347 329.392V346.623C358.347 346.639 358.328 346.65 358.312 346.642Z" fill="#E5E5E5"/>
<path d="M290.862 306.402L357.198 344.671V330.04L290.862 291.771V306.402ZM358.339 347.968L357.74 347.638L288.574 307.733L288.563 307.05V289.158L289.718 288.475L290.317 288.801L359.486 328.709L359.497 329.392V347.284L358.339 347.968Z" fill="#191613"/>
<path d="M388.291 277.203L319.7 237.63C319.683 237.619 319.683 237.597 319.7 237.589L334.632 228.974C334.638 228.971 334.646 228.971 334.654 228.974L403.245 268.547C403.259 268.555 403.259 268.579 403.245 268.587L388.313 277.203C388.307 277.205 388.296 277.205 388.291 277.203Z" fill="#F5F5F5"/>
<path d="M321.966 237.608L388.304 275.883L400.982 268.568L334.64 230.294L321.966 237.608ZM388.272 278.553L387.694 278.185L318.55 238.291L318.539 236.941L319.131 236.593L334.594 227.67L335.169 227.945L404.395 267.885L404.405 269.233L403.814 269.584L388.272 278.553Z" fill="#191613"/>
<path d="M403.245 268.489L334.654 228.916C334.646 228.914 334.643 228.905 334.643 228.897V211.667C334.643 211.65 334.662 211.64 334.679 211.648L403.267 251.221C403.275 251.226 403.278 251.232 403.278 251.24V268.47C403.278 268.487 403.259 268.5 403.245 268.489Z" fill="#E5E5E5"/>
<path d="M335.793 228.249L402.128 266.519V251.888L335.793 213.618V228.249ZM403.273 269.815L402.671 269.486L333.505 229.58L333.494 228.897V211.005L334.652 210.322L335.248 210.651L404.417 250.557L404.427 251.242V269.132L403.273 269.815Z" fill="#191613"/>
<path d="M403.267 251.15L334.679 211.577C334.662 211.569 334.662 211.547 334.679 211.539L349.609 202.924C349.617 202.918 349.625 202.918 349.63 202.924L418.221 242.497C418.238 242.505 418.238 242.527 418.221 242.537L403.292 251.15C403.283 251.155 403.275 251.155 403.267 251.15Z" fill="#F5F5F5"/>
<path d="M336.94 211.558L403.281 249.832L415.958 242.516L349.617 204.241L336.94 211.558ZM403.248 252.503L402.673 252.133L333.546 212.252L333.497 210.902L334.107 210.54L349.652 201.571L350.268 201.968L419.371 241.832L419.382 243.183L418.791 243.534L403.248 252.503Z" fill="#191613"/>
<path d="M358.336 329.303L289.745 289.73C289.731 289.721 289.731 289.7 289.745 289.691L304.678 281.076C304.683 281.071 304.694 281.071 304.699 281.076L373.29 320.649C373.304 320.657 373.304 320.679 373.29 320.687L358.358 329.303C358.352 329.308 358.341 329.308 358.336 329.303Z" fill="#F5F5F5"/>
<path d="M292.008 289.71L358.35 327.985L371.027 320.668L304.686 282.394L292.008 289.71ZM358.314 330.655L357.739 330.285L288.614 290.405L288.565 289.054L289.176 288.692L304.718 279.723L305.337 280.121L374.44 319.985L374.451 321.335L373.86 321.686L358.314 330.655Z" fill="#191613"/>
<path d="M373.29 320.592L304.699 281.019C304.694 281.013 304.688 281.008 304.688 281V263.769C304.688 263.753 304.708 263.739 304.724 263.75L373.312 303.323C373.32 303.326 373.323 303.334 373.323 303.342V320.573C373.323 320.589 373.304 320.6 373.29 320.592Z" fill="#E5E5E5"/>
<path d="M305.838 280.352L372.174 318.621V303.99L305.838 265.719V280.352ZM373.318 321.918L372.716 321.588L303.55 281.683L303.539 280.997V263.103L304.705 262.422L305.301 262.757L374.462 302.659L374.473 303.343V321.235L373.318 321.918Z" fill="#191613"/>
<path d="M373.312 303.253L304.724 263.68C304.708 263.671 304.708 263.647 304.724 263.639L319.654 255.024C319.662 255.021 319.67 255.021 319.678 255.024L388.266 294.597C388.283 294.607 388.283 294.629 388.266 294.637L373.337 303.253C373.329 303.255 373.32 303.255 373.312 303.253Z" fill="#F5F5F5"/>
<path d="M306.985 263.661L373.34 301.943L386.003 294.618L319.662 256.344L306.985 263.661ZM373.443 304.518L372.738 304.249L303.572 264.344L303.564 263.045L304.084 262.683L319.616 253.722L320.193 253.997L389.416 293.935L389.427 295.285L388.836 295.634L373.443 304.518Z" fill="#191613"/>
<path d="M388.267 294.542L319.678 254.969C319.67 254.964 319.665 254.955 319.665 254.947V237.719C319.665 237.7 319.684 237.689 319.7 237.698L388.291 277.271C388.297 277.276 388.302 277.284 388.302 277.292V294.52C388.302 294.539 388.283 294.55 388.267 294.542Z" fill="#E5E5E5"/>
<path d="M320.814 254.316L387.152 292.571V277.94L320.814 239.668V254.316ZM388.297 295.865L387.692 295.536L318.529 255.63L318.515 254.947V237.058L319.673 236.375L320.272 236.701L389.44 276.609L389.451 277.292V295.182L388.297 295.865Z" fill="#191613"/>
<path d="M441.789 339.167L415.247 323.853L444.246 307.178L470.791 322.492L441.789 339.167Z" fill="#F5F5F5"/>
<path d="M417.548 323.856L441.789 337.842L468.486 322.489L444.246 308.504L417.548 323.856ZM441.789 340.493L412.945 323.853L444.246 305.852L473.089 322.492L441.789 340.493Z" fill="#191613"/>
<path d="M441.789 339.167V372.91L470.79 356.232V322.492L441.789 339.167Z" fill="#191613"/>
<path d="M442.941 339.831V370.923L469.638 355.568V324.479L442.941 339.831ZM440.639 374.897V338.503L471.937 320.505V356.896L440.639 374.897Z" fill="#191613"/>
<path d="M415.247 323.853V357.596L441.789 372.91V339.167L415.247 323.853Z" fill="#E5E5E5"/>
<path d="M416.396 356.931L440.639 370.92V339.831L416.396 325.846V356.931ZM442.941 374.9L414.097 358.257V321.863L442.941 338.506V374.9Z" fill="#191613"/>
<path d="M442.222 373.658L441.358 372.161L469.927 355.734V322.492H471.651V356.73L442.222 373.658Z" fill="#E5E5E5"/>
<path d="M509.426 178.983L520.047 172.126C520.142 172.064 520.161 171.933 520.09 171.849L506.602 155.489C506.501 155.367 506.305 155.416 506.272 155.568L504.123 165.523C504.12 165.531 504.12 165.539 504.117 165.547L503.603 172.38C503.6 172.429 503.616 172.478 503.649 172.516L509.181 178.948C509.241 179.019 509.347 179.035 509.426 178.983Z" fill="#191613"/>
<path d="M504.779 172.069L509.505 177.562L518.516 171.745L506.977 157.751L505.245 165.765L504.779 172.069ZM509.325 180.162C508.944 180.162 508.571 180.001 508.307 179.696L502.477 172.919L502.456 172.328L502.971 165.463L505.3 154.624L506.141 154.308C506.642 154.185 507.174 154.368 507.495 154.768L521.305 171.514L521.267 172.17C521.21 172.546 520.995 172.878 520.676 173.087L510.056 179.944C509.829 180.091 509.576 180.162 509.325 180.162Z" fill="#191613"/>
<path d="M549.656 129.548L498.961 100.3C497.692 99.5676 496.54 99.4559 495.652 99.8343L485.737 105.768C485.584 105.858 485.554 106.065 485.674 106.193L497.52 118.712C497.569 118.763 497.596 118.829 497.596 118.899V139.579C497.596 142.875 499.934 146.92 502.788 148.567L510.347 152.928C510.532 153.189 510.693 153.415 510.878 153.676C511.254 155.859 513.341 164.989 522.629 171.326C522.994 171.574 523.237 171.214 522.997 170.76C521.777 168.443 519.478 163.405 520.18 159.442C520.567 159.276 520.627 159.251 521.014 159.082L536.655 168.106C536.709 168.139 536.75 168.188 536.775 168.247L543.301 185.66C543.361 185.815 543.546 185.884 543.693 185.799L553.502 179.901C554.336 179.34 554.848 178.256 554.848 176.729V138.536C554.848 135.24 552.513 131.198 549.656 129.548Z" fill="#F5F5F5"/>
<path d="M521.036 157.825L521.591 158.089L537.584 167.317L537.851 167.839L544.009 184.269L552.911 178.915C553.401 178.583 553.698 177.796 553.698 176.729V138.536C553.698 135.651 551.585 131.99 549.081 130.544L498.386 101.296C497.501 100.784 496.692 100.64 496.104 100.893L487.262 106.196L498.672 118.254L498.746 118.899V139.579C498.746 142.467 500.86 146.128 503.363 147.571L511.284 152.261L512.011 153.48C512.278 155.032 513.855 162.343 520.567 168.269C519.469 165.574 518.524 162.185 519.047 159.24L519.156 158.633L521.036 157.825ZM543.552 186.983C543.388 186.983 543.225 186.956 543.069 186.899L542.571 186.719L542.225 186.06L535.808 168.944L521.21 160.522C521.014 164.075 523.065 168.422 524.013 170.224C524.394 170.942 524.294 171.74 523.765 172.211C523.28 172.646 522.564 172.671 521.981 172.276C512.733 165.964 510.35 157.101 509.791 154.134L509.554 153.796L502.214 149.563C498.977 147.693 496.447 143.311 496.447 139.579V119.248L484.84 106.982C484.538 106.664 484.399 106.231 484.467 105.793C484.533 105.36 484.789 104.987 485.173 104.769L495.063 98.8489C496.469 98.2365 498.008 98.4243 499.536 99.3062L550.233 128.555C553.467 130.422 556 134.807 556 138.536V176.729C556 178.583 555.341 180.048 554.148 180.853L544.284 186.785C544.053 186.918 543.799 186.983 543.552 186.983Z" fill="#191613"/>
<path d="M539.703 135.686L488.872 106.359C486.08 104.747 483.816 106.054 483.816 109.277V147.628C483.816 150.848 486.08 154.768 488.872 156.379L496.692 160.89C496.885 161.001 497.046 161.252 497.084 161.491C497.427 163.533 499.454 172.804 508.851 179.217C509.214 179.465 509.456 179.106 509.216 178.648C507.953 176.253 505.536 170.937 506.484 166.919C506.531 166.728 506.71 166.671 506.904 166.783L539.703 185.707C542.497 187.318 544.761 186.011 544.761 182.788V144.438C544.761 141.217 542.497 137.298 539.703 135.686Z" fill="#E5E5E5"/>
<path d="M506.716 165.577C506.972 165.577 507.236 165.648 507.476 165.787L540.28 184.71C541.242 185.268 542.13 185.399 542.702 185.064C543.279 184.732 543.609 183.902 543.609 182.789V144.438C543.609 141.637 541.558 138.082 539.131 136.683L488.297 107.355C487.335 106.797 486.45 106.667 485.87 107.001C485.295 107.334 484.965 108.164 484.965 109.277V147.628C484.965 150.429 487.019 153.981 489.449 155.383L497.267 159.896C497.757 160.177 498.122 160.716 498.22 161.301C498.479 162.858 500.029 170.199 506.784 176.16C505.621 173.31 504.646 169.709 505.368 166.658L505.501 166.094L506.163 165.692C506.34 165.615 506.525 165.577 506.716 165.577ZM541.963 187.55C541.07 187.55 540.106 187.266 539.131 186.7L507.432 168.414C507.228 171.958 509.266 176.28 510.235 178.112C510.614 178.831 510.513 179.631 509.985 180.102C509.5 180.535 508.783 180.559 508.201 180.167C498.552 173.583 496.357 163.977 495.973 161.802L488.297 157.376C485.14 155.552 482.667 151.273 482.667 147.628V109.277C482.667 107.29 483.397 105.777 484.72 105.012C486.047 104.241 487.725 104.369 489.449 105.366L540.28 134.69C543.437 136.514 545.908 140.796 545.908 144.438V182.789C545.908 184.776 545.18 186.292 543.851 187.057C543.282 187.386 542.642 187.55 541.963 187.55Z" fill="#191613"/>
<path d="M542.598 137.238L541.405 135.273L550.261 129.894L551.456 131.856L542.598 137.238Z" fill="#191613"/>
<path d="M495.194 110.061L493.998 108.096L502.854 102.717L504.049 104.682L495.194 110.061Z" fill="#191613"/>
<path d="M545.374 147.639L544.146 145.698L553.908 139.527L555.139 141.468L545.374 147.639Z" fill="#191613"/>
<path d="M554.848 145.799L544.761 151.907V185.16L554.524 179.813L554.848 177.429V145.799Z" fill="#191613"/>
<path d="M514.283 151.224L517.448 153.05L518.279 135.188L513.45 132.404L514.283 151.224ZM518.508 154.991L513.161 151.904L512.21 130.362L519.459 134.543L518.508 154.991ZM514.131 156.232C514.008 156.232 513.902 156.257 513.817 156.3C513.507 156.464 513.335 157.03 513.335 157.895C513.335 158.873 513.58 159.779 514.06 160.593C514.542 161.41 515.234 162.079 516.119 162.594C516.642 162.896 517.361 163.206 517.781 162.961C518.206 162.724 518.293 161.992 518.293 161.42C518.293 160.427 518.053 159.518 517.579 158.718C517.094 157.901 516.43 157.253 515.544 156.741C514.964 156.406 514.477 156.232 514.131 156.232ZM517.424 164.197C516.876 164.197 516.247 163.993 515.544 163.59C514.485 162.975 513.651 162.164 513.068 161.178C512.483 160.185 512.186 159.08 512.186 157.895C512.186 156.545 512.554 155.666 513.278 155.285C513.995 154.901 514.926 155.059 516.119 155.748C517.168 156.352 517.99 157.152 518.568 158.132C519.151 159.115 519.445 160.22 519.445 161.42C519.445 162.7 519.075 163.555 518.347 163.963C518.072 164.118 517.764 164.197 517.424 164.197Z" fill="#F5F5F5"/>
<path d="M514.926 150.614L510.668 148.159L509.778 127.975L515.814 131.456L514.926 150.614ZM509.707 154.49C509.707 153.361 509.971 152.661 510.494 152.386C511.017 152.111 511.78 152.261 512.779 152.838C513.744 153.396 514.493 154.123 515.021 155.018C515.55 155.914 515.814 156.913 515.814 158.013C515.814 159.071 515.547 159.755 515.013 160.057C514.476 160.359 513.733 160.234 512.779 159.684C511.802 159.12 511.047 158.385 510.51 157.479C509.977 156.573 509.707 155.576 509.707 154.49Z" fill="#191613"/>
<path d="M493.715 481.764L468.557 467.335C468.543 467.324 468.543 467.302 468.557 467.294L505.572 446.008C505.58 446.005 505.588 446.005 505.594 446.008L530.752 460.44C530.766 460.448 530.766 460.47 530.752 460.478L493.737 481.764C493.731 481.77 493.72 481.77 493.715 481.764Z" fill="#F5F5F5"/>
<path d="M470.831 467.313L493.728 480.447L528.486 460.456L505.58 447.325L470.831 467.313ZM493.693 483.115L493.118 482.747L467.41 467.999L467.396 466.649L467.987 466.295L505.616 444.657L506.231 445.052L531.863 459.754L531.95 461.101L531.321 461.477L493.693 483.115Z" fill="#191613"/>
<path d="M493.726 481.783V488.866C493.726 488.885 493.745 488.896 493.761 488.888L530.774 467.602C530.782 467.599 530.787 467.591 530.787 467.582V460.5C530.787 460.481 530.768 460.47 530.752 460.478L493.736 481.764C493.731 481.77 493.726 481.775 493.726 481.783Z" fill="#191613"/>
<path d="M494.875 482.434V486.923L529.638 466.929V462.443L494.875 482.434ZM493.78 490.203L492.59 489.577L492.576 488.866V481.168L493.099 480.809L530.752 459.152L531.926 459.816L531.937 460.5V468.195L531.414 468.557L493.78 490.203Z" fill="#191613"/>
<path d="M468.524 467.354V474.437C468.524 474.445 468.526 474.453 468.535 474.456L493.69 488.888C493.706 488.896 493.725 488.885 493.725 488.866V481.783C493.725 481.775 493.72 481.77 493.715 481.764L468.556 467.335C468.543 467.324 468.524 467.335 468.524 467.354Z" fill="#E5E5E5"/>
<path d="M469.673 473.789L492.576 486.923V482.434L469.673 469.297V473.789ZM493.649 490.224L493.055 489.843L467.382 475.123L467.372 474.437V466.692L468.529 466.009L469.129 466.336L494.864 481.1L494.875 481.783V489.555L493.649 490.224Z" fill="#191613"/>
<path d="M33.1956 573.201L21.3003 566.338C21.2866 566.33 21.2866 566.305 21.3003 566.298L34.3015 558.823C34.3097 558.817 34.3178 558.817 34.326 558.823L46.2214 565.685C46.235 565.693 46.235 565.715 46.2214 565.726L33.2201 573.201C33.212 573.206 33.2038 573.206 33.1956 573.201Z" fill="#F5F5F5"/>
<path d="M23.569 566.319L33.2117 571.885L43.9548 565.701L34.3095 560.137L23.569 566.319ZM33.1736 574.553L32.6016 574.186L20.1506 567.003L20.1396 565.674L20.6981 565.32L34.3476 557.47L34.9605 557.865L47.3706 565.021L47.3815 566.371L46.7904 566.722L33.1736 574.553Z" fill="#191613"/>
<path d="M33.209 573.222V591.803C33.209 591.822 33.228 591.833 33.2416 591.822L46.2429 584.347C46.2511 584.342 46.2538 584.333 46.2538 584.326V565.745C46.2538 565.726 46.2348 565.715 46.2211 565.726L33.2199 573.201C33.2117 573.206 33.209 573.214 33.209 573.222Z" fill="#191613"/>
<path d="M34.3586 573.873V589.856L45.1044 583.675V567.691L34.3586 573.873ZM33.2417 593.15L32.0705 592.486L32.0569 591.803V572.607L32.5826 572.245L46.224 564.398L47.3953 565.061L47.4061 565.745V584.941L46.8832 585.303L33.2417 593.15Z" fill="#191613"/>
<path d="M21.2646 566.357V584.941C21.2646 584.949 21.2701 584.954 21.2783 584.96L33.1736 591.822C33.19 591.833 33.2091 591.819 33.2091 591.803V573.222C33.2091 573.214 33.2036 573.206 33.1955 573.201L21.3001 566.338C21.2838 566.329 21.2646 566.341 21.2646 566.357Z" fill="#E5E5E5"/>
<path d="M22.4172 584.29L32.0572 589.854V573.867L22.4145 568.306L22.4172 584.29ZM33.2013 593.15L32.602 592.824L20.1291 585.624L20.1182 584.939L20.1155 565.685L21.3059 565.005L21.9024 565.358L34.348 572.536L34.3589 573.222V592.464L33.2013 593.15Z" fill="#191613"/>
<path d="M373.31 608.865V661.114C373.323 661.125 373.329 661.125 373.342 661.136L512.728 578.999V526.738C512.728 526.719 512.709 526.708 512.692 526.716L373.32 608.846C373.315 608.854 373.312 608.859 373.31 608.865Z" fill="#191613"/>
<path d="M374.459 609.507V659.144L511.578 578.345V528.706L374.459 609.507ZM373.356 662.459L372.19 661.8L372.16 661.117L372.364 608.209L372.511 607.988L372.737 607.855L512.69 525.385L513.866 526.055L513.877 526.738V579.657L513.311 579.989L373.356 662.459Z" fill="#191613"/>
<path d="M326.845 581.742V633.316L373.274 661.133C373.288 661.125 373.293 661.119 373.309 661.112V608.861C373.304 608.856 373.301 608.851 373.298 608.846L326.845 581.742Z" fill="#E5E5E5"/>
<path d="M327.994 632.667L372.16 659.127V609.512L327.994 583.745V632.667ZM373.394 662.377L372.683 662.119L325.695 633.967V579.741L374.11 608.034L374.445 608.369L374.459 608.861V661.699L373.394 662.377Z" fill="#191613"/>
<path d="M294.008 599.947V652.198C294.008 652.217 294.027 652.227 294.044 652.217L326.831 634.014C326.839 634.009 326.845 634 326.845 633.992V581.742C326.845 581.726 326.826 581.715 326.809 581.723L294.019 599.928C294.014 599.931 294.008 599.939 294.008 599.947Z" fill="#191613"/>
<path d="M295.157 600.608V650.285L325.695 633.33V583.656L295.157 600.608ZM294.03 653.539L292.869 652.88L292.858 652.197V599.332L293.381 598.97L326.823 580.4L327.983 581.062L327.994 581.742V634.607L327.471 634.969L294.03 653.539Z" fill="#191613"/>
<path d="M225.463 560.428V647.499C225.463 647.509 225.474 647.52 225.485 647.52L293.983 652.234C293.997 652.234 294.008 652.227 294.008 652.213V599.947C294.008 599.939 294.005 599.931 293.997 599.928L225.499 560.407C225.482 560.398 225.463 560.409 225.463 560.428Z" fill="#E5E5E5"/>
<path d="M226.616 646.45L292.859 651.007V600.595L226.616 562.377V646.45ZM293.984 653.384L224.336 648.593L224.314 647.499V559.767L225.472 559.081L226.068 559.411L295.147 599.264L295.158 599.947V653.359L293.984 653.384Z" fill="#191613"/>
<path d="M249.219 678.069L294.101 652.273C294.109 652.271 294.112 652.262 294.112 652.254V600.026C294.112 600.013 294.098 600.002 294.084 600.004L243.052 612.493C243.038 612.496 243.033 612.512 243.035 612.524L253.182 639.041C253.182 639.044 253.185 639.046 253.185 639.052L249.186 678.048C249.183 678.067 249.202 678.081 249.219 678.069Z" fill="#191613"/>
<path d="M244.55 613.313L254.334 639.052L250.551 675.979L292.962 651.603V601.461L244.55 613.313ZM249.161 679.385L248.045 678.71L248.034 678.048L252.013 639.191L241.791 612.482L242.248 611.472L242.864 611.36L294.327 598.764L295.253 599.42L295.261 600.029V652.869L294.738 653.231L249.161 679.385Z" fill="#191613"/>
<path d="M264.146 634.684L195.557 595.11C195.541 595.103 195.541 595.08 195.557 595.069L210.487 586.457C210.495 586.451 210.504 586.451 210.512 586.457L279.1 626.03C279.116 626.038 279.116 626.059 279.1 626.068L264.17 634.684C264.162 634.689 264.154 634.689 264.146 634.684Z" fill="#F5F5F5"/>
<path d="M197.821 595.091L264.159 633.365L276.836 626.049L210.498 587.774L197.821 595.091ZM264.17 635.897L263.571 635.679L194.408 595.774L194.397 594.424L194.985 594.073L210.531 585.104L211.149 585.499L280.249 625.366L280.263 626.715L279.672 627.067L264.17 635.897Z" fill="#191613"/>
<path d="M279.1 625.972L210.512 586.399C210.504 586.394 210.498 586.386 210.498 586.378V569.151C210.498 569.131 210.517 569.12 210.533 569.131L279.125 608.704C279.13 608.706 279.135 608.715 279.135 608.723V625.951C279.135 625.97 279.116 625.981 279.1 625.972Z" fill="#E5E5E5"/>
<path d="M211.65 585.733L277.986 624.002V609.374L211.65 571.102V585.733ZM279.127 627.298L278.525 626.966L209.362 587.064L209.349 586.38V568.486L210.506 567.805L211.103 568.132L279.598 607.65L280.274 607.877L280.285 608.723V626.615L279.127 627.298Z" fill="#191613"/>
<path d="M397.471 459.672L210.534 569.02C210.534 569.039 210.534 569.041 210.534 569.06L279.125 608.633C279.133 608.633 279.138 608.633 279.146 608.633L326.711 581.78L373.299 608.846C373.307 608.846 373.312 608.846 373.321 608.846L512.692 526.716C512.709 526.708 512.709 526.686 512.692 526.678L397.471 459.672Z" fill="#F5F5F5"/>
<path d="M326.72 580.458L373.304 607.523L510.45 526.703L397.47 461.003L212.786 569.032L279.141 607.316L326.72 580.458ZM373.636 609.994H373.01L372.718 609.839L326.703 583.106L279.449 609.782H278.838L278.55 609.627L209.384 569.725V568.399L209.951 568.026L397.468 458.341L398.048 458.679L513.842 526.017L513.853 527.364L513.264 527.715L373.636 609.994Z" fill="#191613"/>
<path d="M249.145 678.073L180.557 638.5C180.548 638.497 180.543 638.488 180.543 638.481V621.253C180.543 621.234 180.562 621.223 180.578 621.231L249.169 660.804C249.175 660.809 249.18 660.818 249.18 660.826V678.054C249.18 678.073 249.161 678.083 249.145 678.073Z" fill="#E5E5E5"/>
<path d="M181.695 637.83L248.028 676.101V661.47L181.695 623.201V637.83ZM249.172 679.398L248.57 679.066L180.083 639.552L179.404 639.327L179.394 638.481V620.561L180.619 619.894L181.216 620.275L250.319 660.14L250.33 660.823V678.715L249.172 679.398Z" fill="#191613"/>
<path d="M249.17 660.733L180.579 621.16C180.562 621.152 180.562 621.13 180.579 621.122L195.511 612.506C195.517 612.501 195.525 612.501 195.533 612.506L264.124 652.079C264.137 652.088 264.137 652.11 264.124 652.121L249.191 660.733C249.186 660.739 249.175 660.739 249.17 660.733Z" fill="#F5F5F5"/>
<path d="M182.839 621.144L249.18 659.416L261.858 652.098L195.522 613.824L182.839 621.144ZM249.15 662.086L248.576 661.718L179.429 621.824L179.418 620.526L179.941 620.163L195.508 611.292L196.108 611.51L265.271 651.416L265.284 652.766L264.693 653.117L249.15 662.086Z" fill="#191613"/>
<path d="M264.124 652.023L195.533 612.449C195.525 612.447 195.522 612.439 195.522 612.431V595.2C195.522 595.183 195.541 595.173 195.557 595.181L264.146 634.754C264.154 634.757 264.157 634.765 264.157 634.773V652.004C264.157 652.02 264.137 652.03 264.124 652.023Z" fill="#E5E5E5"/>
<path d="M196.672 611.782L263.007 650.052V635.421L196.672 597.151V611.782ZM264.151 653.348L263.547 653.016L194.384 613.114L194.37 612.431V594.539L195.528 593.855L196.127 594.182L265.298 634.089L265.309 634.773V652.665L264.151 653.348Z" fill="#191613"/>
<path d="M279.1 608.636L210.512 569.063C210.495 569.052 210.495 569.03 210.512 569.022L225.442 560.407C225.45 560.404 225.458 560.404 225.466 560.407L294.054 599.98C294.071 599.991 294.071 600.013 294.054 600.021L279.125 608.636C279.116 608.638 279.108 608.638 279.1 608.636Z" fill="#F5F5F5"/>
<path d="M212.778 569.041L279.114 607.316L291.791 600.002L225.452 561.727L212.778 569.041ZM279.081 609.986L278.506 609.619L209.324 569.702L209.392 568.266L210.057 567.966L225.485 559.057L226.103 559.451L295.204 599.315L295.215 600.669L294.626 601.02L279.081 609.986Z" fill="#191613"/>
<path d="M392.625 453.741L355.811 432.084C355.794 432.076 355.794 432.054 355.811 432.046L411.575 400.168C411.58 400.163 411.591 400.163 411.597 400.168L448.41 421.825C448.427 421.833 448.427 421.855 448.41 421.866L392.646 453.741C392.641 453.746 392.63 453.746 392.625 453.741Z" fill="#F5F5F5"/>
<path d="M358.066 432.079L392.646 452.421L446.155 421.833L411.575 401.486L358.066 432.079ZM392.6 455.094L392.025 454.724L354.662 432.743L354.651 431.398L355.242 431.047L411.537 398.865L412.114 399.139L449.56 421.169L449.571 422.511L448.98 422.865L392.6 455.094Z" fill="#191613"/>
<path d="M392.636 453.763V540.841C392.636 540.859 392.655 540.871 392.671 540.863L448.435 508.985C448.441 508.979 448.446 508.971 448.446 508.963V421.885C448.446 421.866 448.427 421.855 448.411 421.866L392.647 453.741C392.641 453.746 392.636 453.754 392.636 453.763Z" fill="#191613"/>
<path d="M393.785 454.416V538.9L447.297 508.31V423.815L393.785 454.416ZM392.666 542.189L391.497 541.524L391.486 540.841V453.148L392.009 452.785L448.454 420.516L449.587 421.245L449.595 421.885V509.578L449.073 509.94L392.666 542.189Z" fill="#191613"/>
<path d="M355.776 432.106V519.184C355.776 519.192 355.781 519.201 355.787 519.203L392.6 540.863C392.617 540.871 392.636 540.859 392.636 540.841V453.763C392.636 453.754 392.63 453.746 392.625 453.741L355.811 432.084C355.795 432.076 355.776 432.087 355.776 432.106Z" fill="#E5E5E5"/>
<path d="M356.925 518.539L391.486 538.873V454.402L356.925 434.074V518.539ZM392.63 542.189L392.031 541.859L355.31 520.257L354.637 520.031L354.626 519.184V431.445L355.781 430.759L356.383 431.088L393.774 453.085L393.785 453.763V541.503L392.63 542.189Z" fill="#191613"/>
<path d="M449.309 482.578H447.583V424.912H449.309V482.578Z" fill="#E5E5E5"/>
<path d="M326.281 618.106L314.383 611.241C314.369 611.233 314.369 611.211 314.383 611.203L327.384 603.726C327.392 603.723 327.4 603.723 327.409 603.726L339.304 610.59C339.32 610.599 339.32 610.62 339.304 610.629L326.303 618.106C326.294 618.109 326.286 618.109 326.281 618.106Z" fill="#F5F5F5"/>
<path d="M316.652 611.224L326.295 616.789L337.035 610.607L327.395 605.043L316.652 611.224ZM326.259 619.456L325.685 619.088L313.234 611.908L313.223 610.555L313.814 610.203L327.431 602.375L328.046 602.77L340.454 609.926L340.465 611.276L339.873 611.627L326.259 619.456Z" fill="#191613"/>
<path d="M326.292 618.125V648.204C326.292 648.223 326.311 648.233 326.325 648.226L339.326 640.748C339.334 640.745 339.34 640.737 339.34 640.729V610.65C339.34 610.631 339.32 610.62 339.304 610.629L326.303 618.106C326.295 618.109 326.292 618.116 326.292 618.125Z" fill="#191613"/>
<path d="M327.441 618.776V646.255L338.19 640.076V612.597L327.441 618.776ZM326.324 649.551L325.153 648.884L325.142 648.207V617.51L325.665 617.148L339.307 609.303L340.478 609.967L340.489 610.65V641.437L339.841 641.777L326.324 649.551Z" fill="#191613"/>
<path d="M314.35 611.262V641.341C314.35 641.349 314.353 641.358 314.361 641.36L326.256 648.226C326.273 648.233 326.292 648.223 326.292 648.204V618.125C326.292 618.116 326.286 618.109 326.281 618.106L314.383 611.241C314.369 611.232 314.35 611.243 314.35 611.262Z" fill="#E5E5E5"/>
<path d="M315.5 640.694L325.142 646.255V618.77L315.5 613.211V640.694ZM326.286 649.551L325.684 649.221L313.212 642.025L313.201 641.341V610.601L314.356 609.915L314.952 610.245L327.43 617.441L327.441 618.125V648.868L326.286 649.551Z" fill="#191613"/>
<path d="M497.313 401.306L485.415 394.441C485.401 394.433 485.401 394.411 485.415 394.403L498.416 386.925C498.424 386.923 498.433 386.923 498.441 386.925L510.336 393.791C510.352 393.799 510.352 393.82 510.336 393.829L497.335 401.306C497.329 401.309 497.318 401.309 497.313 401.306Z" fill="#F5F5F5"/>
<path d="M487.684 394.425L497.327 399.989L508.073 393.807L498.427 388.243L487.684 394.425ZM497.289 402.656L496.717 402.289L484.268 395.105L484.255 393.755L484.846 393.404L498.463 385.575L499.078 385.97L511.488 393.124L511.499 394.425L510.976 394.787L497.289 402.656Z" fill="#191613"/>
<path d="M497.324 401.325V465.897C497.324 465.914 497.343 465.925 497.359 465.916L510.361 458.439C510.366 458.436 510.372 458.428 510.372 458.42V393.848C510.372 393.831 510.353 393.82 510.336 393.829L497.335 401.306C497.329 401.309 497.324 401.317 497.324 401.325Z" fill="#191613"/>
<path d="M498.474 401.976V463.951L509.222 457.767V395.794L498.474 401.976ZM497.379 467.231L496.188 466.605L496.175 465.895V400.71L496.698 400.348L510.317 392.514L511.508 393.14L511.521 393.85V459.248L510.843 459.487L497.379 467.231Z" fill="#191613"/>
<path d="M485.382 394.463V459.032C485.382 459.041 485.385 459.049 485.393 459.052L497.289 465.917C497.305 465.925 497.324 465.914 497.324 465.895V401.325C497.324 401.317 497.318 401.309 497.313 401.306L485.415 394.441C485.401 394.433 485.382 394.444 485.382 394.463Z" fill="#E5E5E5"/>
<path d="M486.532 458.387L496.174 463.946V401.97L486.532 396.409V458.387ZM497.316 467.242L496.719 466.916L484.244 459.719L484.23 459.033V393.802L485.388 393.116L485.987 393.445L498.462 400.642L498.473 401.325V466.559L497.316 467.242Z" fill="#191613"/>
<path d="M446.632 512.728L434.734 505.865C434.72 505.857 434.72 505.835 434.734 505.825L447.735 498.35C447.743 498.344 447.751 498.344 447.76 498.35L459.655 505.212C459.671 505.22 459.671 505.245 459.655 505.253L446.654 512.728C446.645 512.733 446.637 512.733 446.632 512.728Z" fill="#F5F5F5"/>
<path d="M436.995 505.852L446.646 511.413L457.386 505.231L447.746 499.664L436.995 505.852ZM446.61 514.08L446.035 513.713L433.623 506.549L433.533 505.201L434.165 504.828L447.782 496.997L448.397 497.392L460.805 504.548L460.816 505.901L460.224 506.249L446.61 514.08Z" fill="#191613"/>
<path d="M446.643 512.749V531.33C446.643 531.349 446.662 531.36 446.675 531.349L459.677 523.874C459.685 523.869 459.69 523.861 459.69 523.853V505.272C459.69 505.256 459.671 505.242 459.655 505.253L446.653 512.728C446.645 512.733 446.643 512.741 446.643 512.749Z" fill="#191613"/>
<path d="M447.792 513.4V529.384L458.541 523.199V507.218L447.792 513.4ZM446.675 532.677L445.504 532.013L445.493 531.33V512.134L446.016 511.772L459.658 503.924L460.829 504.589L460.84 505.272V524.563L460.191 524.901L446.675 532.677Z" fill="#191613"/>
<path d="M434.701 505.884V524.468C434.701 524.476 434.704 524.481 434.712 524.487L446.607 531.349C446.624 531.36 446.643 531.349 446.643 531.33V512.749C446.643 512.741 446.637 512.733 446.632 512.728L434.734 505.865C434.72 505.857 434.701 505.868 434.701 505.884Z" fill="#E5E5E5"/>
<path d="M435.851 523.82L445.493 529.381V513.395L435.851 507.833V523.82ZM446.637 532.677L446.035 532.351L433.562 525.151L433.552 524.465V505.264L434.595 504.567L435.189 504.806L447.781 512.063L447.792 512.749V531.992L446.637 532.677Z" fill="#191613"/>
<path d="M424.154 613.454C422.133 613.454 419.929 612.564 418.63 611.135L414.166 606.23L416.375 604.218L420.842 609.126C421.708 610.079 423.56 610.672 424.827 610.4L429.46 609.393L430.095 612.311L425.459 613.318C425.042 613.41 424.604 613.454 424.154 613.454Z" fill="#191613"/>
<path d="M462.319 577.727C462.166 577.46 458.674 571.159 461.322 564.427C463.354 559.269 468.35 555.398 476.176 552.922L477.08 555.766C470.153 557.963 465.789 561.243 464.106 565.518C461.973 570.941 464.89 576.203 464.918 576.254L462.319 577.727Z" fill="#191613"/>
<path d="M392.072 418.118L380.177 411.253C380.16 411.244 380.16 411.223 380.177 411.212L393.178 403.737C393.183 403.732 393.191 403.732 393.2 403.737L405.095 410.599C405.111 410.61 405.111 410.632 405.095 410.64L392.094 418.118C392.088 418.12 392.08 418.12 392.072 418.118Z" fill="#F5F5F5"/>
<path d="M287.08 195.731L275.185 188.866C275.169 188.858 275.169 188.836 275.185 188.825L288.186 181.35C288.192 181.345 288.2 181.345 288.208 181.35L300.104 188.213C300.12 188.223 300.12 188.245 300.104 188.253L287.102 195.731C287.097 195.734 287.089 195.734 287.08 195.731Z" fill="#F5F5F5"/>
<path d="M382.443 411.236L392.085 416.797L402.829 410.618L393.186 405.054L382.443 411.236ZM392.05 419.468L391.478 419.097L379.024 411.917L379.013 410.566L379.604 410.215L393.221 402.387L393.837 402.781L406.244 409.935L406.255 411.288L405.667 411.639L392.05 419.468Z" fill="#191613"/>
<path d="M277.451 188.849L287.094 194.411L297.837 188.231L288.194 182.668L277.451 188.849ZM287.059 197.081L286.487 196.711L274.033 189.53L274.022 188.18L274.613 187.829L288.23 180L288.845 180.395L301.253 187.548L301.264 188.901L300.675 189.252L287.059 197.081Z" fill="#191613"/>
<path d="M392.083 418.137V436.717C392.083 436.736 392.102 436.747 392.118 436.739L405.119 429.262C405.125 429.256 405.13 429.251 405.13 429.242V410.659C405.13 410.643 405.111 410.632 405.095 410.64L392.094 418.118C392.088 418.12 392.083 418.128 392.083 418.137Z" fill="#191613"/>
<path d="M287.091 195.75V214.33C287.091 214.35 287.11 214.36 287.127 214.352L300.128 206.875C300.133 206.869 300.139 206.864 300.139 206.856V188.272C300.139 188.256 300.12 188.245 300.103 188.253L287.102 195.731C287.097 195.734 287.091 195.742 287.091 195.75Z" fill="#191613"/>
<path d="M393.235 418.787V434.768L403.981 428.589V412.605L393.235 418.787ZM392.115 438.065L390.944 437.4L390.933 436.717V417.521L391.456 417.159L405.097 409.314L406.269 409.978L406.28 410.662V429.95L405.631 430.29L392.115 438.065Z" fill="#191613"/>
<path d="M288.243 196.4V212.381L298.989 206.202V190.219L288.243 196.4ZM287.124 215.678L285.953 215.014L285.942 214.33V195.135L286.465 194.773L300.106 186.928L301.277 187.592L301.288 188.275V207.563L300.64 207.904L287.124 215.678Z" fill="#191613"/>
<path d="M380.141 411.272V429.855C380.141 429.863 380.147 429.871 380.152 429.874L392.05 436.739C392.064 436.747 392.083 436.736 392.083 436.717V418.137C392.083 418.128 392.08 418.12 392.072 418.118L380.176 411.253C380.16 411.244 380.141 411.255 380.141 411.272Z" fill="#E5E5E5"/>
<path d="M275.15 188.885V207.468C275.15 207.476 275.155 207.485 275.161 207.487L287.059 214.352C287.072 214.36 287.091 214.35 287.091 214.33V195.75C287.091 195.742 287.089 195.734 287.08 195.731L275.185 188.866C275.169 188.858 275.15 188.869 275.15 188.885Z" fill="#E5E5E5"/>
<path d="M381.29 429.21L390.933 434.768V418.782L381.29 413.223V429.21ZM392.077 438.065L391.478 437.735L379.002 430.538L378.991 429.855V410.61L380.149 409.927L380.746 410.253L393.221 417.451L393.235 418.136V437.379L392.077 438.065Z" fill="#191613"/>
<path d="M276.299 206.823L285.942 212.381V196.395L276.299 190.836V206.823ZM287.086 215.678L286.486 215.348L274.011 208.151L274 207.468V188.223L275.158 187.54L275.754 187.867L288.23 195.064L288.243 195.75V214.992L287.086 215.678Z" fill="#191613"/>
<path d="M476.753 188.211V188.208C476.709 188.078 476.668 187.947 476.614 187.819L473.471 178.156C473.413 177.998 473.274 177.884 473.108 177.862L460.654 176.13C460.597 176.122 460.543 176.103 460.491 176.073L427.188 157.016C421.163 153.54 410.635 153.976 403.676 157.991L376.025 173.839C375.938 173.89 375.837 173.909 375.736 173.896L368.97 172.954C368.758 172.924 368.556 173.046 368.485 173.248L365.505 182.277C364.98 183.151 364.655 184.046 364.549 184.931V184.934C364.255 187.378 365.573 189.757 368.575 191.488L414.37 217.753C420.398 221.232 430.926 220.794 437.883 216.779L471.297 197.607C475.938 194.929 477.802 191.339 476.753 188.211Z" fill="#191613"/>
<path d="M369.39 174.173L366.491 182.865C366.045 183.611 365.775 184.351 365.69 185.067C365.443 187.136 366.671 189.063 369.15 190.495L414.942 216.757C420.643 220.045 430.678 219.612 437.31 215.782L470.722 196.611C474.669 194.335 476.562 191.254 475.663 188.576L475.557 188.26L472.514 178.937L460.27 177.236L459.908 177.064L426.619 158.013C420.912 154.722 410.883 155.16 404.25 158.984L376.597 174.835C376.286 175.012 375.927 175.077 375.581 175.033L369.39 174.173ZM424.582 221.229C420.542 221.229 416.679 220.413 413.795 218.749L368.003 192.484C364.724 190.593 363.048 187.789 363.408 184.795C363.528 183.796 363.879 182.786 364.454 181.798L367.393 172.888C367.652 172.151 368.382 171.704 369.125 171.816L375.66 172.725L403.103 156.994C410.368 152.8 421.427 152.367 427.763 156.02L460.949 175.009L473.266 176.724C473.857 176.803 474.353 177.206 474.555 177.772L477.709 187.462C477.733 187.514 477.782 187.653 477.826 187.794L476.753 188.208L477.842 187.843C479.114 191.622 476.824 195.745 471.872 198.604L438.457 217.775C434.499 220.059 429.414 221.227 424.582 221.229Z" fill="#191613"/>
<path d="M423.187 175.959L427.188 157.049C421.163 153.573 410.635 154.008 403.676 158.023L376.025 173.871C375.938 173.923 375.837 173.942 375.736 173.928L368.97 172.987C368.758 172.959 368.556 173.079 368.485 173.28L365.889 180.929C365.364 181.806 364.549 184.966 364.549 184.966C364.255 187.411 365.573 189.79 368.575 191.521L414.37 217.786C416.647 219.098 419.561 219.852 422.686 220.067L423.187 175.959Z" fill="#E5E5E5"/>
<path d="M369.384 174.206L366.875 181.52C366.573 182.026 365.985 184.008 365.663 185.252C365.443 187.171 366.671 189.096 369.15 190.525L414.942 216.79C416.718 217.816 418.981 218.505 421.55 218.807L422.065 175.719L425.886 157.656C420.084 154.798 410.608 155.353 404.25 159.02L376.597 174.87C376.292 175.044 375.93 175.107 375.581 175.069L369.384 174.206ZM423.822 221.297L422.607 221.216C419.191 220.979 416.143 220.138 413.795 218.782L368.003 192.517C364.724 190.625 363.048 187.822 363.408 184.827C363.571 184.152 364.263 181.526 364.835 180.461L367.396 172.91C367.654 172.186 368.382 171.743 369.125 171.851L375.66 172.758L403.103 157.027C410.365 152.838 421.427 152.4 427.763 156.055L428.485 156.472L424.337 176.084L423.822 221.297Z" fill="#191613"/>
<path d="M414.013 204.873L372.01 180.796C366.246 177.473 366.968 171.664 373.625 167.823L405.062 149.792C411.717 145.951 421.784 145.535 427.548 148.858L469.551 172.935C475.315 176.261 474.59 182.07 467.936 185.911L436.499 203.942C429.844 207.782 419.777 208.199 414.013 204.873Z" fill="#F5F5F5"/>
<path d="M417.783 147.751C413.571 147.751 409.115 148.779 405.637 150.786L374.197 168.819C371.067 170.627 369.27 172.94 369.27 175.162C369.27 176.92 370.446 178.567 372.585 179.803L414.588 203.879C420.022 207.015 429.596 206.596 435.924 202.948L467.363 184.915C470.493 183.107 472.291 180.793 472.291 178.569C472.291 176.811 471.114 175.164 468.976 173.931L426.976 149.855C424.524 148.442 421.234 147.751 417.783 147.751ZM423.778 208.245C419.905 208.245 416.206 207.464 413.441 205.872L371.438 181.792C368.556 180.129 366.971 177.775 366.971 175.162C366.971 172.097 369.185 169.056 373.05 166.827L404.49 148.793C411.449 144.781 422.051 144.362 428.123 147.862L470.123 171.939C473.005 173.602 474.59 175.956 474.59 178.569C474.59 181.637 472.373 184.675 468.51 186.904L437.071 204.938C433.282 207.126 428.409 208.245 423.778 208.245Z" fill="#191613"/>
<path d="M202.381 303.212C202.381 303.212 193.487 295.508 201.762 283.591C201.762 283.591 206.952 290.685 206.952 291.314C206.952 291.943 209.681 296.766 209.681 296.766L202.381 303.212Z" fill="#E5E5E5"/>
<path d="M201.817 285.625C196.835 293.954 200.714 299.698 202.433 301.633L208.224 296.521C206.268 293.012 205.892 291.962 205.818 291.537C205.511 290.87 203.707 288.249 201.817 285.625ZM202.389 304.739L201.629 304.08C201.534 303.996 192.055 295.557 200.817 282.935L201.738 281.61L202.691 282.913C208.101 290.309 208.101 290.914 208.101 291.314C208.216 291.668 209.534 294.172 210.681 296.203L211.141 297.011L202.389 304.739Z" fill="#191613"/>
<path d="M177.198 479.342C177.198 479.342 175.343 482.094 175.49 487.54C175.64 492.985 182.414 492.838 182.414 492.838L199.205 486.435C199.205 486.435 202.002 485.48 199.205 481.8C197.649 479.755 194.353 479.704 191.73 480.06C189.306 480.39 186.928 479.181 185.661 477.088L184.771 475.618L180.205 476.503L177.198 479.342Z" fill="#191613"/>
<path d="M178.102 480.071C177.814 480.572 176.52 483.085 176.642 487.511C176.746 491.37 181.208 491.673 182.202 491.689L198.793 485.363C198.823 485.352 199.175 485.208 199.27 484.87C199.333 484.633 199.371 483.92 198.287 482.497C196.988 480.787 193.711 480.953 191.886 481.198C189.045 481.601 186.203 480.21 184.675 477.684L184.201 476.9L180.753 477.564L178.102 480.071ZM182.256 493.989C179.475 493.989 174.48 492.669 174.341 487.573C174.185 481.822 176.163 478.825 176.247 478.702L176.411 478.509L179.658 475.438L185.34 474.341L186.645 476.494C187.696 478.234 189.627 479.189 191.575 478.923C195.655 478.37 198.614 479.121 200.12 481.106C201.398 482.788 201.852 484.285 201.463 485.556C201.024 486.991 199.722 487.472 199.578 487.521L182.436 493.989C182.376 493.989 182.316 493.989 182.256 493.989Z" fill="#191613"/>
<path d="M217.768 436.913C217.768 436.913 215.592 439.423 215.08 444.845C214.568 450.268 220.307 450.943 220.307 450.943L241.583 445.575C241.583 445.575 244.476 444.962 242.145 440.972C240.848 438.753 237.582 438.304 234.934 438.342C232.488 438.375 227.444 437.929 226.438 435.699L225.733 434.134L221.094 434.458L217.768 436.913Z" fill="#191613"/>
<path d="M218.572 437.746C218.226 438.209 216.64 440.547 216.226 444.954C215.864 448.76 219.367 449.617 220.247 449.769L241.3 444.459C241.335 444.451 241.7 444.35 241.837 444.026C241.932 443.797 242.055 443.098 241.15 441.552C240.066 439.698 236.808 439.431 234.951 439.488C233.608 439.475 226.861 439.437 225.39 436.17L225.016 435.334L221.508 435.579L218.572 437.746ZM220.383 452.105L220.173 452.083C217.801 451.806 213.445 449.914 213.936 444.739C214.478 439.015 216.798 436.276 216.896 436.162L217.084 435.988L220.683 433.336L226.452 432.928L227.487 435.228C228.067 436.518 231.777 437.243 234.918 437.191C238.987 437.085 241.878 438.242 243.136 440.395C244.204 442.218 244.471 443.756 243.934 444.97C243.324 446.345 241.973 446.666 241.82 446.696L220.383 452.105Z" fill="#191613"/>
<path d="M174.376 377.227C174.082 377.281 173.869 377.529 173.878 377.826C173.951 380.363 174.915 391.839 186.048 398.982C198.622 407.047 215.08 398.982 215.08 398.982C215.08 398.982 211.664 404.257 213.527 412.943C214.938 419.525 216.259 430.555 216.818 435.52C216.97 436.875 218.283 437.779 219.607 437.449L224.248 436.29C225.175 436.059 225.853 435.28 225.945 434.333C226.678 426.844 229.718 394.896 228.895 388.741C227.997 381.999 196.835 374.099 194.702 373.566C194.618 373.547 194.544 373.547 194.46 373.563L174.376 377.227Z" fill="#E5E5E5"/>
<path d="M218.237 396.156L216.047 399.599C216.014 399.648 212.919 404.638 214.652 412.703C216.036 419.16 217.319 429.689 217.961 435.392C217.997 435.71 218.163 435.985 218.427 436.17C218.694 436.355 219.018 436.412 219.329 436.333L223.97 435.174C224.431 435.059 224.755 434.684 224.801 434.221C225.436 427.718 228.566 394.975 227.757 388.894C227.231 384.952 210.277 378.656 194.549 374.712L175.046 378.272C175.226 381.28 176.588 391.548 186.669 398.012C198.529 405.629 214.415 398.026 214.573 397.947L218.237 396.156ZM219.059 438.666C218.367 438.666 217.689 438.457 217.114 438.056C216.308 437.498 215.785 436.622 215.676 435.647C215.164 431.091 213.816 419.783 212.402 413.182C211.25 407.812 212.015 403.674 212.86 401.151C207.532 403.122 195.429 406.364 185.427 399.948C173.736 392.449 172.796 380.232 172.728 377.858C172.704 376.995 173.305 376.255 174.169 376.097L194.252 372.431C194.5 372.384 194.743 372.393 194.985 372.455C202.966 374.448 229.089 381.506 230.034 388.589C230.859 394.762 227.988 425.246 227.089 434.444C226.95 435.865 225.921 437.055 224.526 437.403L219.887 438.565C219.612 438.631 219.337 438.666 219.059 438.666Z" fill="#191613"/>
<path d="M183.03 395.255C183.218 398.451 183.49 402.114 183.874 406.271C185.304 421.74 185.454 428.159 185.449 430.312C185.446 430.859 185.313 431.385 185.037 431.858C183.855 433.886 180.437 440.65 181.08 450.175C181.635 458.379 179.47 469.039 178.187 474.456C177.765 476.247 179.121 477.945 180.96 477.945H185.92C187.187 477.945 188.298 477.12 188.649 475.904C190.161 470.691 193.833 454.634 197.072 447.54C201.106 438.696 202.503 429.231 202.503 429.231C202.503 429.231 209.425 393.083 209.692 382.535C209.956 371.987 193.498 371.987 193.498 371.987L182.788 377.573C182.788 377.573 182.907 393.216 183.03 395.255Z" fill="#E5E5E5"/>
<path d="M185.918 479.097H180.96C179.726 479.097 178.582 478.544 177.819 477.581C177.059 476.622 176.784 475.387 177.068 474.192C178.37 468.688 180.475 458.259 179.933 450.254C179.263 440.329 182.91 433.222 184.046 431.279C184.212 430.993 184.297 430.666 184.3 430.31C184.305 428.292 184.163 421.923 182.731 406.38C182.374 402.504 182.088 398.786 181.883 395.323L184.177 395.187C184.381 398.622 184.665 402.316 185.021 406.168C186.465 421.809 186.607 428.265 186.599 430.318C186.596 431.085 186.405 431.798 186.032 432.438C184.981 434.237 181.6 440.828 182.229 450.096C182.791 458.404 180.639 469.09 179.304 474.722C179.187 475.226 179.304 475.749 179.623 476.154C179.947 476.565 180.434 476.797 180.96 476.797H185.918C186.683 476.797 187.337 476.312 187.546 475.583C187.928 474.268 188.448 472.259 189.064 469.874C190.856 462.936 193.566 452.448 196.023 447.064C199.943 438.478 201.354 429.158 201.368 429.066C201.444 428.657 208.284 392.841 208.542 382.505C208.594 380.455 207.951 378.776 206.576 377.368C202.899 373.598 195.301 373.185 193.771 373.141L183.319 378.591L182.257 376.552L193.215 370.838H193.498C193.901 370.838 203.473 370.895 208.224 375.763C210.027 377.611 210.91 379.9 210.841 382.565C210.577 393.086 203.917 427.969 203.634 429.449C203.585 429.795 202.174 439.129 198.118 448.016C195.74 453.216 193.062 463.587 191.289 470.449C190.665 472.861 190.14 474.894 189.756 476.222C189.257 477.94 187.718 479.097 185.918 479.097Z" fill="#191613"/>
<path d="M264.159 361.559C263.377 356.825 262.895 355.099 260.866 354.318C258.839 353.534 256.11 354.942 255.11 356.719C254.606 357.615 254.285 358.633 254.285 358.633L251.901 359.653C251.139 359.98 250.61 360.693 250.526 361.521L250.125 365.359C249.978 366.785 251.158 367.991 252.585 367.877C253.568 367.798 254.857 367.689 256.51 367.534C261.002 367.64 264.794 365.392 264.159 361.559Z" fill="#F5F5F5"/>
<path d="M259.616 355.244C258.276 355.244 256.72 356.199 256.113 357.283C255.677 358.056 255.386 358.97 255.383 358.978L255.222 359.482L252.354 360.71C251.975 360.873 251.714 361.227 251.67 361.638L251.267 365.479C251.221 365.941 251.447 366.249 251.586 366.39C251.725 366.535 252.052 366.782 252.493 366.731C253.473 366.655 254.756 366.543 256.404 366.39C259.057 366.41 261.193 365.718 262.304 364.444C262.955 363.696 263.198 362.786 263.026 361.747C262.242 356.98 261.806 355.911 260.452 355.391C260.193 355.29 259.91 355.244 259.616 355.244ZM252.403 369.034C251.477 369.034 250.591 368.663 249.94 367.996C249.224 367.264 248.875 366.26 248.982 365.239L249.385 361.398C249.513 360.162 250.303 359.09 251.447 358.597L253.37 357.775C253.528 357.353 253.781 356.735 254.108 356.156C255.347 353.953 258.679 352.239 261.28 353.246C264.007 354.296 264.533 356.754 265.295 361.374C265.579 363.097 265.145 364.678 264.039 365.952C262.487 367.738 259.646 368.77 256.483 368.682C254.958 368.832 253.667 368.944 252.678 369.023C252.585 369.031 252.493 369.034 252.403 369.034Z" fill="#191613"/>
<path d="M183.673 314.334C183.646 314.269 183.561 314.274 183.52 314.334L166.068 340.068C164.728 342.257 164.499 344.949 165.453 347.331L175.528 372.504C175.528 372.504 185.877 372.09 185.877 370.849C185.877 369.608 189.603 329.48 189.603 328.859C189.603 328.274 184.294 315.79 183.673 314.334Z" fill="#E5E5E5"/>
<path d="M183.381 316.585L167.022 340.713C165.902 342.54 165.706 344.87 166.518 346.903L176.291 371.317C179.767 371.146 183.586 370.74 184.757 370.318C184.931 367.882 185.838 357.841 187.07 344.29C187.77 336.576 188.434 329.289 188.453 328.826C188.317 328.388 186.348 323.589 183.381 316.585ZM174.763 373.683L164.385 347.758C163.301 345.052 163.565 341.955 165.088 339.469L182.954 313.12L184.395 313.213L184.732 313.885L183.676 314.334L184.738 313.896C190.752 328.042 190.752 328.532 190.752 328.859C190.752 329.128 190.455 332.436 189.36 344.497C188.382 355.265 187.042 370.011 187.029 370.855C187.029 371.84 187.029 373.196 175.572 373.65L174.763 373.683Z" fill="#191613"/>
<path d="M218.779 339.175L227.147 362.487C227.408 363.217 227.956 363.807 228.669 364.109C231.655 365.37 245.026 368.966 253.53 367.801C253.53 367.801 252.945 364.765 251.863 360.84C251.809 360.636 251.656 360.456 251.463 360.372C249.709 359.607 240.848 355.766 235.83 354.095C235.83 354.095 231.897 334.238 230.241 328.652C228.585 323.066 219.479 316.035 219.479 316.035L194.639 308.795C194.639 308.795 190.594 308.743 185.117 312.725C183.987 313.546 182.928 315.273 181.947 317.587C176.932 329.412 173.94 356.578 173.94 356.578L172.362 364.109L169.8 376.331C169.8 376.331 180.459 391.224 197.227 390.603C213.993 389.982 224.859 379.9 224.859 379.9C224.859 379.9 216.989 371.263 216.371 359.267C215.943 350.976 216.798 343.278 217.368 339.312C217.477 338.56 218.52 338.46 218.779 339.175Z" fill="#191613"/>
<path d="M181.947 317.587C176.932 329.412 173.94 356.578 173.94 356.578L172.362 364.109L165.435 346.433V342.702L169.8 335.239L181.947 317.587Z" fill="#191613"/>
<path d="M171.031 376.051C172.843 378.351 182.744 390.045 197.184 389.454C210.757 388.954 220.438 382.018 223.241 379.761C221.189 377.192 215.744 369.472 215.221 359.324C214.786 350.894 215.668 343.065 216.232 339.148C216.355 338.283 217.025 337.638 217.899 337.551C218.76 337.453 219.561 337.959 219.86 338.789L228.228 362.098C228.383 362.531 228.708 362.879 229.116 363.051C231.862 364.21 243.956 367.444 252.147 366.793C251.885 365.596 251.43 363.622 250.809 361.341C248.712 360.429 240.306 356.798 235.468 355.184L234.834 354.974L234.703 354.318C234.662 354.12 230.761 334.447 229.138 328.979C227.724 324.207 220.165 318.047 218.942 317.075L194.492 309.949C193.787 309.993 190.308 310.371 185.792 313.654C180.467 317.522 176.258 346.041 175.082 356.703L171.031 376.051ZM196.187 391.771C179.631 391.771 169.304 377.614 168.866 377.001L168.572 376.59L172.815 356.341C173.24 352.424 177.332 316.958 184.441 311.795C190.159 307.638 194.435 307.611 194.653 307.646L194.958 307.692L220.182 315.126C220.566 315.42 229.604 322.451 231.344 328.325C232.845 333.391 236.125 349.691 236.83 353.221C241.995 355.007 250.259 358.595 251.921 359.321C252.433 359.545 252.825 359.999 252.975 360.538C254.051 364.461 254.637 367.455 254.661 367.58L254.893 368.772L253.689 368.938C244.95 370.142 231.35 366.491 228.223 365.168C227.223 364.746 226.439 363.911 226.065 362.876L218.278 341.184C217.752 345.341 217.15 352.056 217.518 359.207C218.109 370.629 225.632 379.043 225.708 379.127L226.474 379.968L225.64 380.741C225.185 381.166 214.265 391.123 197.268 391.752C196.903 391.765 196.546 391.771 196.187 391.771Z" fill="#191613"/>
<path d="M204.497 292.789C204.497 292.789 203.389 303.209 200.994 305.928C198.603 308.648 215.605 312.725 215.605 312.725L218.098 308.648H222.633C222.633 308.648 231.93 299.132 226.942 288.937C221.955 278.743 209.259 286.262 209.259 286.262L204.497 292.789Z" fill="#F5F5F5"/>
<path d="M201.996 306.522C202.942 307.673 208.646 309.81 215.063 311.408L217.452 307.496H222.124C223.638 305.754 229.966 297.735 225.907 289.441C224.804 287.184 223.189 285.728 221.113 285.105C216.613 283.749 211.135 286.542 210.04 287.141L205.606 293.219C205.382 295.179 204.298 303.623 201.996 306.522ZM216.153 314.037L215.338 313.841C210.95 312.788 200.645 310.022 199.708 307.072C199.496 306.397 199.646 305.722 200.131 305.169C201.7 303.389 202.942 296.554 203.353 292.667L203.386 292.362L208.67 285.274C208.962 285.102 215.788 281.114 221.764 282.9C224.485 283.714 226.574 285.576 227.972 288.431C233.256 299.229 223.859 309.037 223.456 309.448L223.118 309.796H218.74L216.153 314.037Z" fill="#191613"/>
<path d="M201.422 292.479C200.387 288.047 201.259 283.278 204.021 279.663C205.334 277.94 207.175 276.332 209.711 275.569C216.513 273.531 223.54 278.063 227.395 275.569C230.159 273.784 228.958 272.344 228.057 271.674C227.776 271.467 227.798 271.024 228.119 270.893C229.658 270.267 233.801 270.123 235.199 275.186C237.013 281.757 234.877 287.35 228.983 291.428C225.194 294.049 221.644 293.301 219.593 292.433C218.324 291.894 216.894 291.883 215.665 292.511L215.499 292.596C214.775 292.971 214.415 293.81 214.652 294.591L215.605 297.768C215.605 297.77 215.605 297.773 215.608 297.776L216.608 300.354C216.621 300.386 216.621 300.416 216.594 300.438C216.262 300.724 213.56 302.91 210.166 301.851C207.379 300.98 202.86 298.641 201.422 292.479Z" fill="#E5E5E5"/>
<path d="M202.541 292.215C203.797 297.61 207.57 299.834 210.509 300.754C212.574 301.394 214.339 300.574 215.24 300.005L214.456 297.945L213.552 294.921C213.154 293.608 213.753 292.201 214.976 291.575C216.627 290.726 218.419 290.685 220.043 291.376C222.023 292.215 225.068 292.737 228.329 290.484C233.845 286.667 235.784 281.623 234.087 275.491C233.63 273.833 232.821 272.703 231.674 272.14C230.996 271.805 230.304 271.712 229.726 271.737C230.094 272.262 230.276 272.834 230.255 273.433C230.219 274.554 229.467 275.599 228.018 276.536C225.725 278.019 222.707 277.467 219.514 276.882C216.553 276.337 213.2 275.722 210.04 276.672C208.068 277.263 206.35 278.504 204.933 280.36C202.46 283.6 201.564 288.034 202.541 292.218V292.215ZM212.023 303.285C211.332 303.285 210.591 303.187 209.823 302.945C206.946 302.05 201.885 299.529 200.3 292.74V292.737C199.169 287.895 200.218 282.748 203.105 278.967C204.821 276.715 206.932 275.205 209.381 274.47C213.067 273.367 216.711 274.032 219.928 274.622C222.78 275.142 225.237 275.594 226.771 274.606C227.885 273.885 227.953 273.438 227.958 273.356C227.961 273.163 227.738 272.872 227.37 272.597C226.896 272.24 226.648 271.661 226.724 271.078C226.798 270.509 227.158 270.044 227.686 269.826C228.825 269.366 230.819 269.156 232.693 270.079C233.899 270.675 235.509 271.993 236.307 274.881C238.257 281.955 235.953 288.004 229.636 292.375C225.3 295.372 221.2 294.362 219.144 293.491C218.15 293.067 217.068 293.083 216.191 293.535C215.791 293.739 215.679 294.009 215.752 294.259L216.755 297.558L217.978 300.708L217.33 301.323C217.06 301.554 214.938 303.285 212.023 303.285Z" fill="#191613"/>
<path d="M194.639 308.795C194.639 308.795 199.812 318.515 211.405 317.688L219.479 316.035C217.125 313.123 213.761 311.258 210.065 310.654C207.063 310.161 203.492 308.819 201.474 305.376C201.474 305.376 196.71 302.588 194.639 308.795Z" fill="#191613"/>
<path d="M195.903 308.678C197.023 310.482 201.828 317.228 211.323 316.544L217.24 315.322C215.238 313.482 212.688 312.246 209.88 311.786C205.693 311.1 202.517 309.192 200.665 306.255C200.204 306.054 199.109 305.681 198.074 306.075C197.173 306.421 196.443 307.298 195.903 308.678ZM210.089 318.872C198.831 318.872 193.839 309.739 193.623 309.334L193.392 308.898L193.547 308.43C194.334 306.073 195.59 304.557 197.282 303.92C199.679 303.019 201.959 304.328 202.057 304.385L202.315 304.535L202.468 304.793C203.952 307.328 206.57 308.914 210.253 309.519C214.292 310.18 217.885 312.238 220.372 315.311L221.56 316.781L211.637 318.815C211.108 318.853 210.591 318.872 210.089 318.872Z" fill="#191613"/>
<path d="M246.62 361.828C246.62 362.718 245.898 363.44 245.008 363.44C244.117 363.44 243.395 362.718 243.395 361.828C243.395 360.941 244.117 360.22 245.008 360.22C245.898 360.22 246.62 360.941 246.62 361.828Z" fill="#E5E5E5"/>
<path d="M210.896 318.812C209.46 318.812 207.853 318.714 206.083 318.466C196.737 317.165 193.691 309.532 193.566 309.208L195.71 308.378C195.816 308.65 198.431 315.083 206.401 316.19C214.633 317.334 218.88 315.055 218.918 315.031L220.043 317.034C219.887 317.124 216.809 318.812 210.896 318.812Z" fill="#E5E5E5"/>
<path d="M183.095 483.052C179.505 483.052 177.323 480.904 177.293 480.874L178.928 479.257L178.111 480.066L178.922 479.252C179.067 479.393 182.502 482.671 188.009 479.102L189.262 481.029C186.928 482.543 184.844 483.052 183.095 483.052Z" fill="#E5E5E5"/>
<path d="M221.021 441.816C218.692 441.816 217.169 441.004 217.06 440.945L218.169 438.93L217.613 439.937L218.161 438.927C218.308 439.001 221.8 440.792 226.283 437.749L227.577 439.646C225.096 441.331 222.818 441.816 221.021 441.816Z" fill="#E5E5E5"/>
<path d="M185.449 431.461L185.446 429.164C185.498 429.164 190.565 429.12 193.918 426.422L195.359 428.214C191.365 431.426 185.689 431.461 185.449 431.461Z" fill="#191613"/>
<path d="M215.121 401.657L212.933 400.947C213.01 400.715 214.862 395.228 219.612 395.81L219.343 398.089C216.436 397.803 215.172 401.497 215.121 401.657Z" fill="#191613"/>
<path d="M220.587 281.661C218.476 281.661 216.831 281.253 216.7 281.22L217.267 278.991C217.319 279.007 222.554 280.29 225.646 277.995C227.068 276.939 227.844 275.221 227.956 272.886L230.249 272.992C230.11 276.051 229.018 278.36 227.008 279.846C225.063 281.286 222.614 281.661 220.587 281.661Z" fill="#191613"/>
<path d="M186.421 385.154C186.122 384.86 179.11 377.864 181.3 365.827L183.564 366.238C181.589 377.085 187.963 383.444 188.026 383.507L186.421 385.154Z" fill="#E5E5E5"/>
<path d="M166.684 377.594C166.794 377.188 168.609 365.362 177.239 356.485L177.987 358.66C170.5 367.144 168.929 378.103 168.905 378.188L166.684 377.594Z" fill="#F5F5F5"/>
<path d="M167.997 344.764C167.888 344.533 165.368 339.056 168.847 333.925L170.75 335.212C167.999 339.271 170.056 343.738 170.078 343.781L167.997 344.764Z" fill="#191613"/>
<path d="M199.91 273.705L198.197 272.172C198.464 271.873 204.911 264.888 218.618 267.362L218.209 269.625C205.756 267.371 199.967 273.642 199.91 273.705Z" fill="#F5F5F5"/>
<path d="M192.754 286.441C192.746 286.3 192.542 282.935 194.906 276.792L197.053 277.616C194.896 283.216 195.048 286.256 195.048 286.286L192.754 286.441Z" fill="#F5F5F5"/>
<path d="M228.468 267.118C219.367 261.94 209.773 261.75 209.678 261.75L209.708 259.452C210.122 259.458 219.972 259.64 229.604 265.122L228.468 267.118Z" fill="#F5F5F5"/>
<path d="M236.797 332.27C236.525 324.757 232.474 318.942 232.434 318.885L234.31 317.557C234.496 317.818 238.799 323.997 239.096 332.185L236.797 332.27Z" fill="#F5F5F5"/>
<path d="M412.442 76.9912C403.103 81.6396 395.945 75.9347 396.531 64.3484C397.11 52.9133 405.025 40.2032 414.139 35.8657C423.162 31.5702 430.129 37.0378 429.775 48.1662C429.414 59.4416 421.689 72.387 412.442 76.9912ZM415.443 4.21338C391.72 15.1086 370.455 48.101 368.439 78.5897C367.634 90.7936 370.053 100.66 374.853 107.385L409.016 171.969L425.4 179.943C426.875 176.613 450.778 63.1784 451.876 59.763C454.436 51.7916 471.922 46.7798 472.053 39.0164C472.533 10.6136 438.575 -6.4109 415.443 4.21338Z" fill="#F5F5F5"/>
<path d="M420.003 35.4582C418.324 35.4582 416.491 35.9098 414.594 36.813C405.771 41.0119 398.141 53.388 397.58 64.403C397.302 69.984 398.908 74.3383 401.99 76.3463C404.608 78.054 408.158 77.949 411.971 76.0502C420.857 71.6286 428.371 59.1034 428.721 48.1325C428.892 42.7952 427.271 38.6173 424.277 36.668C423.036 35.8615 421.588 35.4582 420.003 35.4582ZM406.245 79.6609C404.262 79.6609 402.431 79.1442 400.838 78.1066C397.112 75.6763 395.157 70.6435 395.477 64.2958C396.071 52.5919 404.239 39.4155 413.684 34.9183C418.067 32.8325 422.237 32.8304 425.43 34.9099C429.054 37.2667 431.022 42.1125 430.828 48.1997C430.455 59.8617 422.418 73.1998 412.915 77.9301L412.443 76.9912L412.915 77.9301C410.594 79.0833 408.338 79.6609 406.245 79.6609ZM411.724 172.116L424.751 178.455C426.614 171.379 434.938 132.728 441.135 103.943C446.884 77.2496 450.428 60.8195 450.871 59.4416C452.196 55.3225 456.946 52.0836 461.54 48.9517C466.161 45.801 470.94 42.541 470.999 38.9996C471.199 27.1234 465.067 16.2533 454.175 9.16835C442.351 1.48686 427.32 -0.0863647 415.884 5.16696C392.263 16.0139 371.452 48.9832 369.49 78.659C368.723 90.2747 370.875 99.9979 375.709 106.778L408.782 169.274C409.435 170.509 410.466 171.505 411.724 172.116ZM422.886 179.886L410.006 173.618C408.862 173.061 407.925 172.156 407.33 171.032L373.92 107.877C368.871 100.817 366.586 90.6255 367.387 78.5225C369.393 48.1577 390.755 14.3944 415.003 3.25969L415.443 4.21333L415.003 3.25969C427.084 -2.2877 442.914 -0.657715 455.325 7.41028C466.839 14.8964 473.319 26.4218 473.106 39.0332C473.028 43.6627 468.026 47.0739 462.73 50.6846C458.429 53.6169 453.983 56.65 452.881 60.0843C452.447 61.4328 447.954 82.2949 443.196 104.384C435.589 139.708 428.894 168.648 426.69 178.096C426.298 179.779 424.441 180.642 422.886 179.886Z" fill="#191613"/>
<path d="M415.5 82.9503C406.334 87.5126 399.306 81.9148 399.881 70.5406C400.448 59.3156 408.22 46.8408 417.165 42.5831C426.022 38.3674 432.86 43.7341 432.512 54.6588C432.158 65.7242 424.579 78.4321 415.5 82.9503ZM418.446 11.5126C395.161 22.2083 374.287 54.5937 372.308 84.5194C371.933 90.2097 372.318 95.3369 373.281 99.9076C399.848 115.831 419.747 114.903 440.497 129.01C446.956 99.0884 453.642 67.7932 454.205 66.0392C456.721 58.2149 469.586 52.3482 469.714 44.7276C470.186 16.8478 441.15 1.08574 418.446 11.5126Z" fill="#F5F5F5"/>
<path d="M426.201 177.204L424.039 179.655L390.217 115.724C385.217 108.746 382.926 98.5801 383.721 86.5233C385.71 56.4778 406.865 23.0611 430.885 12.0272C441.639 7.09525 451.861 7.17508 459.673 12.252C468.686 18.1102 473.509 29.6671 473.252 44.7844C473.121 52.4239 471.716 60.4688 469.071 68.7006C467.977 72.1013 466.677 75.502 465.204 78.8166L426.201 177.204Z" fill="#191613"/>
<path d="M446.155 9.43723C441.493 9.43723 436.476 10.6177 431.326 12.9808C407.621 23.8697 386.738 56.8916 384.772 86.5925C383.992 98.4099 386.171 108.272 391.077 115.115L424.258 177.817L425.291 176.649L464.224 78.43C465.7 75.1091 466.987 71.74 468.068 68.3813C470.681 60.2482 472.07 52.3041 472.198 44.7654C472.449 30.02 467.796 18.7865 459.097 13.132C455.311 10.6702 450.917 9.43723 446.155 9.43723ZM426.717 178.21C425.32 179.794 422.762 179.493 421.776 177.626L389.286 116.216C384.169 109.093 381.858 98.7586 382.669 86.456C384.679 56.0661 406.112 22.2502 430.445 11.0735C441.536 5.98402 452.122 6.09113 460.25 11.3718C469.575 17.4359 474.569 29.3079 474.306 44.8011C474.173 52.5457 472.75 60.6956 470.076 69.0219C468.97 72.4541 467.655 75.8905 466.167 79.2408L427.113 177.76L426.717 178.21Z" fill="#191613"/>
<path d="M394.127 102.753C394.339 102.268 394.679 102.06 395.145 102.13C405.751 103.056 417.291 100.125 429.763 93.3361C438.078 88.8103 446.288 82.6558 454.391 74.8728C454.603 74.665 454.91 74.359 455.314 73.9547C455.717 73.5506 456.003 73.2561 456.173 73.0713C456.809 72.4478 457.307 72.3151 457.668 72.6732C458.029 73.0313 457.912 73.603 457.318 74.3883C456.554 75.4046 455.579 76.6287 454.391 78.0606C450.742 82.4027 446.669 86.4443 442.172 90.1856C437.675 93.9269 433.284 96.9636 428.999 99.2958C422.381 102.898 416.124 105.045 410.227 105.737C404.33 106.428 399.048 105.757 394.382 103.723C394.127 103.631 394 103.469 394 103.238C394 103.1 394.042 102.938 394.127 102.753ZM413.283 72.5768C413.283 69.389 414.004 66.2706 415.446 63.2216C416.889 60.1727 418.862 57.3896 421.365 54.8722C423.656 52.5627 426.477 50.2648 429.828 47.9786C430.974 47.2165 432.841 46.0157 435.429 44.3762L435.429 43.198C435.429 40.2412 435.132 38.4162 434.538 37.7231C433.647 36.822 432.247 36.891 430.338 37.9301L429.829 38.2071C428.429 39.1077 427.22 40.251 426.201 41.6367C425.183 43.0225 424.526 44.5355 424.229 46.1755C424.059 47.1919 423.635 47.9541 422.956 48.4622L415.638 51.4752C414.916 51.6829 414.556 51.4634 414.556 50.8166C414.556 50.678 414.577 50.5048 414.62 50.2968C415.341 45.7925 417.112 41.7792 419.934 38.2569C422.755 34.7348 426.053 31.8306 429.829 29.5445L431.42 28.6786C436.256 26.0462 440.032 25.3541 442.747 26.6021C443.173 26.8344 443.567 27.1182 443.924 27.4513C444.285 27.7863 444.571 28.104 444.783 28.4043C444.995 28.7047 445.186 29.2014 445.356 29.8944C445.526 30.5875 445.653 31.0611 445.738 31.3152C445.823 31.5693 445.886 32.1815 445.929 33.1517C445.971 34.1219 445.992 34.6994 445.992 34.8842L445.992 51.6551C445.992 52.8563 446.151 53.867 446.469 54.6871C446.787 55.5072 447.095 56.056 447.392 56.3332C447.688 56.6105 448.176 57.0495 448.855 57.6503C449.11 57.9275 449.237 58.2278 449.237 58.5513C449.237 58.9208 449.067 59.3366 448.728 59.7986C445.206 65.0416 443.297 67.8825 443 68.3213C442.491 69.0142 441.876 69.3953 441.155 69.4644C440.561 69.2333 440.041 68.9848 439.596 68.7191C439.15 68.4533 438.832 68.2569 438.641 68.1298C438.45 68.0027 438.143 67.7197 437.719 67.2806C437.294 66.8416 436.997 66.5528 436.828 66.4142C434.452 70.5256 432.118 73.5512 429.828 75.4911C428.385 76.7382 426.603 77.939 424.482 79.0936C421.215 80.8716 418.532 81.2348 416.432 80.1833C414.332 79.1317 413.282 76.5963 413.283 72.5768ZM424.228 65.2333C424.228 67.0351 424.642 68.2537 425.469 68.8892C426.296 69.5247 427.41 69.4614 428.81 68.6994C428.937 68.6301 429.117 68.5089 429.351 68.3356C429.584 68.1624 429.743 68.0528 429.828 68.0066C431.61 66.5286 432.988 64.5307 433.964 62.0129C434.431 60.8811 434.781 59.732 435.014 58.5655C435.248 57.399 435.375 56.4865 435.396 55.8281C435.418 55.1698 435.428 54.1014 435.428 52.623L435.428 50.8905C432.968 52.2297 431.101 53.4306 429.828 54.4929C426.095 57.6799 424.228 61.2601 424.228 65.2333ZM450.955 73.0009C451.039 72.7699 451.167 72.5159 451.336 72.2387C452.397 70.876 453.415 69.7905 454.391 68.9822C456.003 67.6427 457.573 66.5343 459.1 65.6568C459.524 65.3797 459.927 65.1834 460.309 65.068C462.218 64.2137 463.364 63.9368 463.745 64.2371C463.915 64.422 464 64.7916 464 65.346L464 65.8311C464 67.4481 463.597 69.5733 462.791 72.2065C461.985 74.8398 460.86 77.2189 459.418 79.3438C459.206 79.6441 459.015 79.8404 458.845 79.9327C458.76 79.9789 458.675 80.002 458.591 80.002C458.336 80.0019 458.272 79.7824 458.4 79.3436C459.969 74.4698 460.754 71.2474 460.754 69.6766C460.754 69.1684 460.67 68.845 460.5 68.7063C460.076 68.3828 458.888 68.7522 456.936 69.8144C456.215 70.2069 455.367 70.715 454.391 71.3384C453.33 72.0543 452.355 72.724 451.464 73.3475C451.209 73.486 451.039 73.5322 450.955 73.486C450.87 73.4398 450.848 73.3589 450.891 73.2434C450.891 73.1972 450.912 73.1164 450.955 73.0009Z" fill="#F69400"/>
</svg>
