<svg width="40" height="40" viewBox="0 0 40 40" fill="none" xmlns="http://www.w3.org/2000/svg">
<path fill-rule="evenodd" clip-rule="evenodd" d="M6.66675 6.66659C5.74627 6.66659 5.00008 7.41278 5.00008 8.33325V24.9999C5.00008 25.9204 5.74627 26.6666 6.66675 26.6666H33.3334C34.2539 26.6666 35.0001 25.9204 35.0001 24.9999V8.33325C35.0001 7.41278 34.2539 6.66659 33.3334 6.66659H6.66675ZM1.66675 8.33325C1.66675 5.57183 3.90532 3.33325 6.66675 3.33325H33.3334C36.0948 3.33325 38.3334 5.57183 38.3334 8.33325V24.9999C38.3334 27.7613 36.0948 29.9999 33.3334 29.9999H6.66675C3.90532 29.9999 1.66675 27.7613 1.66675 24.9999V8.33325Z" fill="#25282B"/>
<path fill-rule="evenodd" clip-rule="evenodd" d="M11.6667 34.9999C11.6667 34.0794 12.4129 33.3333 13.3334 33.3333H26.6667C27.5872 33.3333 28.3334 34.0794 28.3334 34.9999C28.3334 35.9204 27.5872 36.6666 26.6667 36.6666H13.3334C12.4129 36.6666 11.6667 35.9204 11.6667 34.9999Z" fill="#25282B"/>
<path fill-rule="evenodd" clip-rule="evenodd" d="M19.9999 26.6667C20.9204 26.6667 21.6666 27.4129 21.6666 28.3334V35.0001C21.6666 35.9206 20.9204 36.6667 19.9999 36.6667C19.0794 36.6667 18.3333 35.9206 18.3333 35.0001V28.3334C18.3333 27.4129 19.0794 26.6667 19.9999 26.6667Z" fill="#25282B"/>
</svg>
