<svg width="40" height="40" viewBox="0 0 40 40" fill="none" xmlns="http://www.w3.org/2000/svg">
<g clip-path="url(#clip0)">
<path fill-rule="evenodd" clip-rule="evenodd" d="M11.6667 35.0001C11.6667 33.1591 13.1591 31.6667 15.0001 31.6667C16.841 31.6667 18.3334 33.1591 18.3334 35.0001C18.3334 36.841 16.841 38.3334 15.0001 38.3334C13.1591 38.3334 11.6667 36.841 11.6667 35.0001Z" fill="#25282B"/>
<path fill-rule="evenodd" clip-rule="evenodd" d="M30 35.0001C30 33.1591 31.4924 31.6667 33.3333 31.6667C35.1743 31.6667 36.6667 33.1591 36.6667 35.0001C36.6667 36.841 35.1743 38.3334 33.3333 38.3334C31.4924 38.3334 30 36.841 30 35.0001Z" fill="#25282B"/>
<path fill-rule="evenodd" clip-rule="evenodd" d="M0 1.66667C0 0.746192 0.746192 0 1.66667 0H8.33333C9.12771 0 9.81169 0.560642 9.96759 1.33957L11.3674 8.33333H38.3333C38.83 8.33333 39.3009 8.55488 39.6175 8.93759C39.9341 9.3203 40.0635 9.8243 39.9705 10.3122L37.3014 24.308C37.0728 25.459 36.4466 26.4929 35.5325 27.2288C34.623 27.961 33.486 28.3516 32.3189 28.3333H16.1477C14.9806 28.3516 13.8437 27.961 12.9341 27.2288C12.0204 26.4932 11.3944 25.4599 11.1655 24.3094C11.1655 24.309 11.1656 24.3099 11.1655 24.3094L8.38132 10.3987C8.37002 10.3527 8.36064 10.3059 8.35325 10.2585L6.96719 3.33333H1.66667C0.746192 3.33333 0 2.58714 0 1.66667ZM12.0345 11.6667L14.4347 23.6586C14.5109 24.0423 14.7197 24.3869 15.0244 24.6322C15.3291 24.8775 15.7103 25.0078 16.1014 25.0003L16.1333 25H32.3333L32.3653 25.0003C32.7564 25.0078 33.1376 24.8775 33.4423 24.6322C33.7456 24.3881 33.9538 24.0455 34.0309 23.664L36.3188 11.6667H12.0345Z" fill="#25282B"/>
</g>
<defs>
<clipPath id="clip0">
<rect width="40" height="40" fill="white"/>
</clipPath>
</defs>
</svg>
