<svg width="40" height="40" viewBox="0 0 40 40" fill="none" xmlns="http://www.w3.org/2000/svg">
<g clip-path="url(#clip0)">
<path fill-rule="evenodd" clip-rule="evenodd" d="M39.5118 8.82141C40.1627 9.47228 40.1627 10.5276 39.5118 11.1784L23.6785 27.0118C23.0276 27.6626 21.9724 27.6626 21.3215 27.0118L14.1667 19.8569L2.84518 31.1784C2.1943 31.8293 1.13903 31.8293 0.488155 31.1784C-0.162718 30.5276 -0.162718 29.4723 0.488155 28.8214L12.9882 16.3214C13.639 15.6705 14.6943 15.6705 15.3452 16.3214L22.5 23.4762L37.1548 8.82141C37.8057 8.17053 38.861 8.17053 39.5118 8.82141Z" fill="#25282B"/>
<path fill-rule="evenodd" clip-rule="evenodd" d="M26.6667 9.99992C26.6667 9.07944 27.4129 8.33325 28.3334 8.33325H38.3334C39.2539 8.33325 40.0001 9.07944 40.0001 9.99992V19.9999C40.0001 20.9204 39.2539 21.6666 38.3334 21.6666C37.4129 21.6666 36.6667 20.9204 36.6667 19.9999V11.6666H28.3334C27.4129 11.6666 26.6667 10.9204 26.6667 9.99992Z" fill="#25282B"/>
</g>
<defs>
<clipPath id="clip0">
<rect width="40" height="40" fill="white"/>
</clipPath>
</defs>
</svg>
