<svg width="40" height="40" viewBox="0 0 40 40" fill="none" xmlns="http://www.w3.org/2000/svg">
<path fill-rule="evenodd" clip-rule="evenodd" d="M0 4.99992C0 4.07944 0.746192 3.33325 1.66667 3.33325H26.6667C27.5871 3.33325 28.3333 4.07944 28.3333 4.99992V26.6666C28.3333 27.5871 27.5871 28.3333 26.6667 28.3333H1.66667C0.746192 28.3333 0 27.5871 0 26.6666V4.99992ZM3.33333 6.66658V24.9999H25V6.66658H3.33333Z" fill="#25282B"/>
<path fill-rule="evenodd" clip-rule="evenodd" d="M25 13.3334C25 12.4129 25.7462 11.6667 26.6667 11.6667H33.3333C33.7754 11.6667 34.1993 11.8423 34.5118 12.1549L39.5118 17.1549C39.8244 17.4675 40 17.8914 40 18.3334V26.6667C40 27.5872 39.2538 28.3334 38.3333 28.3334H26.6667C25.7462 28.3334 25 27.5872 25 26.6667V13.3334ZM28.3333 15.0001V25.0001H36.6667V19.0238L32.643 15.0001H28.3333Z" fill="#25282B"/>
<path fill-rule="evenodd" clip-rule="evenodd" d="M9.16658 28.3333C7.78587 28.3333 6.66659 29.4526 6.66659 30.8333C6.66659 32.214 7.78587 33.3333 9.16658 33.3333C10.5473 33.3333 11.6666 32.214 11.6666 30.8333C11.6666 29.4526 10.5473 28.3333 9.16658 28.3333ZM3.33325 30.8333C3.33325 27.6117 5.94492 25 9.16658 25C12.3882 25 14.9999 27.6117 14.9999 30.8333C14.9999 34.055 12.3882 36.6667 9.16658 36.6667C5.94492 36.6667 3.33325 34.055 3.33325 30.8333Z" fill="#25282B"/>
<path fill-rule="evenodd" clip-rule="evenodd" d="M30.8333 28.3333C29.4526 28.3333 28.3333 29.4526 28.3333 30.8333C28.3333 32.214 29.4526 33.3333 30.8333 33.3333C32.214 33.3333 33.3333 32.214 33.3333 30.8333C33.3333 29.4526 32.214 28.3333 30.8333 28.3333ZM25 30.8333C25 27.6117 27.6117 25 30.8333 25C34.055 25 36.6667 27.6117 36.6667 30.8333C36.6667 34.055 34.055 36.6667 30.8333 36.6667C27.6117 36.6667 25 34.055 25 30.8333Z" fill="#25282B"/>
</svg>
